Crimson Text New-Bold.ufo
<glyph name="exclam" format="1">
  <advance width="296"/>
  <unicode hex="0021"/>
  <note>
    exclam
  </note>
  <outline>
    <contour>
      <point x="119" y="227" type="curve"/>
      <point x="177" y="227" type="line"/>
      <point x="190" y="368"/>
      <point x="241" y="494"/>
      <point x="241" y="589" type="curve"/>
      <point x="241" y="658"/>
      <point x="199" y="698"/>
      <point x="148" y="698" type="curve"/>
      <point x="97" y="698"/>
      <point x="55" y="658"/>
      <point x="55" y="589" type="curve"/>
      <point x="55" y="494"/>
      <point x="106" y="368"/>
    </contour>
    <contour>
      <point x="148" y="-10" type="curve"/>
      <point x="201" y="-10"/>
      <point x="243" y="30"/>
      <point x="243" y="82" type="curve"/>
      <point x="243" y="135"/>
      <point x="201" y="177"/>
      <point x="148" y="177" type="curve"/>
      <point x="96" y="177"/>
      <point x="53" y="135"/>
      <point x="53" y="82" type="curve"/>
      <point x="53" y="30"/>
      <point x="96" y="-10"/>
    </contour>
  </outline>
</glyph>
<glyph name="numbersign" format="1">
  <advance width="534"/>
  <unicode hex="0023"/>
  <note>
    numbersign
  </note>
  <outline>
    <contour>
      <point x="378" y="587" type="line"/>
      <point x="255" y="0" type="line"/>
      <point x="324" y="0" type="line"/>
      <point x="446" y="587" type="line"/>
    </contour>
    <contour>
      <point x="36" y="227" type="line"/>
      <point x="36" y="164" type="line"/>
      <point x="481" y="164" type="line"/>
      <point x="481" y="227" type="line"/>
    </contour>
    <contour>
      <point x="211" y="587" type="line"/>
      <point x="88" y="0" type="line"/>
      <point x="156" y="0" type="line"/>
      <point x="279" y="587" type="line"/>
    </contour>
    <contour>
      <point x="53" y="423" type="line"/>
      <point x="53" y="360" type="line"/>
      <point x="498" y="360" type="line"/>
      <point x="498" y="423" type="line"/>
    </contour>
  </outline>
</glyph>
<glyph name="dollar" format="1">
  <advance width="513"/>
  <unicode hex="0024"/>
  <note>
    dollar
  </note>
  <outline>
    <contour>
      <point x="241" y="703" type="line"/>
      <point x="241" y="-116" type="line"/>
      <point x="310" y="-116" type="line"/>
      <point x="310" y="703" type="line"/>
    </contour>
    <contour>
      <point x="240" y="-9" type="curve"/>
      <point x="391" y="-9"/>
      <point x="492" y="66"/>
      <point x="492" y="170" type="curve"/>
      <point x="492" y="361"/>
      <point x="196" y="325"/>
      <point x="196" y="457" type="curve"/>
      <point x="196" y="506"/>
      <point x="237" y="536"/>
      <point x="293" y="536" type="curve"/>
      <point x="316" y="536"/>
      <point x="339" y="533"/>
      <point x="364" y="521" type="curve"/>
      <point x="375" y="496"/>
      <point x="387" y="458"/>
      <point x="396" y="418" type="curve"/>
      <point x="460" y="424" type="line"/>
      <point x="448" y="571" type="line"/>
      <point x="411" y="587"/>
      <point x="349" y="598"/>
      <point x="303" y="598" type="curve"/>
      <point x="155" y="598"/>
      <point x="56" y="525"/>
      <point x="56" y="417" type="curve"/>
      <point x="56" y="214"/>
      <point x="349" y="263"/>
      <point x="349" y="125" type="curve"/>
      <point x="349" y="83"/>
      <point x="316" y="55"/>
      <point x="257" y="55" type="curve"/>
      <point x="224" y="55"/>
      <point x="183" y="63"/>
      <point x="154" y="82" type="curve"/>
      <point x="141" y="118"/>
      <point x="129" y="154"/>
      <point x="120" y="190" type="curve"/>
      <point x="55" y="184" type="line"/>
      <point x="54" y="141"/>
      <point x="56" y="94"/>
      <point x="59" y="36" type="curve"/>
      <point x="108" y="8"/>
      <point x="183" y="-9"/>
    </contour>
  </outline>
</glyph>
<glyph name="percent" format="1">
  <advance width="796"/>
  <unicode hex="0025"/>
  <note>
    percent
  </note>
  <outline>
    <contour>
      <point x="141" y="40" type="line"/>
      <point x="205" y="-13" type="line"/>
      <point x="653" y="548" type="line"/>
      <point x="590" y="601" type="line"/>
    </contour>
    <contour>
      <point x="202" y="284" type="curve"/>
      <point x="292" y="284"/>
      <point x="366" y="352"/>
      <point x="366" y="441" type="curve"/>
      <point x="366" y="533"/>
      <point x="297" y="597"/>
      <point x="202" y="597" type="curve"/>
      <point x="113" y="597"/>
      <point x="38" y="528"/>
      <point x="38" y="441" type="curve"/>
      <point x="38" y="349"/>
      <point x="106" y="284"/>
    </contour>
    <contour>
      <point x="202" y="370" type="curve"/>
      <point x="164" y="370"/>
      <point x="136" y="398"/>
      <point x="136" y="442" type="curve"/>
      <point x="136" y="485"/>
      <point x="164" y="512"/>
      <point x="202" y="512" type="curve"/>
      <point x="241" y="512"/>
      <point x="271" y="486"/>
      <point x="271" y="442" type="curve"/>
      <point x="271" y="397"/>
      <point x="241" y="370"/>
    </contour>
    <contour>
      <point x="594" y="-9" type="curve"/>
      <point x="684" y="-9"/>
      <point x="758" y="58"/>
      <point x="758" y="147" type="curve"/>
      <point x="758" y="239"/>
      <point x="689" y="303"/>
      <point x="594" y="303" type="curve"/>
      <point x="505" y="303"/>
      <point x="430" y="234"/>
      <point x="430" y="147" type="curve"/>
      <point x="430" y="55"/>
      <point x="498" y="-9"/>
    </contour>
    <contour>
      <point x="594" y="77" type="curve"/>
      <point x="556" y="77"/>
      <point x="528" y="104"/>
      <point x="528" y="148" type="curve"/>
      <point x="528" y="191"/>
      <point x="556" y="219"/>
      <point x="594" y="219" type="curve"/>
      <point x="633" y="219"/>
      <point x="663" y="192"/>
      <point x="663" y="148" type="curve"/>
      <point x="663" y="103"/>
      <point x="633" y="77"/>
    </contour>
  </outline>
</glyph>
<glyph name="ampersand" format="1">
  <advance width="767"/>
  <unicode hex="0026"/>
  <note>
    ampersand
  </note>
  <outline>
    <contour>
      <point x="261" y="-10" type="curve"/>
      <point x="436" y="-10"/>
      <point x="569" y="87"/>
      <point x="662" y="282" type="curve"/>
      <point x="678" y="286"/>
      <point x="704" y="290"/>
      <point x="729" y="293" type="curve"/>
      <point x="726" y="341" type="line"/>
      <point x="696" y="340"/>
      <point x="646" y="339"/>
      <point x="615" y="339" type="curve"/>
      <point x="583" y="339"/>
      <point x="531" y="339"/>
      <point x="498" y="340" type="curve"/>
      <point x="496" y="291" type="line"/>
      <point x="513" y="290"/>
      <point x="544" y="287"/>
      <point x="563" y="282" type="curve"/>
      <point x="515" y="144"/>
      <point x="430" y="75"/>
      <point x="306" y="75" type="curve"/>
      <point x="213" y="75"/>
      <point x="173" y="121"/>
      <point x="173" y="176" type="curve"/>
      <point x="173" y="229"/>
      <point x="206" y="276"/>
      <point x="298" y="316" type="curve"/>
      <point x="432" y="372"/>
      <point x="499" y="443"/>
      <point x="499" y="527" type="curve"/>
      <point x="499" y="614"/>
      <point x="440" y="668"/>
      <point x="339" y="668" type="curve"/>
      <point x="226" y="668"/>
      <point x="141" y="589"/>
      <point x="141" y="475" type="curve"/>
      <point x="141" y="420"/>
      <point x="157" y="358"/>
      <point x="267" y="210" type="curve"/>
      <point x="374" y="66"/>
      <point x="464" y="-10"/>
      <point x="608" y="-10" type="curve"/>
      <point x="685" y="-10"/>
      <point x="753" y="23"/>
      <point x="792" y="81" type="curve"/>
      <point x="760" y="117" type="line"/>
      <point x="729" y="92"/>
      <point x="692" y="80"/>
      <point x="659" y="80" type="curve"/>
      <point x="560" y="80"/>
      <point x="496" y="144"/>
      <point x="408" y="255" type="curve"/>
      <point x="291" y="402"/>
      <point x="266" y="463"/>
      <point x="266" y="525" type="curve"/>
      <point x="266" y="578"/>
      <point x="294" y="608"/>
      <point x="331" y="608" type="curve"/>
      <point x="363" y="608"/>
      <point x="387" y="585"/>
      <point x="387" y="537" type="curve"/>
      <point x="387" y="462"/>
      <point x="360" y="419"/>
      <point x="246" y="354" type="curve"/>
      <point x="111" y="316"/>
      <point x="28" y="245"/>
      <point x="28" y="155" type="curve"/>
      <point x="28" y="63"/>
      <point x="108" y="-10"/>
    </contour>
  </outline>
</glyph>
<glyph name="quotesingle" format="1">
  <advance width="288"/>
  <unicode hex="0027"/>
  <note>
    quotesingle
  </note>
  <outline>
    <contour>
      <point x="144" y="698" type="curve"/>
      <point x="95" y="698"/>
      <point x="59" y="660"/>
      <point x="59" y="595" type="curve"/>
      <point x="59" y="539"/>
      <point x="101" y="405"/>
      <point x="121" y="330" type="curve"/>
      <point x="167" y="330" type="line"/>
      <point x="187" y="405"/>
      <point x="229" y="539"/>
      <point x="229" y="595" type="curve"/>
      <point x="229" y="660"/>
      <point x="192" y="698"/>
    </contour>
  </outline>
</glyph>
<glyph name="parenleft" format="1">
  <advance width="391"/>
  <unicode hex="0028"/>
  <note>
    parenleft
  </note>
  <outline>
    <contour>
      <point x="391" y="696" type="curve"/>
      <point x="350" y="729" type="line"/>
      <point x="180" y="608"/>
      <point x="92" y="444"/>
      <point x="92" y="250" type="curve"/>
      <point x="92" y="58"/>
      <point x="180" y="-105"/>
      <point x="350" y="-229" type="curve"/>
      <point x="391" y="-196" type="line"/>
      <point x="292" y="-97"/>
      <point x="237" y="63"/>
      <point x="237" y="250" type="curve"/>
      <point x="237" y="437"/>
      <point x="292" y="597"/>
    </contour>
  </outline>
</glyph>
<glyph name="plus" format="1">
  <advance width="540"/>
  <unicode hex="002B"/>
  <outline>
    <contour>
      <point x="487" y="211" type="line"/>
      <point x="487" y="299" type="line"/>
      <point x="53" y="299" type="line"/>
      <point x="53" y="211" type="line"/>
    </contour>
    <contour>
      <point x="312" y="472" type="line"/>
      <point x="228" y="472" type="line"/>
      <point x="228" y="38" type="line"/>
      <point x="312" y="38" type="line"/>
    </contour>
  </outline>
</glyph>
<glyph name="comma" format="1">
  <advance width="288"/>
  <unicode hex="002C"/>
  <note>
    comma
  </note>
  <outline>
    <contour>
      <point x="29" y="-170" type="curve"/>
      <point x="49" y="-212" type="line"/>
      <point x="181" y="-159"/>
      <point x="245" y="-64"/>
      <point x="245" y="45" type="curve"/>
      <point x="245" y="141"/>
      <point x="191" y="177"/>
      <point x="141" y="177" type="curve"/>
      <point x="88" y="177"/>
      <point x="49" y="140"/>
      <point x="49" y="93" type="curve"/>
      <point x="49" y="13"/>
      <point x="136" y="19"/>
      <point x="136" y="-53" type="curve"/>
      <point x="136" y="-98"/>
      <point x="108" y="-137"/>
    </contour>
  </outline>
</glyph>
<glyph name="slash" format="1">
  <advance width="418"/>
  <unicode hex="002F"/>
  <note>
    slash
  </note>
  <outline>
    <contour>
      <point x="331" y="728" type="line"/>
      <point x="30" y="-180" type="line"/>
      <point x="127" y="-180" type="line"/>
      <point x="428" y="728" type="line"/>
    </contour>
  </outline>
</glyph>
<glyph name="zero" format="1">
  <advance width="622"/>
  <unicode hex="0030"/>
  <note>
    zero
  </note>
  <outline>
    <contour>
      <point x="317" y="-9" type="curve"/>
      <point x="458" y="-9"/>
      <point x="573" y="125"/>
      <point x="573" y="302" type="curve"/>
      <point x="573" y="481"/>
      <point x="468" y="596"/>
      <point x="318" y="596" type="curve"/>
      <point x="162" y="596"/>
      <point x="49" y="472"/>
      <point x="49" y="286" type="curve"/>
      <point x="49" y="109"/>
      <point x="163" y="-9"/>
    </contour>
    <contour>
      <point x="327" y="64" type="curve"/>
      <point x="254" y="64"/>
      <point x="200" y="165"/>
      <point x="200" y="316" type="curve"/>
      <point x="200" y="457"/>
      <point x="244" y="531"/>
      <point x="308" y="531" type="curve"/>
      <point x="377" y="531"/>
      <point x="425" y="432"/>
      <point x="425" y="276" type="curve"/>
      <point x="425" y="129"/>
      <point x="390" y="64"/>
    </contour>
  </outline>
</glyph>
<glyph name="one" format="1">
  <advance width="383"/>
  <unicode hex="0031"/>
  <note>
    one
  </note>
  <outline>
    <contour>
      <point x="274" y="221" type="curve"/>
      <point x="274" y="354" type="line" smooth="yes"/>
      <point x="274" y="425"/>
      <point x="275" y="525"/>
      <point x="282" y="600" type="curve"/>
      <point x="33" y="504" type="line"/>
      <point x="37" y="443" type="line"/>
      <point x="67" y="452"/>
      <point x="117" y="461"/>
      <point x="132" y="463" type="curve"/>
      <point x="135" y="439"/>
      <point x="137" y="375"/>
      <point x="137" y="330" type="curve"/>
      <point x="137" y="221" type="line" smooth="yes"/>
      <point x="137" y="137"/>
      <point x="134" y="75"/>
      <point x="131" y="67" type="curve"/>
      <point x="116" y="59"/>
      <point x="80" y="53"/>
      <point x="46" y="50" type="curve"/>
      <point x="50" y="-5" type="line"/>
      <point x="90" y="-2"/>
      <point x="152" y="2"/>
      <point x="206" y="2" type="curve"/>
      <point x="259" y="2"/>
      <point x="322" y="-2"/>
      <point x="362" y="-5" type="curve"/>
      <point x="366" y="50" type="line"/>
      <point x="332" y="53"/>
      <point x="296" y="59"/>
      <point x="281" y="67" type="curve"/>
      <point x="278" y="75"/>
      <point x="274" y="137"/>
    </contour>
  </outline>
</glyph>
<glyph name="two" format="1">
  <advance width="529"/>
  <unicode hex="0032"/>
  <note>
    two
  </note>
  <outline>
    <contour>
      <point x="52" y="52" type="curve"/>
      <point x="55" y="-3" type="line"/>
      <point x="81" y="-1"/>
      <point x="108" y="0"/>
      <point x="132" y="0" type="curve"/>
      <point x="331" y="0" type="line" smooth="yes"/>
      <point x="359" y="0"/>
      <point x="432" y="-2"/>
      <point x="468" y="-5" type="curve"/>
      <point x="501" y="174" type="line"/>
      <point x="438" y="182" type="line"/>
      <point x="431" y="165"/>
      <point x="426" y="153"/>
      <point x="408" y="110" type="curve"/>
      <point x="388" y="107"/>
      <point x="377" y="106"/>
      <point x="351" y="106" type="curve"/>
      <point x="179" y="106" type="line"/>
      <point x="179" y="95" type="line"/>
      <point x="343" y="192"/>
      <point x="436" y="305"/>
      <point x="436" y="413" type="curve"/>
      <point x="436" y="520"/>
      <point x="355" y="596"/>
      <point x="242" y="596" type="curve"/>
      <point x="146" y="596"/>
      <point x="68" y="544"/>
      <point x="29" y="451" type="curve"/>
      <point x="74" y="419" type="line"/>
      <point x="103" y="468"/>
      <point x="144" y="493"/>
      <point x="192" y="493" type="curve"/>
      <point x="254" y="493"/>
      <point x="293" y="451"/>
      <point x="293" y="388" type="curve"/>
      <point x="293" y="288"/>
      <point x="224" y="189"/>
    </contour>
  </outline>
</glyph>
<glyph name="three" format="1">
  <advance width="500"/>
  <unicode hex="0033"/>
  <note>
    three
  </note>
  <outline>
    <contour>
      <point x="266" y="323" type="curve"/>
      <point x="244" y="303" type="line"/>
      <point x="348" y="328"/>
      <point x="422" y="380"/>
      <point x="422" y="463" type="curve"/>
      <point x="422" y="537"/>
      <point x="358" y="596"/>
      <point x="251" y="596" type="curve"/>
      <point x="163" y="596"/>
      <point x="87" y="547"/>
      <point x="50" y="471" type="curve"/>
      <point x="94" y="440" type="line"/>
      <point x="117" y="475"/>
      <point x="158" y="496"/>
      <point x="202" y="496" type="curve"/>
      <point x="251" y="496"/>
      <point x="283" y="470"/>
      <point x="283" y="426" type="curve"/>
      <point x="283" y="371"/>
      <point x="230" y="329"/>
      <point x="147" y="320" type="curve"/>
      <point x="154" y="260" type="line"/>
      <point x="168" y="262"/>
      <point x="183" y="263"/>
      <point x="201" y="263" type="curve"/>
      <point x="273" y="263"/>
      <point x="319" y="224"/>
      <point x="319" y="160" type="curve"/>
      <point x="319" y="87"/>
      <point x="266" y="42"/>
      <point x="202" y="58" type="curve"/>
      <point x="233" y="42" type="line"/>
      <point x="162" y="104" type="line" smooth="yes"/>
      <point x="138" y="126"/>
      <point x="123" y="134"/>
      <point x="98" y="134" type="curve"/>
      <point x="67" y="134"/>
      <point x="46" y="111"/>
      <point x="46" y="81" type="curve"/>
      <point x="46" y="29"/>
      <point x="113" y="-9"/>
      <point x="204" y="-9" type="curve"/>
      <point x="362" y="-9"/>
      <point x="458" y="84"/>
      <point x="458" y="176" type="curve"/>
      <point x="458" y="265"/>
      <point x="388" y="321"/>
    </contour>
  </outline>
</glyph>
<glyph name="four" format="1">
  <advance width="551"/>
  <unicode hex="0034"/>
  <note>
    four
  </note>
  <outline>
    <contour>
      <point x="430" y="148" type="curve"/>
      <point x="429" y="422" type="line"/>
      <point x="429" y="483"/>
      <point x="431" y="543"/>
      <point x="434" y="591" type="curve"/>
      <point x="355" y="591" type="line"/>
      <point x="30" y="195" type="line"/>
      <point x="39" y="148" type="line"/>
      <point x="515" y="148" type="line"/>
      <point x="515" y="235" type="line"/>
      <point x="170" y="235" type="line" smooth="yes"/>
      <point x="148" y="235"/>
      <point x="125" y="237"/>
      <point x="103" y="239" type="curve"/>
      <point x="135" y="214" type="line"/>
      <point x="304" y="441" type="line"/>
      <point x="295" y="455" type="line"/>
      <point x="295" y="148" type="line"/>
      <point x="295" y="95"/>
      <point x="296" y="71"/>
      <point x="296" y="67" type="curve"/>
      <point x="275" y="59"/>
      <point x="245" y="53"/>
      <point x="212" y="50" type="curve"/>
      <point x="216" y="-5" type="line"/>
      <point x="256" y="-2"/>
      <point x="308" y="2"/>
      <point x="361" y="2" type="curve"/>
      <point x="415" y="2"/>
      <point x="464" y="-2"/>
      <point x="494" y="-5" type="curve"/>
      <point x="497" y="50" type="line"/>
      <point x="471" y="53"/>
      <point x="447" y="59"/>
      <point x="433" y="67" type="curve"/>
      <point x="432" y="71"/>
      <point x="430" y="95"/>
    </contour>
  </outline>
</glyph>
<glyph name="five" format="1">
  <advance width="500"/>
  <unicode hex="0035"/>
  <note>
    five
  </note>
  <outline>
    <contour>
      <point x="204" y="-9" type="curve"/>
      <point x="362" y="-9"/>
      <point x="458" y="84"/>
      <point x="458" y="185" type="curve"/>
      <point x="458" y="296"/>
      <point x="357" y="361"/>
      <point x="153" y="375" type="curve"/>
      <point x="181" y="339" type="line"/>
      <point x="196" y="475" type="line"/>
      <point x="418" y="475" type="line"/>
      <point x="428" y="587" type="line"/>
      <point x="143" y="587" type="line"/>
      <point x="106" y="263" type="line"/>
      <point x="258" y="251"/>
      <point x="319" y="218"/>
      <point x="319" y="151" type="curve"/>
      <point x="319" y="88"/>
      <point x="266" y="42"/>
      <point x="202" y="58" type="curve"/>
      <point x="233" y="42" type="line"/>
      <point x="162" y="104" type="line" smooth="yes"/>
      <point x="135" y="127"/>
      <point x="120" y="134"/>
      <point x="98" y="134" type="curve"/>
      <point x="67" y="134"/>
      <point x="46" y="111"/>
      <point x="46" y="81" type="curve"/>
      <point x="46" y="29"/>
      <point x="113" y="-9"/>
    </contour>
  </outline>
</glyph>
<glyph name="six" format="1">
  <advance width="559"/>
  <unicode hex="0036"/>
  <note>
    six
  </note>
  <outline>
    <contour>
      <point x="176" y="263" type="curve"/>
      <point x="176" y="210" type="line"/>
      <point x="194" y="239"/>
      <point x="236" y="270"/>
      <point x="281" y="270" type="curve"/>
      <point x="335" y="270"/>
      <point x="369" y="225"/>
      <point x="369" y="153" type="curve"/>
      <point x="369" y="97"/>
      <point x="336" y="53"/>
      <point x="293" y="53" type="curve"/>
      <point x="240" y="53"/>
      <point x="199" y="125"/>
      <point x="199" y="215" type="curve"/>
      <point x="199" y="401"/>
      <point x="281" y="500"/>
      <point x="467" y="543" type="curve"/>
      <point x="449" y="605" type="line"/>
      <point x="202" y="583"/>
      <point x="57" y="412"/>
      <point x="57" y="230" type="curve"/>
      <point x="57" y="97"/>
      <point x="149" y="-9"/>
      <point x="283" y="-9" type="curve"/>
      <point x="409" y="-9"/>
      <point x="504" y="80"/>
      <point x="504" y="194" type="curve"/>
      <point x="504" y="291"/>
      <point x="430" y="366"/>
      <point x="336" y="366" type="curve"/>
      <point x="281" y="366"/>
      <point x="221" y="322"/>
    </contour>
  </outline>
</glyph>
<glyph name="seven" format="1">
  <advance width="495"/>
  <unicode hex="0037"/>
  <note>
    seven
  </note>
  <outline>
    <contour>
      <point x="138" y="0" type="line"/>
      <point x="248" y="0" type="line"/>
      <point x="465" y="537" type="line"/>
      <point x="461" y="588" type="line"/>
      <point x="436" y="588"/>
      <point x="409" y="587"/>
      <point x="386" y="587" type="curve"/>
      <point x="198" y="587" type="line" smooth="yes"/>
      <point x="166" y="587"/>
      <point x="88" y="589"/>
      <point x="59" y="590" type="curve"/>
      <point x="40" y="407" type="line"/>
      <point x="101" y="401" type="line"/>
      <point x="105" y="418"/>
      <point x="112" y="448"/>
      <point x="119" y="469" type="curve"/>
      <point x="135" y="471"/>
      <point x="158" y="472"/>
      <point x="173" y="472" type="curve"/>
      <point x="387" y="472" type="line"/>
      <point x="387" y="513" type="line"/>
      <point x="138" y="39" type="line"/>
    </contour>
  </outline>
</glyph>
<glyph name="eight" format="1">
  <advance width="597"/>
  <unicode hex="0038"/>
  <note>
    eight
  </note>
  <outline>
    <contour>
      <point x="291" y="-9" type="curve"/>
      <point x="441" y="-9"/>
      <point x="542" y="61"/>
      <point x="542" y="169" type="curve"/>
      <point x="542" y="361"/>
      <point x="215" y="321"/>
      <point x="215" y="461" type="curve"/>
      <point x="215" y="505"/>
      <point x="248" y="532"/>
      <point x="299" y="532" type="curve"/>
      <point x="356" y="532"/>
      <point x="390" y="496"/>
      <point x="390" y="432" type="curve"/>
      <point x="390" y="385"/>
      <point x="378" y="352"/>
      <point x="344" y="306" type="curve"/>
      <point x="355" y="294" type="line"/>
      <point x="464" y="314"/>
      <point x="517" y="367"/>
      <point x="517" y="442" type="curve"/>
      <point x="517" y="532"/>
      <point x="444" y="596"/>
      <point x="311" y="596" type="curve"/>
      <point x="171" y="596"/>
      <point x="79" y="525"/>
      <point x="79" y="426" type="curve"/>
      <point x="79" y="219"/>
      <point x="404" y="261"/>
      <point x="404" y="130" type="curve"/>
      <point x="404" y="89"/>
      <point x="366" y="61"/>
      <point x="307" y="61" type="curve"/>
      <point x="240" y="61"/>
      <point x="193" y="96"/>
      <point x="193" y="158" type="curve"/>
      <point x="193" y="197"/>
      <point x="208" y="231"/>
      <point x="245" y="275" type="curve"/>
      <point x="234" y="298" type="line"/>
      <point x="118" y="276"/>
      <point x="55" y="225"/>
      <point x="55" y="149" type="curve"/>
      <point x="55" y="57"/>
      <point x="148" y="-9"/>
    </contour>
  </outline>
</glyph>
<glyph name="colon" format="1">
  <advance width="288"/>
  <unicode hex="003A"/>
  <note>
    colon
  </note>
  <outline>
    <contour>
      <point x="144" y="-10" type="curve"/>
      <point x="197" y="-10"/>
      <point x="239" y="30"/>
      <point x="239" y="82" type="curve"/>
      <point x="239" y="135"/>
      <point x="197" y="177"/>
      <point x="144" y="177" type="curve"/>
      <point x="92" y="177"/>
      <point x="49" y="135"/>
      <point x="49" y="82" type="curve"/>
      <point x="49" y="30"/>
      <point x="92" y="-10"/>
    </contour>
    <contour>
      <point x="144" y="263" type="curve"/>
      <point x="197" y="263"/>
      <point x="239" y="303"/>
      <point x="239" y="355" type="curve"/>
      <point x="239" y="408"/>
      <point x="197" y="450"/>
      <point x="144" y="450" type="curve"/>
      <point x="92" y="450"/>
      <point x="49" y="408"/>
      <point x="49" y="355" type="curve"/>
      <point x="49" y="303"/>
      <point x="92" y="263"/>
    </contour>
  </outline>
</glyph>
<glyph name="equal" format="1">
  <advance width="540"/>
  <unicode hex="003D"/>
  <outline>
    <contour>
      <point x="487" y="300" type="line"/>
      <point x="487" y="388" type="line"/>
      <point x="53" y="388" type="line"/>
      <point x="53" y="300" type="line"/>
    </contour>
    <contour>
      <point x="487" y="122" type="line"/>
      <point x="487" y="210" type="line"/>
      <point x="53" y="210" type="line"/>
      <point x="53" y="122" type="line"/>
    </contour>
  </outline>
</glyph>
<glyph name="greater" format="1">
  <advance width="540"/>
  <unicode hex="003E"/>
  <outline>
    <contour>
      <point x="53" y="29" type="line"/>
      <point x="487" y="208" type="line"/>
      <point x="487" y="304" type="line"/>
      <point x="53" y="482" type="line"/>
      <point x="53" y="386" type="line"/>
      <point x="453" y="223" type="line"/>
      <point x="453" y="285" type="line"/>
      <point x="53" y="124" type="line"/>
    </contour>
  </outline>
</glyph>
<glyph name="question" format="1">
  <advance width="381"/>
  <unicode hex="003F"/>
  <note>
    question
  </note>
  <outline>
    <contour>
      <point x="106" y="227" type="curve"/>
      <point x="166" y="227" type="line"/>
      <point x="164" y="249"/>
      <point x="163" y="256"/>
      <point x="163" y="263" type="curve"/>
      <point x="163" y="345"/>
      <point x="344" y="333"/>
      <point x="344" y="477" type="curve"/>
      <point x="344" y="598"/>
      <point x="228" y="698"/>
      <point x="95" y="698" type="curve"/>
      <point x="39" y="698"/>
      <point x="6" y="671"/>
      <point x="6" y="632" type="curve"/>
      <point x="6" y="593"/>
      <point x="40" y="564"/>
      <point x="89" y="564" type="curve"/>
      <point x="125" y="564"/>
      <point x="156" y="581"/>
      <point x="189" y="581" type="curve"/>
      <point x="227" y="581"/>
      <point x="249" y="559"/>
      <point x="249" y="531" type="curve"/>
      <point x="249" y="453"/>
      <point x="83" y="429"/>
      <point x="83" y="321" type="curve"/>
      <point x="83" y="291"/>
      <point x="90" y="264"/>
    </contour>
    <contour>
      <point x="136" y="-10" type="curve"/>
      <point x="189" y="-10"/>
      <point x="231" y="30"/>
      <point x="231" y="82" type="curve"/>
      <point x="231" y="135"/>
      <point x="189" y="177"/>
      <point x="136" y="177" type="curve"/>
      <point x="84" y="177"/>
      <point x="41" y="135"/>
      <point x="41" y="82" type="curve"/>
      <point x="41" y="31"/>
      <point x="83" y="-10"/>
    </contour>
  </outline>
</glyph>
<glyph name="B" format="1">
  <advance width="610"/>
  <unicode hex="0042"/>
  <note>
    B
  </note>
  <outline>
    <contour>
      <point x="96" y="67" type="curve"/>
      <point x="85" y="59"/>
      <point x="57" y="54"/>
      <point x="32" y="50" type="curve"/>
      <point x="35" y="-5" type="line"/>
      <point x="69" y="-1"/>
      <point x="155" y="2"/>
      <point x="203" y="2" type="curve"/>
      <point x="233" y="2"/>
      <point x="268" y="-2"/>
      <point x="300" y="-2" type="curve"/>
      <point x="470" y="-2"/>
      <point x="561" y="67"/>
      <point x="561" y="172" type="curve"/>
      <point x="561" y="252"/>
      <point x="503" y="313"/>
      <point x="366" y="320" type="curve"/>
      <point x="359" y="312" type="line"/>
      <point x="472" y="319"/>
      <point x="531" y="381"/>
      <point x="531" y="447" type="curve"/>
      <point x="531" y="539"/>
      <point x="468" y="590"/>
      <point x="322" y="590" type="curve"/>
      <point x="263" y="590"/>
      <point x="208" y="588"/>
      <point x="176" y="588" type="curve"/>
      <point x="133" y="588"/>
      <point x="87" y="586"/>
      <point x="35" y="589" type="curve"/>
      <point x="32" y="533" type="line"/>
      <point x="57" y="533"/>
      <point x="85" y="528"/>
      <point x="96" y="519" type="curve"/>
      <point x="100" y="512"/>
      <point x="103" y="451"/>
      <point x="103" y="366" type="curve"/>
      <point x="103" y="221" type="line" smooth="yes"/>
      <point x="103" y="137"/>
      <point x="100" y="75"/>
    </contour>
    <contour>
      <point x="239" y="177" type="curve"/>
      <point x="239" y="409" type="line" smooth="yes"/>
      <point x="239" y="484"/>
      <point x="241" y="523"/>
      <point x="242" y="530" type="curve"/>
      <point x="250" y="532"/>
      <point x="269" y="535"/>
      <point x="287" y="535" type="curve"/>
      <point x="341" y="535"/>
      <point x="384" y="502"/>
      <point x="384" y="434" type="curve"/>
      <point x="384" y="369"/>
      <point x="349" y="331"/>
      <point x="283" y="331" type="curve"/>
      <point x="267" y="331"/>
      <point x="251" y="331"/>
      <point x="231" y="332" type="curve"/>
      <point x="231" y="266" type="line"/>
      <point x="251" y="268"/>
      <point x="267" y="268"/>
      <point x="287" y="268" type="curve"/>
      <point x="375" y="268"/>
      <point x="414" y="231"/>
      <point x="414" y="158" type="curve"/>
      <point x="414" y="94"/>
      <point x="373" y="59"/>
      <point x="306" y="59" type="curve"/>
      <point x="277" y="59"/>
      <point x="252" y="64"/>
      <point x="242" y="67" type="curve"/>
      <point x="241" y="76"/>
      <point x="239" y="109"/>
    </contour>
    <contour>
      <point x="305" y="0" type="move" name="bottom"/>
    </contour>
    <contour>
      <point x="305" y="587" type="move" name="top"/>
    </contour>
  </outline>
</glyph>
<glyph name="C" format="1">
  <advance width="630"/>
  <unicode hex="0043"/>
  <note>
    C
  </note>
  <outline>
    <contour>
      <point x="376" y="-9" type="curve"/>
      <point x="454" y="-9"/>
      <point x="533" y="16"/>
      <point x="573" y="42" type="curve"/>
      <point x="585" y="88"/>
      <point x="594" y="131"/>
      <point x="602" y="176" type="curve"/>
      <point x="534" y="183" type="line"/>
      <point x="524" y="159"/>
      <point x="514" y="127"/>
      <point x="499" y="94" type="curve"/>
      <point x="479" y="72"/>
      <point x="432" y="61"/>
      <point x="401" y="61" type="curve"/>
      <point x="295" y="61"/>
      <point x="211" y="154"/>
      <point x="211" y="308" type="curve"/>
      <point x="211" y="444"/>
      <point x="275" y="529"/>
      <point x="389" y="529" type="curve"/>
      <point x="422" y="529"/>
      <point x="451" y="522"/>
      <point x="477" y="510" type="curve"/>
      <point x="490" y="475"/>
      <point x="501" y="439"/>
      <point x="513" y="404" type="curve"/>
      <point x="575" y="408" type="line"/>
      <point x="568" y="562" type="line"/>
      <point x="526" y="582"/>
      <point x="460" y="596"/>
      <point x="398" y="596" type="curve"/>
      <point x="196" y="596"/>
      <point x="47" y="478"/>
      <point x="47" y="283" type="curve"/>
      <point x="47" y="98"/>
      <point x="180" y="-9"/>
    </contour>
    <contour>
      <point x="354" y="0" type="move" name="bottom"/>
    </contour>
    <contour>
      <point x="354" y="587" type="move" name="top"/>
    </contour>
  </outline>
</glyph>
<glyph name="D" format="1">
  <advance width="702"/>
  <unicode hex="0044"/>
  <note>
    D
  </note>
  <outline>
    <contour>
      <point x="35" y="589" type="curve"/>
      <point x="32" y="533" type="line"/>
      <point x="57" y="531"/>
      <point x="85" y="528"/>
      <point x="96" y="519" type="curve"/>
      <point x="100" y="512"/>
      <point x="103" y="451"/>
      <point x="103" y="366" type="curve"/>
      <point x="103" y="221" type="line" smooth="yes"/>
      <point x="103" y="137"/>
      <point x="100" y="75"/>
      <point x="96" y="67" type="curve"/>
      <point x="85" y="59"/>
      <point x="57" y="54"/>
      <point x="32" y="50" type="curve"/>
      <point x="35" y="-5" type="line"/>
      <point x="69" y="-1"/>
      <point x="131" y="2"/>
      <point x="209" y="2" type="curve"/>
      <point x="252" y="2"/>
      <point x="289" y="-1"/>
      <point x="323" y="-1" type="curve"/>
      <point x="497" y="-1"/>
      <point x="656" y="108"/>
      <point x="656" y="301" type="curve"/>
      <point x="656" y="481"/>
      <point x="532" y="588"/>
      <point x="305" y="588" type="curve"/>
      <point x="275" y="588"/>
      <point x="212" y="587"/>
      <point x="167" y="587" type="curve"/>
      <point x="124" y="587"/>
      <point x="65" y="586"/>
    </contour>
    <contour>
      <point x="242" y="520" type="curve"/>
      <point x="261" y="523"/>
      <point x="285" y="526"/>
      <point x="307" y="526" type="curve"/>
      <point x="409" y="526"/>
      <point x="503" y="449"/>
      <point x="503" y="260" type="curve"/>
      <point x="503" y="123"/>
      <point x="443" y="67"/>
      <point x="333" y="67" type="curve"/>
      <point x="303" y="67"/>
      <point x="271" y="71"/>
      <point x="245" y="76" type="curve"/>
      <point x="244" y="87"/>
      <point x="240" y="142"/>
      <point x="240" y="221" type="curve"/>
      <point x="240" y="366" type="line" smooth="yes"/>
      <point x="240" y="455"/>
      <point x="242" y="507"/>
    </contour>
    <contour>
      <point x="356" y="0" type="move" name="bottom"/>
    </contour>
    <contour>
      <point x="356" y="294" type="move" name="center"/>
    </contour>
    <contour>
      <point x="212" y="294" type="move" name="stroke"/>
    </contour>
    <contour>
      <point x="356" y="587" type="move" name="top"/>
    </contour>
  </outline>
</glyph>
<glyph name="E" format="1">
  <advance width="584"/>
  <unicode hex="0045"/>
  <note>
    E
  </note>
  <outline>
    <contour>
      <point x="520" y="-6" type="curve"/>
      <point x="565" y="157" type="line"/>
      <point x="508" y="168" type="line"/>
      <point x="489" y="130"/>
      <point x="472" y="98"/>
      <point x="453" y="68" type="curve"/>
      <point x="434" y="64"/>
      <point x="424" y="64"/>
      <point x="382" y="64" type="curve"/>
      <point x="330" y="64" type="line" smooth="yes"/>
      <point x="289" y="64"/>
      <point x="266" y="66"/>
      <point x="242" y="69" type="curve"/>
      <point x="240" y="86"/>
      <point x="239" y="126"/>
      <point x="239" y="194" type="curve"/>
      <point x="239" y="402" type="line" smooth="yes"/>
      <point x="239" y="469"/>
      <point x="240" y="509"/>
      <point x="242" y="524" type="curve"/>
      <point x="259" y="527"/>
      <point x="287" y="528"/>
      <point x="307" y="528" type="curve"/>
      <point x="381" y="528" type="line" smooth="yes"/>
      <point x="397" y="528"/>
      <point x="409" y="527"/>
      <point x="427" y="524" type="curve"/>
      <point x="441" y="496"/>
      <point x="450" y="474"/>
      <point x="465" y="435" type="curve"/>
      <point x="523" y="443" type="line"/>
      <point x="496" y="592" type="line"/>
      <point x="461" y="591"/>
      <point x="384" y="587"/>
      <point x="342" y="587" type="curve"/>
      <point x="171" y="587" type="line" smooth="yes"/>
      <point x="128" y="587"/>
      <point x="65" y="589"/>
      <point x="35" y="591" type="curve"/>
      <point x="32" y="536" type="line"/>
      <point x="57" y="535"/>
      <point x="85" y="529"/>
      <point x="96" y="520" type="curve"/>
      <point x="100" y="513"/>
      <point x="103" y="451"/>
      <point x="103" y="366" type="curve"/>
      <point x="103" y="221" type="line" smooth="yes"/>
      <point x="103" y="137"/>
      <point x="100" y="75"/>
      <point x="96" y="67" type="curve"/>
      <point x="85" y="59"/>
      <point x="57" y="54"/>
      <point x="32" y="50" type="curve"/>
      <point x="35" y="-5" type="line"/>
      <point x="65" y="-2"/>
      <point x="128" y="0"/>
      <point x="171" y="0" type="curve"/>
      <point x="380" y="0" type="line" smooth="yes"/>
      <point x="422" y="0"/>
      <point x="485" y="-4"/>
    </contour>
    <contour>
      <point x="392" y="199" type="curve"/>
      <point x="449" y="199" type="line"/>
      <point x="448" y="232"/>
      <point x="446" y="269"/>
      <point x="446" y="301" type="curve"/>
      <point x="446" y="334"/>
      <point x="448" y="368"/>
      <point x="449" y="402" type="curve"/>
      <point x="392" y="402" type="line"/>
      <point x="390" y="381"/>
      <point x="385" y="344"/>
      <point x="382" y="336" type="curve"/>
      <point x="373" y="336"/>
      <point x="351" y="334"/>
      <point x="325" y="334" type="curve"/>
      <point x="273" y="334" type="line" smooth="yes"/>
      <point x="249" y="334"/>
      <point x="228" y="336"/>
      <point x="217" y="337" type="curve"/>
      <point x="217" y="266" type="line"/>
      <point x="228" y="267"/>
      <point x="249" y="269"/>
      <point x="273" y="269" type="curve"/>
      <point x="325" y="269" type="line" smooth="yes"/>
      <point x="351" y="269"/>
      <point x="373" y="267"/>
      <point x="382" y="267" type="curve"/>
      <point x="385" y="259"/>
      <point x="390" y="219"/>
    </contour>
    <contour>
      <point x="292" y="0" type="move" name="bottom"/>
    </contour>
    <contour>
      <point x="522" y="0" type="move" name="ogonek"/>
    </contour>
    <contour>
      <point x="292" y="587" type="move" name="top"/>
    </contour>
    <contour>
      <point x="27" y="587" type="move" name="topleft"/>
    </contour>
  </outline>
</glyph>
<glyph name="F" format="1">
  <advance width="540"/>
  <unicode hex="0046"/>
  <note>
    F
  </note>
  <outline>
    <contour>
      <point x="37" y="50" type="curve"/>
      <point x="40" y="-5" type="line"/>
      <point x="67" y="-2"/>
      <point x="136" y="-1"/>
      <point x="180" y="-1" type="curve"/>
      <point x="224" y="-1"/>
      <point x="295" y="-2"/>
      <point x="325" y="-5" type="curve"/>
      <point x="327" y="52" type="line"/>
      <point x="303" y="55"/>
      <point x="276" y="59"/>
      <point x="246" y="67" type="curve"/>
      <point x="243" y="75"/>
      <point x="239" y="137"/>
      <point x="239" y="170" type="curve"/>
      <point x="239" y="402" type="line" smooth="yes"/>
      <point x="239" y="469"/>
      <point x="239" y="506"/>
      <point x="240" y="522" type="curve"/>
      <point x="254" y="526"/>
      <point x="278" y="528"/>
      <point x="301" y="528" type="curve"/>
      <point x="375" y="528" type="line" smooth="yes"/>
      <point x="391" y="528"/>
      <point x="402" y="527"/>
      <point x="420" y="524" type="curve"/>
      <point x="433" y="496"/>
      <point x="444" y="474"/>
      <point x="458" y="435" type="curve"/>
      <point x="517" y="443" type="line"/>
      <point x="489" y="592" type="line"/>
      <point x="455" y="591"/>
      <point x="377" y="587"/>
      <point x="335" y="587" type="curve"/>
      <point x="172" y="587" type="line" smooth="yes"/>
      <point x="129" y="587"/>
      <point x="66" y="589"/>
      <point x="36" y="591" type="curve"/>
      <point x="33" y="536" type="line"/>
      <point x="59" y="535"/>
      <point x="86" y="529"/>
      <point x="97" y="520" type="curve"/>
      <point x="101" y="513"/>
      <point x="104" y="451"/>
      <point x="104" y="366" type="curve"/>
      <point x="104" y="221" type="line" smooth="yes"/>
      <point x="104" y="137"/>
      <point x="101" y="75"/>
      <point x="97" y="67" type="curve"/>
      <point x="86" y="59"/>
      <point x="60" y="54"/>
    </contour>
    <contour>
      <point x="385" y="189" type="curve"/>
      <point x="441" y="189" type="line"/>
      <point x="440" y="224"/>
      <point x="438" y="262"/>
      <point x="438" y="295" type="curve"/>
      <point x="438" y="328"/>
      <point x="440" y="363"/>
      <point x="441" y="396" type="curve"/>
      <point x="385" y="396" type="line"/>
      <point x="382" y="375"/>
      <point x="377" y="339"/>
      <point x="374" y="331" type="curve"/>
      <point x="365" y="331"/>
      <point x="344" y="328"/>
      <point x="317" y="328" type="curve"/>
      <point x="261" y="328" type="line" smooth="yes"/>
      <point x="237" y="328"/>
      <point x="216" y="331"/>
      <point x="202" y="332" type="curve"/>
      <point x="202" y="260" type="line"/>
      <point x="216" y="261"/>
      <point x="237" y="263"/>
      <point x="261" y="263" type="curve"/>
      <point x="317" y="263" type="line" smooth="yes"/>
      <point x="344" y="263"/>
      <point x="365" y="261"/>
      <point x="374" y="260" type="curve"/>
      <point x="377" y="252"/>
      <point x="382" y="211"/>
    </contour>
    <contour>
      <point x="171" y="0" type="move" name="bottom"/>
    </contour>
    <contour>
      <point x="262" y="587" type="move" name="top"/>
    </contour>
  </outline>
</glyph>
<glyph name="G" format="1">
  <advance width="662"/>
  <unicode hex="0047"/>
  <note>
    G
  </note>
  <outline>
    <contour>
      <point x="374" y="-9" type="curve"/>
      <point x="446" y="-9"/>
      <point x="524" y="9"/>
      <point x="582" y="45" type="curve"/>
      <point x="580" y="93"/>
      <point x="579" y="119"/>
      <point x="579" y="135" type="curve"/>
      <point x="579" y="165"/>
      <point x="578" y="201"/>
      <point x="581" y="210" type="curve"/>
      <point x="590" y="218"/>
      <point x="610" y="224"/>
      <point x="629" y="227" type="curve"/>
      <point x="626" y="279" type="line"/>
      <point x="603" y="277"/>
      <point x="552" y="275"/>
      <point x="501" y="275" type="curve"/>
      <point x="449" y="275"/>
      <point x="404" y="276"/>
      <point x="372" y="278" type="curve"/>
      <point x="371" y="225" type="line"/>
      <point x="399" y="223"/>
      <point x="424" y="217"/>
      <point x="437" y="209" type="curve"/>
      <point x="440" y="201"/>
      <point x="446" y="165"/>
      <point x="446" y="128" type="curve"/>
      <point x="446" y="22" type="line"/>
      <point x="463" y="76" type="line"/>
      <point x="442" y="66"/>
      <point x="417" y="60"/>
      <point x="400" y="60" type="curve"/>
      <point x="293" y="60"/>
      <point x="208" y="154"/>
      <point x="208" y="308" type="curve"/>
      <point x="208" y="444"/>
      <point x="274" y="529"/>
      <point x="390" y="529" type="curve"/>
      <point x="413" y="529"/>
      <point x="446" y="525"/>
      <point x="476" y="510" type="curve"/>
      <point x="489" y="479"/>
      <point x="497" y="450"/>
      <point x="508" y="417" type="curve"/>
      <point x="571" y="420" type="line"/>
      <point x="566" y="562" type="line"/>
      <point x="526" y="582"/>
      <point x="460" y="596"/>
      <point x="401" y="596" type="curve"/>
      <point x="195" y="596"/>
      <point x="46" y="478"/>
      <point x="46" y="280" type="curve"/>
      <point x="46" y="98"/>
      <point x="181" y="-9"/>
    </contour>
    <contour>
      <point x="354" y="0" type="move" name="bottom"/>
    </contour>
    <contour>
      <point x="354" y="587" type="move" name="top"/>
    </contour>
  </outline>
</glyph>
<glyph name="H" format="1">
  <advance width="700"/>
  <unicode hex="0048"/>
  <note>
    H
  </note>
  <outline>
    <contour>
      <point x="391" y="50" type="curve"/>
      <point x="394" y="-5" type="line"/>
      <point x="424" y="-2"/>
      <point x="474" y="2"/>
      <point x="528" y="2" type="curve"/>
      <point x="582" y="2"/>
      <point x="635" y="-2"/>
      <point x="666" y="-5" type="curve"/>
      <point x="669" y="50" type="line"/>
      <point x="643" y="54"/>
      <point x="615" y="59"/>
      <point x="605" y="67" type="curve"/>
      <point x="601" y="75"/>
      <point x="597" y="137"/>
      <point x="597" y="221" type="curve"/>
      <point x="597" y="366" type="line" smooth="yes"/>
      <point x="597" y="451"/>
      <point x="601" y="513"/>
      <point x="605" y="520" type="curve"/>
      <point x="615" y="529"/>
      <point x="643" y="534"/>
      <point x="669" y="536" type="curve"/>
      <point x="666" y="591" type="line"/>
      <point x="635" y="589"/>
      <point x="582" y="586"/>
      <point x="528" y="586" type="curve"/>
      <point x="474" y="586"/>
      <point x="424" y="589"/>
      <point x="394" y="591" type="curve"/>
      <point x="391" y="536" type="line"/>
      <point x="416" y="534"/>
      <point x="442" y="529"/>
      <point x="453" y="520" type="curve"/>
      <point x="456" y="513"/>
      <point x="460" y="451"/>
      <point x="460" y="366" type="curve"/>
      <point x="460" y="221" type="line" smooth="yes"/>
      <point x="460" y="137"/>
      <point x="456" y="75"/>
      <point x="453" y="67" type="curve"/>
      <point x="442" y="59"/>
      <point x="416" y="54"/>
    </contour>
    <contour>
      <point x="32" y="50" type="curve"/>
      <point x="35" y="-5" type="line"/>
      <point x="65" y="-2"/>
      <point x="118" y="2"/>
      <point x="172" y="2" type="curve"/>
      <point x="226" y="2"/>
      <point x="277" y="-2"/>
      <point x="306" y="-5" type="curve"/>
      <point x="309" y="50" type="line"/>
      <point x="284" y="54"/>
      <point x="258" y="59"/>
      <point x="247" y="67" type="curve"/>
      <point x="244" y="75"/>
      <point x="240" y="137"/>
      <point x="240" y="221" type="curve"/>
      <point x="240" y="366" type="line" smooth="yes"/>
      <point x="240" y="451"/>
      <point x="244" y="513"/>
      <point x="247" y="520" type="curve"/>
      <point x="258" y="529"/>
      <point x="284" y="534"/>
      <point x="309" y="536" type="curve"/>
      <point x="306" y="591" type="line"/>
      <point x="277" y="589"/>
      <point x="226" y="586"/>
      <point x="172" y="586" type="curve"/>
      <point x="118" y="586"/>
      <point x="65" y="589"/>
      <point x="35" y="591" type="curve"/>
      <point x="32" y="536" type="line"/>
      <point x="57" y="534"/>
      <point x="85" y="529"/>
      <point x="96" y="520" type="curve"/>
      <point x="100" y="513"/>
      <point x="103" y="451"/>
      <point x="103" y="366" type="curve"/>
      <point x="103" y="221" type="line" smooth="yes"/>
      <point x="103" y="137"/>
      <point x="100" y="75"/>
      <point x="96" y="67" type="curve"/>
      <point x="85" y="59"/>
      <point x="57" y="54"/>
    </contour>
    <contour>
      <point x="217" y="338" type="curve"/>
      <point x="217" y="261" type="line"/>
      <point x="245" y="262"/>
      <point x="284" y="265"/>
      <point x="350" y="265" type="curve"/>
      <point x="416" y="265"/>
      <point x="455" y="262"/>
      <point x="483" y="261" type="curve"/>
      <point x="483" y="338" type="line"/>
      <point x="454" y="336"/>
      <point x="416" y="334"/>
      <point x="350" y="334" type="curve"/>
      <point x="284" y="334"/>
      <point x="246" y="336"/>
    </contour>
    <contour>
      <point x="350" y="0" type="move" name="bottom"/>
    </contour>
    <contour>
      <point x="350" y="434" type="move" name="center"/>
    </contour>
    <contour>
      <point x="350" y="587" type="move" name="top"/>
    </contour>
    <contour>
      <point x="27" y="587" type="move" name="topleft"/>
    </contour>
  </outline>
</glyph>
<glyph name="I" format="1">
  <advance width="343"/>
  <unicode hex="0049"/>
  <note>
    I
  </note>
  <outline>
    <contour>
      <point x="32" y="50" type="curve"/>
      <point x="35" y="-5" type="line"/>
      <point x="65" y="-2"/>
      <point x="118" y="2"/>
      <point x="172" y="2" type="curve"/>
      <point x="226" y="2"/>
      <point x="279" y="-2"/>
      <point x="309" y="-5" type="curve"/>
      <point x="312" y="50" type="line"/>
      <point x="286" y="54"/>
      <point x="258" y="59"/>
      <point x="247" y="67" type="curve"/>
      <point x="244" y="75"/>
      <point x="240" y="137"/>
      <point x="240" y="221" type="curve"/>
      <point x="240" y="366" type="line" smooth="yes"/>
      <point x="240" y="451"/>
      <point x="244" y="513"/>
      <point x="247" y="520" type="curve"/>
      <point x="258" y="529"/>
      <point x="286" y="534"/>
      <point x="312" y="536" type="curve"/>
      <point x="309" y="591" type="line"/>
      <point x="279" y="589"/>
      <point x="226" y="586"/>
      <point x="172" y="586" type="curve"/>
      <point x="118" y="586"/>
      <point x="65" y="589"/>
      <point x="35" y="591" type="curve"/>
      <point x="32" y="536" type="line"/>
      <point x="57" y="534"/>
      <point x="85" y="529"/>
      <point x="96" y="520" type="curve"/>
      <point x="100" y="513"/>
      <point x="103" y="451"/>
      <point x="103" y="366" type="curve"/>
      <point x="103" y="221" type="line" smooth="yes"/>
      <point x="103" y="137"/>
      <point x="100" y="75"/>
      <point x="96" y="67" type="curve"/>
      <point x="85" y="59"/>
      <point x="57" y="54"/>
    </contour>
    <contour>
      <point x="172" y="0" type="move" name="bottom"/>
    </contour>
    <contour>
      <point x="246" y="0" type="move" name="ogonek"/>
    </contour>
    <contour>
      <point x="172" y="587" type="move" name="top"/>
    </contour>
    <contour>
      <point x="27" y="587" type="move" name="topleft"/>
    </contour>
  </outline>
</glyph>
<glyph name="J" format="1">
  <advance width="344"/>
  <unicode hex="004A"/>
  <note>
    J
  </note>
  <outline>
    <contour>
      <point x="249" y="520" type="curve"/>
      <point x="260" y="528"/>
      <point x="289" y="534"/>
      <point x="313" y="535" type="curve"/>
      <point x="310" y="590" type="line"/>
      <point x="281" y="589"/>
      <point x="228" y="586"/>
      <point x="174" y="586" type="curve"/>
      <point x="120" y="586"/>
      <point x="66" y="589"/>
      <point x="34" y="590" type="curve"/>
      <point x="31" y="535" type="line"/>
      <point x="59" y="534"/>
      <point x="87" y="528"/>
      <point x="98" y="521" type="curve"/>
      <point x="101" y="512"/>
      <point x="105" y="453"/>
      <point x="105" y="370" type="curve"/>
      <point x="106" y="-21" type="line"/>
      <point x="106" y="-141"/>
      <point x="92" y="-154"/>
      <point x="48" y="-147" type="curve"/>
      <point x="105" y="-167" type="line"/>
      <point x="33" y="-100" type="line" smooth="yes"/>
      <point x="4" y="-73"/>
      <point x="-15" y="-66"/>
      <point x="-37" y="-66" type="curve"/>
      <point x="-65" y="-66"/>
      <point x="-87" y="-85"/>
      <point x="-87" y="-119" type="curve"/>
      <point x="-87" y="-170"/>
      <point x="-24" y="-203"/>
      <point x="55" y="-203" type="curve"/>
      <point x="159" y="-203"/>
      <point x="244" y="-133"/>
      <point x="244" y="3" type="curve"/>
      <point x="242" y="368" type="line"/>
      <point x="242" y="453"/>
      <point x="245" y="512"/>
    </contour>
    <contour>
      <point x="174" y="587" type="move" name="top"/>
    </contour>
  </outline>
</glyph>
<glyph name="K" format="1">
  <advance width="667"/>
  <unicode hex="004B"/>
  <note>
    K
  </note>
  <outline>
    <contour>
      <point x="362" y="50" type="curve"/>
      <point x="365" y="-5" type="line"/>
      <point x="391" y="-3"/>
      <point x="466" y="2"/>
      <point x="520" y="2" type="curve"/>
      <point x="575" y="2"/>
      <point x="640" y="1"/>
      <point x="667" y="-2" type="curve"/>
      <point x="667" y="53" type="line"/>
      <point x="652" y="55"/>
      <point x="633" y="57"/>
      <point x="620" y="59" type="curve"/>
      <point x="610" y="69"/>
      <point x="594" y="85"/>
      <point x="547" y="142" type="curve"/>
      <point x="354" y="373" type="line"/>
      <point x="355" y="329" type="line"/>
      <point x="573" y="524" type="line"/>
      <point x="593" y="529"/>
      <point x="617" y="532"/>
      <point x="641" y="534" type="curve"/>
      <point x="638" y="588" type="line"/>
      <point x="613" y="587"/>
      <point x="553" y="586"/>
      <point x="520" y="586" type="curve"/>
      <point x="487" y="586"/>
      <point x="437" y="586"/>
      <point x="407" y="587" type="curve"/>
      <point x="406" y="532" type="line"/>
      <point x="419" y="532"/>
      <point x="453" y="530"/>
      <point x="470" y="525" type="curve"/>
      <point x="264" y="314" type="line"/>
      <point x="223" y="305" type="line"/>
      <point x="223" y="258" type="line"/>
      <point x="258" y="258" type="line"/>
      <point x="380" y="109" type="line" smooth="yes"/>
      <point x="397" y="88"/>
      <point x="405" y="76"/>
      <point x="414" y="60" type="curve"/>
      <point x="401" y="56"/>
      <point x="378" y="52"/>
    </contour>
    <contour>
      <point x="35" y="50" type="curve"/>
      <point x="38" y="-5" type="line"/>
      <point x="67" y="-2"/>
      <point x="118" y="2"/>
      <point x="172" y="2" type="curve"/>
      <point x="226" y="2"/>
      <point x="273" y="-2"/>
      <point x="296" y="-5" type="curve"/>
      <point x="299" y="50" type="line"/>
      <point x="279" y="53"/>
      <point x="255" y="59"/>
      <point x="245" y="67" type="curve"/>
      <point x="242" y="75"/>
      <point x="240" y="137"/>
      <point x="240" y="221" type="curve"/>
      <point x="240" y="366" type="line" smooth="yes"/>
      <point x="240" y="452"/>
      <point x="244" y="514"/>
      <point x="247" y="521" type="curve"/>
      <point x="258" y="530"/>
      <point x="286" y="536"/>
      <point x="312" y="537" type="curve"/>
      <point x="309" y="592" type="line"/>
      <point x="279" y="590"/>
      <point x="226" y="586"/>
      <point x="172" y="586" type="curve"/>
      <point x="118" y="586"/>
      <point x="65" y="590"/>
      <point x="35" y="592" type="curve"/>
      <point x="32" y="537" type="line"/>
      <point x="57" y="536"/>
      <point x="85" y="530"/>
      <point x="96" y="521" type="curve"/>
      <point x="100" y="514"/>
      <point x="103" y="452"/>
      <point x="103" y="366" type="curve"/>
      <point x="103" y="221" type="line" smooth="yes"/>
      <point x="103" y="137"/>
      <point x="101" y="75"/>
      <point x="98" y="67" type="curve"/>
      <point x="86" y="59"/>
      <point x="59" y="54"/>
    </contour>
    <contour>
      <point x="330" y="0" type="move" name="bottom"/>
    </contour>
    <contour>
      <point x="330" y="587" type="move" name="top"/>
    </contour>
  </outline>
</glyph>
<glyph name="L" format="1">
  <advance width="554"/>
  <unicode hex="004C"/>
  <note>
    L
  </note>
  <outline>
    <contour>
      <point x="501" y="-7" type="curve"/>
      <point x="550" y="174" type="line"/>
      <point x="488" y="189" type="line"/>
      <point x="467" y="148"/>
      <point x="451" y="110"/>
      <point x="432" y="80" type="curve"/>
      <point x="418" y="77"/>
      <point x="411" y="74"/>
      <point x="361" y="74" type="curve"/>
      <point x="334" y="74" type="line" smooth="yes"/>
      <point x="295" y="74"/>
      <point x="272" y="75"/>
      <point x="249" y="78" type="curve"/>
      <point x="247" y="94"/>
      <point x="245" y="137"/>
      <point x="245" y="221" type="curve"/>
      <point x="245" y="366" type="line" smooth="yes"/>
      <point x="245" y="451"/>
      <point x="248" y="512"/>
      <point x="252" y="519" type="curve"/>
      <point x="263" y="528"/>
      <point x="289" y="533"/>
      <point x="340" y="536" type="curve"/>
      <point x="337" y="592" type="line"/>
      <point x="276" y="589"/>
      <point x="241" y="586"/>
      <point x="188" y="586" type="curve"/>
      <point x="145" y="586"/>
      <point x="68" y="589"/>
      <point x="38" y="591" type="curve"/>
      <point x="35" y="536" type="line"/>
      <point x="61" y="535"/>
      <point x="89" y="529"/>
      <point x="100" y="520" type="curve"/>
      <point x="103" y="513"/>
      <point x="107" y="451"/>
      <point x="107" y="366" type="curve"/>
      <point x="107" y="221" type="line" smooth="yes"/>
      <point x="107" y="137"/>
      <point x="103" y="75"/>
      <point x="100" y="67" type="curve"/>
      <point x="89" y="59"/>
      <point x="61" y="54"/>
      <point x="35" y="50" type="curve"/>
      <point x="38" y="-5" type="line"/>
      <point x="68" y="-2"/>
      <point x="132" y="0"/>
      <point x="175" y="0" type="curve"/>
      <point x="342" y="0" type="line" smooth="yes"/>
      <point x="384" y="0"/>
      <point x="466" y="-4"/>
    </contour>
    <contour>
      <point x="300" y="0" type="move" name="bottom"/>
    </contour>
    <contour>
      <point x="204" y="303" type="move" name="center"/>
    </contour>
    <contour>
      <point x="390" y="320" type="move" name="dotacc"/>
    </contour>
    <contour>
      <point x="175" y="587" type="move" name="top"/>
    </contour>
    <contour>
      <point x="384" y="587" type="move" name="topright"/>
    </contour>
  </outline>
</glyph>
<glyph name="M" format="1">
  <advance width="890"/>
  <unicode hex="004D"/>
  <note>
    M
  </note>
  <outline>
    <contour>
      <point x="41" y="589" type="curve"/>
      <point x="39" y="534" type="line"/>
      <point x="66" y="532"/>
      <point x="95" y="529"/>
      <point x="106" y="520" type="curve"/>
      <point x="106" y="513"/>
      <point x="107" y="486"/>
      <point x="106" y="394" type="curve"/>
      <point x="104" y="203" type="line" smooth="yes"/>
      <point x="103" y="129"/>
      <point x="100" y="75"/>
      <point x="98" y="67" type="curve"/>
      <point x="87" y="59"/>
      <point x="55" y="55"/>
      <point x="28" y="51" type="curve"/>
      <point x="31" y="-4" type="line"/>
      <point x="63" y="-1"/>
      <point x="107" y="1"/>
      <point x="135" y="1" type="curve"/>
      <point x="164" y="1"/>
      <point x="218" y="-1"/>
      <point x="250" y="-4" type="curve"/>
      <point x="253" y="51" type="line"/>
      <point x="225" y="55"/>
      <point x="196" y="59"/>
      <point x="185" y="67" type="curve"/>
      <point x="182" y="75"/>
      <point x="182" y="129"/>
      <point x="182" y="213" type="curve"/>
      <point x="181" y="558" type="line"/>
      <point x="117" y="558" type="line"/>
      <point x="385" y="-3" type="line"/>
      <point x="449" y="-3" type="line"/>
      <point x="687" y="558" type="line"/>
      <point x="640" y="558" type="line"/>
      <point x="644" y="221" type="line" smooth="yes"/>
      <point x="645" y="137"/>
      <point x="644" y="75"/>
      <point x="641" y="67" type="curve"/>
      <point x="628" y="59"/>
      <point x="604" y="54"/>
      <point x="579" y="50" type="curve"/>
      <point x="582" y="-5" type="line"/>
      <point x="612" y="-2"/>
      <point x="661" y="2"/>
      <point x="712" y="2" type="curve"/>
      <point x="763" y="2"/>
      <point x="825" y="-2"/>
      <point x="856" y="-5" type="curve"/>
      <point x="859" y="50" type="line"/>
      <point x="833" y="54"/>
      <point x="805" y="59"/>
      <point x="795" y="67" type="curve"/>
      <point x="792" y="75"/>
      <point x="788" y="150"/>
      <point x="785" y="221" type="curve"/>
      <point x="778" y="396" type="line" smooth="yes"/>
      <point x="776" y="451"/>
      <point x="774" y="509"/>
      <point x="778" y="523" type="curve"/>
      <point x="790" y="529"/>
      <point x="818" y="534"/>
      <point x="845" y="536" type="curve"/>
      <point x="843" y="591" type="line"/>
      <point x="811" y="589"/>
      <point x="760" y="586"/>
      <point x="717" y="586" type="curve"/>
      <point x="688" y="586"/>
      <point x="652" y="587"/>
      <point x="625" y="588" type="curve"/>
      <point x="436" y="145" type="line"/>
      <point x="466" y="145" type="line"/>
      <point x="257" y="588" type="line"/>
      <point x="231" y="587"/>
      <point x="173" y="586"/>
      <point x="146" y="586" type="curve"/>
      <point x="120" y="586"/>
      <point x="75" y="588"/>
    </contour>
    <contour>
      <point x="416" y="0" type="move" name="bottom"/>
    </contour>
    <contour>
      <point x="416" y="587" type="move" name="top"/>
    </contour>
  </outline>
</glyph>
<glyph name="O" format="1">
  <advance width="714"/>
  <unicode hex="004F"/>
  <note>
    O
  </note>
  <outline>
    <contour>
      <point x="364" y="-9" type="curve"/>
      <point x="496" y="-9"/>
      <point x="668" y="94"/>
      <point x="668" y="302" type="curve"/>
      <point x="668" y="475"/>
      <point x="543" y="596"/>
      <point x="364" y="596" type="curve"/>
      <point x="180" y="596"/>
      <point x="46" y="465"/>
      <point x="46" y="286" type="curve"/>
      <point x="46" y="114"/>
      <point x="179" y="-9"/>
    </contour>
    <contour>
      <point x="371" y="66" type="curve"/>
      <point x="274" y="66"/>
      <point x="207" y="169"/>
      <point x="207" y="316" type="curve"/>
      <point x="207" y="449"/>
      <point x="262" y="529"/>
      <point x="352" y="529" type="curve"/>
      <point x="447" y="529"/>
      <point x="509" y="429"/>
      <point x="509" y="276" type="curve"/>
      <point x="509" y="140"/>
      <point x="461" y="66"/>
    </contour>
    <contour>
      <point x="357" y="0" type="move" name="bottom"/>
    </contour>
    <contour>
      <point x="357" y="294" type="move" name="center"/>
    </contour>
    <contour>
      <point x="432" y="0" type="move" name="ogonek"/>
    </contour>
    <contour>
      <point x="357" y="587" type="move" name="top"/>
    </contour>
    <contour>
      <point x="19" y="587" type="move" name="topleft"/>
    </contour>
    <contour>
      <point x="695" y="587" type="move" name="topright"/>
    </contour>
  </outline>
</glyph>
<glyph name="Q" format="1">
  <advance width="714"/>
  <unicode hex="0051"/>
  <note>
    Q
  </note>
  <outline>
    <contour>
      <point x="364" y="-7" type="curve"/>
      <point x="377" y="-4" type="line"/>
      <point x="502" y="-4"/>
      <point x="668" y="95"/>
      <point x="668" y="302" type="curve"/>
      <point x="668" y="475"/>
      <point x="543" y="596"/>
      <point x="364" y="596" type="curve"/>
      <point x="180" y="596"/>
      <point x="46" y="465"/>
      <point x="46" y="286" type="curve"/>
      <point x="46" y="114"/>
      <point x="179" y="-7"/>
    </contour>
    <contour>
      <point x="613" y="-148" type="curve"/>
      <point x="671" y="-148"/>
      <point x="722" y="-131"/>
      <point x="757" y="-108" type="curve"/>
      <point x="743" y="-54" type="line"/>
      <point x="718" y="-61"/>
      <point x="695" y="-63"/>
      <point x="678" y="-63" type="curve"/>
      <point x="638" y="-63"/>
      <point x="613" y="-54"/>
      <point x="563" y="-23" type="curve"/>
      <point x="525" y="1"/>
      <point x="478" y="12"/>
      <point x="429" y="14" type="curve"/>
      <point x="259" y="14" type="line"/>
      <point x="302" y="-4"/>
      <point x="329" y="-23"/>
      <point x="380" y="-66" type="curve"/>
      <point x="434" y="-111"/>
      <point x="501" y="-148"/>
    </contour>
    <contour>
      <point x="371" y="66" type="curve"/>
      <point x="274" y="66"/>
      <point x="207" y="169"/>
      <point x="207" y="316" type="curve"/>
      <point x="207" y="449"/>
      <point x="262" y="529"/>
      <point x="352" y="529" type="curve"/>
      <point x="447" y="529"/>
      <point x="509" y="429"/>
      <point x="509" y="276" type="curve"/>
      <point x="509" y="140"/>
      <point x="461" y="66"/>
    </contour>
    <contour>
      <point x="357" y="0" type="move" name="bottom"/>
    </contour>
    <contour>
      <point x="357" y="587" type="move" name="top"/>
    </contour>
  </outline>
</glyph>
<glyph name="R" format="1">
  <advance width="617"/>
  <unicode hex="0052"/>
  <note>
    R
  </note>
  <outline>
    <contour>
      <point x="35" y="50" type="curve"/>
      <point x="38" y="-5" type="line"/>
      <point x="67" y="-2"/>
      <point x="117" y="2"/>
      <point x="170" y="2" type="curve"/>
      <point x="224" y="2"/>
      <point x="273" y="-2"/>
      <point x="296" y="-5" type="curve"/>
      <point x="299" y="50" type="line"/>
      <point x="279" y="53"/>
      <point x="254" y="58"/>
      <point x="243" y="67" type="curve"/>
      <point x="242" y="79"/>
      <point x="239" y="137"/>
      <point x="239" y="221" type="curve"/>
      <point x="239" y="373" type="line" smooth="yes"/>
      <point x="239" y="463"/>
      <point x="242" y="525"/>
      <point x="243" y="531" type="curve"/>
      <point x="253" y="534"/>
      <point x="265" y="536"/>
      <point x="279" y="536" type="curve"/>
      <point x="333" y="536"/>
      <point x="378" y="506"/>
      <point x="378" y="435" type="curve"/>
      <point x="378" y="356"/>
      <point x="323" y="323"/>
      <point x="268" y="323" type="curve"/>
      <point x="259" y="323"/>
      <point x="245" y="324"/>
      <point x="231" y="325" type="curve"/>
      <point x="231" y="265" type="line"/>
      <point x="288" y="265" type="line" smooth="yes"/>
      <point x="423" y="265"/>
      <point x="522" y="336"/>
      <point x="522" y="435" type="curve"/>
      <point x="522" y="547"/>
      <point x="437" y="590"/>
      <point x="295" y="590" type="curve"/>
      <point x="254" y="590"/>
      <point x="207" y="586"/>
      <point x="175" y="586" type="curve"/>
      <point x="133" y="586"/>
      <point x="87" y="586"/>
      <point x="35" y="589" type="curve"/>
      <point x="32" y="533" type="line"/>
      <point x="57" y="533"/>
      <point x="85" y="528"/>
      <point x="96" y="519" type="curve"/>
      <point x="100" y="512"/>
      <point x="103" y="451"/>
      <point x="103" y="366" type="curve"/>
      <point x="103" y="221" type="line" smooth="yes"/>
      <point x="103" y="137"/>
      <point x="101" y="75"/>
      <point x="100" y="67" type="curve"/>
      <point x="86" y="59"/>
      <point x="59" y="54"/>
    </contour>
    <contour>
      <point x="563" y="-12" type="curve"/>
      <point x="584" y="-12"/>
      <point x="605" y="-10"/>
      <point x="627" y="-6" type="curve"/>
      <point x="628" y="41" type="line"/>
      <point x="581" y="53"/>
      <point x="541" y="81"/>
      <point x="498" y="141" type="curve"/>
      <point x="379" y="307" type="line"/>
      <point x="267" y="281" type="line"/>
      <point x="323" y="158" type="line" smooth="yes"/>
      <point x="376" y="42"/>
      <point x="448" y="-12"/>
    </contour>
    <contour>
      <point x="334" y="0" type="move" name="bottom"/>
    </contour>
    <contour>
      <point x="301" y="587" type="move" name="top"/>
    </contour>
  </outline>
</glyph>
<glyph name="T" format="1">
  <advance width="614"/>
  <unicode hex="0054"/>
  <note>
    T
  </note>
  <outline>
    <contour>
      <point x="574" y="592" type="curve"/>
      <point x="546" y="591"/>
      <point x="468" y="587"/>
      <point x="432" y="587" type="curve"/>
      <point x="179" y="587" type="line" smooth="yes"/>
      <point x="142" y="587"/>
      <point x="65" y="591"/>
      <point x="36" y="592" type="curve"/>
      <point x="30" y="533"/>
      <point x="23" y="473"/>
      <point x="16" y="413" type="curve"/>
      <point x="78" y="407" type="line"/>
      <point x="90" y="451"/>
      <point x="102" y="493"/>
      <point x="116" y="525" type="curve"/>
      <point x="134" y="527"/>
      <point x="146" y="528"/>
      <point x="164" y="528" type="curve"/>
      <point x="198" y="528" type="line" smooth="yes"/>
      <point x="210" y="528"/>
      <point x="227" y="527"/>
      <point x="235" y="526" type="curve"/>
      <point x="236" y="513"/>
      <point x="238" y="415"/>
      <point x="238" y="327" type="curve"/>
      <point x="238" y="235" type="line" smooth="yes"/>
      <point x="238" y="161"/>
      <point x="236" y="97"/>
      <point x="234" y="67" type="curve"/>
      <point x="209" y="60"/>
      <point x="169" y="55"/>
      <point x="141" y="52" type="curve"/>
      <point x="144" y="-5" type="line"/>
      <point x="186" y="-2"/>
      <point x="263" y="1"/>
      <point x="307" y="1" type="curve"/>
      <point x="350" y="1"/>
      <point x="428" y="-2"/>
      <point x="470" y="-5" type="curve"/>
      <point x="473" y="52" type="line"/>
      <point x="445" y="55"/>
      <point x="405" y="60"/>
      <point x="380" y="67" type="curve"/>
      <point x="378" y="97"/>
      <point x="376" y="161"/>
      <point x="376" y="235" type="curve"/>
      <point x="376" y="327" type="line" smooth="yes"/>
      <point x="376" y="415"/>
      <point x="378" y="513"/>
      <point x="379" y="526" type="curve"/>
      <point x="387" y="527"/>
      <point x="404" y="528"/>
      <point x="416" y="528" type="curve"/>
      <point x="449" y="528" type="line" smooth="yes"/>
      <point x="467" y="528"/>
      <point x="477" y="527"/>
      <point x="495" y="525" type="curve"/>
      <point x="508" y="493"/>
      <point x="522" y="451"/>
      <point x="535" y="409" type="curve"/>
      <point x="597" y="414" type="line"/>
      <point x="588" y="473"/>
      <point x="581" y="533"/>
    </contour>
    <contour>
      <point x="307" y="0" type="move" name="bottom"/>
    </contour>
    <contour>
      <point x="307" y="303" type="move" name="stroke"/>
    </contour>
    <contour>
      <point x="307" y="587" type="move" name="top"/>
    </contour>
  </outline>
</glyph>
<glyph name="U" format="1">
  <advance width="695"/>
  <unicode hex="0055"/>
  <note>
    U
  </note>
  <outline>
    <contour>
      <point x="30" y="590" type="curve"/>
      <point x="27" y="535" type="line"/>
      <point x="52" y="534"/>
      <point x="80" y="529"/>
      <point x="91" y="520" type="curve"/>
      <point x="95" y="513"/>
      <point x="98" y="451"/>
      <point x="98" y="366" type="curve"/>
      <point x="98" y="247" type="line" smooth="yes"/>
      <point x="98" y="81"/>
      <point x="194" y="-9"/>
      <point x="359" y="-9" type="curve"/>
      <point x="494" y="-9"/>
      <point x="598" y="75"/>
      <point x="598" y="248" type="curve"/>
      <point x="598" y="348" type="line" smooth="yes"/>
      <point x="598" y="425"/>
      <point x="601" y="513"/>
      <point x="605" y="520" type="curve"/>
      <point x="616" y="529"/>
      <point x="640" y="534"/>
      <point x="673" y="535" type="curve"/>
      <point x="670" y="590" type="line"/>
      <point x="636" y="589"/>
      <point x="585" y="588"/>
      <point x="558" y="588" type="curve"/>
      <point x="532" y="588"/>
      <point x="477" y="589"/>
      <point x="443" y="590" type="curve"/>
      <point x="441" y="535" type="line"/>
      <point x="470" y="534"/>
      <point x="497" y="529"/>
      <point x="508" y="520" type="curve"/>
      <point x="512" y="513"/>
      <point x="515" y="425"/>
      <point x="515" y="348" type="curve"/>
      <point x="515" y="265" type="line" smooth="yes"/>
      <point x="515" y="134"/>
      <point x="462" y="86"/>
      <point x="378" y="86" type="curve"/>
      <point x="289" y="86"/>
      <point x="236" y="141"/>
      <point x="236" y="264" type="curve"/>
      <point x="236" y="366" type="line"/>
      <point x="236" y="451"/>
      <point x="239" y="500"/>
      <point x="244" y="520" type="curve"/>
      <point x="255" y="529"/>
      <point x="282" y="534"/>
      <point x="311" y="535" type="curve"/>
      <point x="308" y="590" type="line"/>
      <point x="275" y="589"/>
      <point x="222" y="587"/>
      <point x="168" y="587" type="curve"/>
      <point x="113" y="587"/>
      <point x="60" y="589"/>
    </contour>
    <contour>
      <point x="376" y="0" type="move" name="bottom"/>
    </contour>
    <contour>
      <point x="432" y="0" type="move" name="ogonek"/>
    </contour>
    <contour>
      <point x="376" y="587" type="move" name="top"/>
    </contour>
    <contour>
      <point x="670" y="587" type="move" name="topright"/>
    </contour>
  </outline>
</glyph>
<glyph name="V" format="1">
  <advance width="613"/>
  <unicode hex="0056"/>
  <note>
    V
  </note>
  <outline>
    <contour>
      <point x="43" y="522" type="curve"/>
      <point x="277" y="-3" type="line"/>
      <point x="331" y="-3" type="line"/>
      <point x="570" y="522" type="line"/>
      <point x="585" y="529"/>
      <point x="602" y="534"/>
      <point x="619" y="535" type="curve"/>
      <point x="616" y="590" type="line"/>
      <point x="580" y="589"/>
      <point x="547" y="588"/>
      <point x="521" y="588" type="curve"/>
      <point x="493" y="588"/>
      <point x="448" y="589"/>
      <point x="406" y="590" type="curve"/>
      <point x="403" y="534" type="line"/>
      <point x="435" y="530"/>
      <point x="462" y="529"/>
      <point x="479" y="525" type="curve"/>
      <point x="326" y="134" type="line"/>
      <point x="367" y="134" type="line"/>
      <point x="200" y="525" type="line"/>
      <point x="216" y="529"/>
      <point x="244" y="530"/>
      <point x="277" y="534" type="curve"/>
      <point x="274" y="590" type="line"/>
      <point x="233" y="589"/>
      <point x="157" y="587"/>
      <point x="120" y="587" type="curve"/>
      <point x="83" y="587"/>
      <point x="31" y="589"/>
      <point x="-3" y="590" type="curve"/>
      <point x="-6" y="535" type="line"/>
      <point x="11" y="534"/>
      <point x="27" y="529"/>
    </contour>
    <contour>
      <point x="301" y="0" type="move" name="bottom"/>
    </contour>
    <contour>
      <point x="301" y="587" type="move" name="top"/>
    </contour>
  </outline>
</glyph>
<glyph name="W" format="1">
  <advance width="978"/>
  <unicode hex="0057"/>
  <note>
    W
  </note>
  <outline>
    <contour>
      <point x="329" y="-3" type="line"/>
      <point x="496" y="390" type="line"/>
      <point x="451" y="479" type="line"/>
      <point x="316" y="134" type="line"/>
      <point x="366" y="134" type="line"/>
      <point x="206" y="525" type="line"/>
      <point x="216" y="528"/>
      <point x="233" y="531"/>
      <point x="252" y="534" type="curve"/>
      <point x="250" y="590" type="line"/>
      <point x="218" y="588"/>
      <point x="164" y="587"/>
      <point x="126" y="587" type="curve"/>
      <point x="90" y="587"/>
      <point x="47" y="588"/>
      <point x="3" y="590" type="curve"/>
      <point x="0" y="535" type="line"/>
      <point x="17" y="533"/>
      <point x="36" y="529"/>
      <point x="48" y="522" type="curve"/>
      <point x="275" y="-3" type="line"/>
    </contour>
    <contour>
      <point x="417" y="522" type="curve"/>
      <point x="646" y="-3" type="line"/>
      <point x="700" y="-3" type="line"/>
      <point x="928" y="522" type="line"/>
      <point x="941" y="529"/>
      <point x="960" y="533"/>
      <point x="977" y="535" type="curve"/>
      <point x="974" y="590" type="line"/>
      <point x="939" y="589"/>
      <point x="910" y="588"/>
      <point x="884" y="588" type="curve"/>
      <point x="856" y="588"/>
      <point x="806" y="588"/>
      <point x="765" y="590" type="curve"/>
      <point x="762" y="534" type="line"/>
      <point x="794" y="531"/>
      <point x="818" y="529"/>
      <point x="837" y="525" type="curve"/>
      <point x="690" y="134" type="line"/>
      <point x="732" y="134" type="line"/>
      <point x="570" y="525" type="line"/>
      <point x="586" y="528"/>
      <point x="613" y="531"/>
      <point x="646" y="535" type="curve"/>
      <point x="643" y="590" type="line"/>
      <point x="603" y="588"/>
      <point x="549" y="587"/>
      <point x="512" y="587" type="curve"/>
      <point x="475" y="587"/>
      <point x="414" y="588"/>
      <point x="375" y="590" type="curve"/>
      <point x="372" y="535" type="line"/>
      <point x="387" y="533"/>
      <point x="406" y="528"/>
    </contour>
    <contour>
      <point x="495" y="0" type="move" name="bottom"/>
    </contour>
    <contour>
      <point x="495" y="587" type="move" name="top"/>
    </contour>
  </outline>
</glyph>
<glyph name="X" format="1">
  <advance width="607"/>
  <unicode hex="0058"/>
  <note>
    X
  </note>
  <outline>
    <contour>
      <point x="607" y="-2" type="curve"/>
      <point x="609" y="53" type="line"/>
      <point x="589" y="54"/>
      <point x="569" y="59"/>
      <point x="560" y="66" type="curve"/>
      <point x="369" y="336" type="line"/>
      <point x="331" y="392" type="line"/>
      <point x="237" y="523" type="line"/>
      <point x="247" y="529"/>
      <point x="265" y="533"/>
      <point x="284" y="534" type="curve"/>
      <point x="282" y="589" type="line"/>
      <point x="260" y="589"/>
      <point x="194" y="587"/>
      <point x="147" y="587" type="curve"/>
      <point x="99" y="587"/>
      <point x="50" y="589"/>
      <point x="28" y="589" type="curve"/>
      <point x="26" y="534" type="line"/>
      <point x="44" y="535"/>
      <point x="65" y="529"/>
      <point x="74" y="522" type="curve"/>
      <point x="238" y="287" type="line"/>
      <point x="280" y="231" type="line"/>
      <point x="394" y="67" type="line"/>
      <point x="383" y="59"/>
      <point x="356" y="54"/>
      <point x="331" y="51" type="curve"/>
      <point x="333" y="-4" type="line"/>
      <point x="373" y="-1"/>
      <point x="437" y="2"/>
      <point x="487" y="2" type="curve"/>
      <point x="549" y="2"/>
      <point x="583" y="-1"/>
    </contour>
    <contour>
      <point x="420" y="523" type="curve"/>
      <point x="331" y="392" type="line"/>
      <point x="238" y="287" type="line"/>
      <point x="70" y="67" type="line"/>
      <point x="62" y="59"/>
      <point x="41" y="56"/>
      <point x="22" y="53" type="curve"/>
      <point x="24" y="-2" type="line"/>
      <point x="52" y="0"/>
      <point x="93" y="2"/>
      <point x="122" y="2" type="curve"/>
      <point x="152" y="2"/>
      <point x="202" y="1"/>
      <point x="227" y="-2" type="curve"/>
      <point x="229" y="53" type="line"/>
      <point x="207" y="54"/>
      <point x="172" y="64"/>
      <point x="166" y="67" type="curve"/>
      <point x="280" y="231" type="line"/>
      <point x="369" y="336" type="line"/>
      <point x="516" y="523" type="line"/>
      <point x="524" y="529"/>
      <point x="544" y="535"/>
      <point x="564" y="534" type="curve"/>
      <point x="562" y="589" type="line"/>
      <point x="538" y="589"/>
      <point x="521" y="587"/>
      <point x="480" y="587" type="curve"/>
      <point x="438" y="587"/>
      <point x="400" y="589"/>
      <point x="374" y="589" type="curve"/>
      <point x="372" y="534" type="line"/>
      <point x="391" y="534"/>
      <point x="409" y="529"/>
    </contour>
    <contour>
      <point x="300" y="0" type="move" name="bottom"/>
    </contour>
    <contour>
      <point x="300" y="587" type="move" name="top"/>
    </contour>
  </outline>
</glyph>
<glyph name="Y" format="1">
  <advance width="589"/>
  <unicode hex="0059"/>
  <note>
    Y
  </note>
  <outline>
    <contour>
      <point x="317" y="181" type="line"/>
      <point x="534" y="524" type="line"/>
      <point x="545" y="529"/>
      <point x="565" y="533"/>
      <point x="583" y="534" type="curve"/>
      <point x="580" y="589" type="line"/>
      <point x="544" y="589"/>
      <point x="514" y="588"/>
      <point x="487" y="588" type="curve"/>
      <point x="457" y="588"/>
      <point x="417" y="589"/>
      <point x="376" y="589" type="curve"/>
      <point x="373" y="533" type="line"/>
      <point x="404" y="530"/>
      <point x="432" y="528"/>
      <point x="449" y="525" type="curve"/>
      <point x="320" y="303" type="line"/>
      <point x="344" y="303" type="line"/>
      <point x="213" y="525" type="line"/>
      <point x="228" y="528"/>
      <point x="256" y="530"/>
      <point x="289" y="533" type="curve"/>
      <point x="286" y="589" type="line"/>
      <point x="250" y="589"/>
      <point x="172" y="587"/>
      <point x="134" y="587" type="curve"/>
      <point x="94" y="587"/>
      <point x="48" y="589"/>
      <point x="9" y="589" type="curve"/>
      <point x="6" y="534" type="line"/>
      <point x="26" y="532"/>
      <point x="44" y="528"/>
      <point x="55" y="524" type="curve"/>
      <point x="259" y="181" type="line"/>
      <point x="226" y="283" type="line"/>
      <point x="226" y="183" type="line" smooth="yes"/>
      <point x="226" y="137"/>
      <point x="224" y="74"/>
      <point x="221" y="66" type="curve"/>
      <point x="210" y="58"/>
      <point x="182" y="53"/>
      <point x="147" y="50" type="curve"/>
      <point x="150" y="-5" type="line"/>
      <point x="189" y="-2"/>
      <point x="241" y="2"/>
      <point x="294" y="2" type="curve"/>
      <point x="347" y="2"/>
      <point x="399" y="-2"/>
      <point x="438" y="-5" type="curve"/>
      <point x="441" y="50" type="line"/>
      <point x="406" y="53"/>
      <point x="379" y="58"/>
      <point x="368" y="66" type="curve"/>
      <point x="364" y="74"/>
      <point x="362" y="137"/>
      <point x="362" y="183" type="curve"/>
      <point x="362" y="283" type="line"/>
    </contour>
    <contour>
      <point x="294" y="0" type="move" name="bottom"/>
    </contour>
    <contour>
      <point x="294" y="587" type="move" name="top"/>
    </contour>
    <contour>
      <point x="23" y="587" type="move" name="topleft"/>
    </contour>
  </outline>
</glyph>
<glyph name="Z" format="1">
  <advance width="553"/>
  <unicode hex="005A"/>
  <note>
    Z
  </note>
  <outline>
    <contour>
      <point x="507" y="-5" type="curve"/>
      <point x="537" y="174" type="line"/>
      <point x="476" y="182" type="line"/>
      <point x="458" y="129"/>
      <point x="446" y="96"/>
      <point x="434" y="68" type="curve"/>
      <point x="416" y="65"/>
      <point x="404" y="64"/>
      <point x="388" y="64" type="curve"/>
      <point x="195" y="64" type="line"/>
      <point x="195" y="23" type="line"/>
      <point x="505" y="536" type="line"/>
      <point x="505" y="589" type="line"/>
      <point x="479" y="588"/>
      <point x="452" y="587"/>
      <point x="426" y="587" type="curve"/>
      <point x="140" y="587" type="line" smooth="yes"/>
      <point x="115" y="587"/>
      <point x="73" y="587"/>
      <point x="41" y="589" type="curve"/>
      <point x="43" y="420" type="line"/>
      <point x="106" y="420" type="line"/>
      <point x="113" y="469"/>
      <point x="118" y="495"/>
      <point x="125" y="523" type="curve"/>
      <point x="146" y="526"/>
      <point x="167" y="528"/>
      <point x="208" y="528" type="curve"/>
      <point x="375" y="528" type="line"/>
      <point x="375" y="571" type="line"/>
      <point x="59" y="50" type="line"/>
      <point x="59" y="-3" type="line"/>
      <point x="85" y="-1"/>
      <point x="112" y="0"/>
      <point x="139" y="0" type="curve"/>
      <point x="371" y="0" type="line" smooth="yes"/>
      <point x="407" y="0"/>
      <point x="479" y="-4"/>
    </contour>
    <contour>
      <point x="275" y="0" type="move" name="bottom"/>
    </contour>
    <contour>
      <point x="275" y="587" type="move" name="top"/>
    </contour>
  </outline>
</glyph>
<glyph name="backslash" format="1">
  <advance width="418"/>
  <unicode hex="005C"/>
  <note>
    backslash
  </note>
  <outline>
    <contour>
      <point x="291" y="-220" type="line"/>
      <point x="388" y="-220" type="line"/>
      <point x="87" y="728" type="line"/>
      <point x="-10" y="728" type="line"/>
    </contour>
  </outline>
</glyph>
<glyph name="a" format="1">
  <advance width="503"/>
  <unicode hex="0061"/>
  <note>
    a
  </note>
  <outline>
    <contour>
      <point x="188" y="-8" type="curve"/>
      <point x="222" y="-8"/>
      <point x="268" y="14"/>
      <point x="314" y="72" type="curve"/>
      <point x="293" y="79" type="line"/>
      <point x="311" y="33" type="line" smooth="yes"/>
      <point x="321" y="8"/>
      <point x="336" y="-8"/>
      <point x="366" y="-8" type="curve"/>
      <point x="400" y="-8"/>
      <point x="432" y="11"/>
      <point x="494" y="34" type="curve"/>
      <point x="494" y="75" type="line"/>
      <point x="472" y="78"/>
      <point x="447" y="82"/>
      <point x="429" y="89" type="curve"/>
      <point x="423" y="105"/>
      <point x="421" y="125"/>
      <point x="421" y="158" type="curve"/>
      <point x="424" y="298" type="line"/>
      <point x="424" y="391"/>
      <point x="348" y="448"/>
      <point x="230" y="448" type="curve"/>
      <point x="171" y="441"/>
      <point x="46" y="379"/>
      <point x="46" y="326" type="curve"/>
      <point x="46" y="285"/>
      <point x="92" y="264"/>
      <point x="160" y="278" type="curve"/>
      <point x="165" y="340" type="line" smooth="yes"/>
      <point x="167" y="369"/>
      <point x="175" y="377"/>
      <point x="196" y="377" type="curve"/>
      <point x="239" y="377"/>
      <point x="289" y="339"/>
      <point x="289" y="294" type="curve"/>
      <point x="289" y="259" type="line"/>
      <point x="132" y="213" type="line" smooth="yes"/>
      <point x="64" y="193"/>
      <point x="40" y="160"/>
      <point x="40" y="114" type="curve"/>
      <point x="40" y="63"/>
      <point x="95" y="-8"/>
    </contour>
    <contour>
      <point x="240" y="83" type="curve"/>
      <point x="210" y="83"/>
      <point x="178" y="111"/>
      <point x="178" y="144" type="curve"/>
      <point x="178" y="169"/>
      <point x="191" y="184"/>
      <point x="224" y="190" type="curve"/>
      <point x="290" y="202" type="line"/>
      <point x="290" y="105" type="line"/>
      <point x="274" y="89"/>
      <point x="256" y="83"/>
    </contour>
    <contour>
      <point x="252" y="0" type="move" name="bottom"/>
    </contour>
    <contour>
      <point x="453" y="0" type="move" name="ogonek"/>
    </contour>
    <contour>
      <point x="247" y="440" type="move" name="top"/>
    </contour>
  </outline>
</glyph>
<glyph name="c" format="1">
  <advance width="467"/>
  <unicode hex="0063"/>
  <note>
    c
  </note>
  <outline>
    <contour>
      <point x="263" y="-8" type="curve"/>
      <point x="340" y="-8"/>
      <point x="412" y="34"/>
      <point x="450" y="117" type="curve"/>
      <point x="419" y="146" type="line"/>
      <point x="383" y="104"/>
      <point x="347" y="90"/>
      <point x="310" y="90" type="curve"/>
      <point x="236" y="90"/>
      <point x="180" y="143"/>
      <point x="180" y="244" type="curve"/>
      <point x="180" y="349"/>
      <point x="242" y="400"/>
      <point x="301" y="388" type="curve"/>
      <point x="249" y="400" type="line"/>
      <point x="323" y="335" type="line" smooth="yes"/>
      <point x="348" y="313"/>
      <point x="365" y="305"/>
      <point x="391" y="305" type="curve"/>
      <point x="419" y="305"/>
      <point x="444" y="323"/>
      <point x="444" y="356" type="curve"/>
      <point x="444" y="409"/>
      <point x="375" y="448"/>
      <point x="287" y="448" type="curve"/>
      <point x="141" y="448"/>
      <point x="37" y="337"/>
      <point x="37" y="209" type="curve"/>
      <point x="37" y="82"/>
      <point x="137" y="-8"/>
    </contour>
    <contour>
      <point x="254" y="0" type="move" name="bottom"/>
    </contour>
    <contour>
      <point x="254" y="440" type="move" name="top"/>
    </contour>
  </outline>
</glyph>
<glyph name="e" format="1">
  <advance width="492"/>
  <unicode hex="0065"/>
  <note>
    e
  </note>
  <outline>
    <contour>
      <point x="260" y="-8" type="curve"/>
      <point x="345" y="-8"/>
      <point x="417" y="34"/>
      <point x="454" y="115" type="curve"/>
      <point x="423" y="144" type="line"/>
      <point x="388" y="104"/>
      <point x="352" y="89"/>
      <point x="307" y="89" type="curve"/>
      <point x="223" y="89"/>
      <point x="169" y="151"/>
      <point x="169" y="244" type="curve"/>
      <point x="169" y="265" type="line" smooth="yes"/>
      <point x="169" y="351"/>
      <point x="207" y="392"/>
      <point x="256" y="392" type="curve"/>
      <point x="305" y="392"/>
      <point x="333" y="353"/>
      <point x="333" y="290" type="curve"/>
      <point x="333" y="255" type="line"/>
      <point x="350" y="280" type="line"/>
      <point x="159" y="280" type="line"/>
      <point x="159" y="227" type="line"/>
      <point x="449" y="227" type="line"/>
      <point x="449" y="251" type="line" smooth="yes"/>
      <point x="449" y="368"/>
      <point x="382" y="448"/>
      <point x="264" y="448" type="curve"/>
      <point x="146" y="448"/>
      <point x="37" y="352"/>
      <point x="37" y="213" type="curve"/>
      <point x="37" y="88"/>
      <point x="130" y="-8"/>
    </contour>
    <contour>
      <point x="256" y="0" type="move" name="bottom"/>
    </contour>
    <contour>
      <point x="394" y="0" type="move" name="ogonek"/>
    </contour>
    <contour>
      <point x="256" y="440" type="move" name="top"/>
    </contour>
  </outline>
</glyph>
<glyph name="g" format="1">
  <advance width="529"/>
  <unicode hex="0067"/>
  <note>
    g
  </note>
  <outline>
    <contour>
      <point x="249" y="-228" type="curve"/>
      <point x="392" y="-228"/>
      <point x="499" y="-154"/>
      <point x="499" y="-60" type="curve"/>
      <point x="499" y="8"/>
      <point x="452" y="51"/>
      <point x="353" y="61" type="curve"/>
      <point x="202" y="77" type="line" smooth="yes"/>
      <point x="181" y="79"/>
      <point x="170" y="88"/>
      <point x="170" y="103" type="curve"/>
      <point x="170" y="115"/>
      <point x="179" y="126"/>
      <point x="197" y="137" type="curve"/>
      <point x="181" y="154" type="line"/>
      <point x="108" y="131"/>
      <point x="64" y="93"/>
      <point x="64" y="51" type="curve"/>
      <point x="64" y="11"/>
      <point x="104" y="-18"/>
      <point x="169" y="-18" type="curve"/>
      <point x="179" y="-23" type="line"/>
      <point x="304" y="-34" type="line" smooth="yes"/>
      <point x="365" y="-40"/>
      <point x="387" y="-56"/>
      <point x="387" y="-90" type="curve"/>
      <point x="387" y="-138"/>
      <point x="333" y="-173"/>
      <point x="259" y="-173" type="curve"/>
      <point x="186" y="-173"/>
      <point x="146" y="-147"/>
      <point x="146" y="-101" type="curve"/>
      <point x="146" y="-70"/>
      <point x="166" y="-38"/>
      <point x="199" y="-15" type="curve"/>
      <point x="157" y="-9" type="line"/>
      <point x="75" y="-35"/>
      <point x="27" y="-75"/>
      <point x="27" y="-119" type="curve"/>
      <point x="27" y="-187"/>
      <point x="110" y="-228"/>
    </contour>
    <contour>
      <point x="254" y="119" type="curve"/>
      <point x="371" y="119"/>
      <point x="453" y="187"/>
      <point x="453" y="281" type="curve"/>
      <point x="453" y="375"/>
      <point x="369" y="448"/>
      <point x="258" y="448" type="curve"/>
      <point x="142" y="448"/>
      <point x="54" y="377"/>
      <point x="54" y="280" type="curve"/>
      <point x="54" y="184"/>
      <point x="134" y="119"/>
    </contour>
    <contour>
      <point x="262" y="175" type="curve"/>
      <point x="217" y="175"/>
      <point x="186" y="220"/>
      <point x="186" y="286" type="curve"/>
      <point x="186" y="349"/>
      <point x="215" y="393"/>
      <point x="257" y="393" type="curve"/>
      <point x="301" y="393"/>
      <point x="330" y="347"/>
      <point x="330" y="278" type="curve"/>
      <point x="330" y="215"/>
      <point x="303" y="175"/>
    </contour>
    <contour>
      <point x="370" y="371" type="line"/>
      <point x="509" y="358" type="line"/>
      <point x="509" y="437" type="line"/>
      <point x="337" y="417" type="line"/>
    </contour>
    <contour>
      <point x="265" y="-220" type="move" name="bottom"/>
    </contour>
    <contour>
      <point x="260" y="440" type="move" name="top"/>
    </contour>
  </outline>
</glyph>
<glyph name="h" format="1">
  <advance width="589"/>
  <unicode hex="0068"/>
  <note>
    h
  </note>
  <outline>
    <contour>
      <point x="13" y="46" type="curve"/>
      <point x="17" y="-3" type="line"/>
      <point x="51" y="0"/>
      <point x="108" y="2"/>
      <point x="148" y="2" type="curve"/>
      <point x="188" y="2"/>
      <point x="245" y="0"/>
      <point x="279" y="-3" type="curve"/>
      <point x="283" y="46" type="line"/>
      <point x="261" y="49"/>
      <point x="230" y="56"/>
      <point x="218" y="64" type="curve"/>
      <point x="216" y="73"/>
      <point x="213" y="113"/>
      <point x="213" y="164" type="curve"/>
      <point x="213" y="311" type="line"/>
      <point x="235" y="339"/>
      <point x="265" y="354"/>
      <point x="297" y="354" type="curve"/>
      <point x="343" y="354"/>
      <point x="380" y="323"/>
      <point x="380" y="248" type="curve"/>
      <point x="380" y="164" type="line" smooth="yes"/>
      <point x="380" y="113"/>
      <point x="376" y="72"/>
      <point x="375" y="64" type="curve"/>
      <point x="361" y="56"/>
      <point x="336" y="49"/>
      <point x="317" y="46" type="curve"/>
      <point x="321" y="-3" type="line"/>
      <point x="355" y="0"/>
      <point x="407" y="2"/>
      <point x="447" y="2" type="curve"/>
      <point x="487" y="2"/>
      <point x="542" y="0"/>
      <point x="576" y="-3" type="curve"/>
      <point x="580" y="46" type="line"/>
      <point x="558" y="49"/>
      <point x="527" y="56"/>
      <point x="515" y="64" type="curve"/>
      <point x="513" y="73"/>
      <point x="510" y="113"/>
      <point x="510" y="164" type="curve"/>
      <point x="510" y="268" type="line" smooth="yes"/>
      <point x="510" y="382"/>
      <point x="445" y="448"/>
      <point x="360" y="448" type="curve"/>
      <point x="306" y="448"/>
      <point x="255" y="424"/>
      <point x="213" y="373" type="curve"/>
      <point x="210" y="374" type="line"/>
      <point x="213" y="532"/>
      <point x="215" y="597"/>
      <point x="220" y="680" type="curve"/>
      <point x="192" y="698" type="line"/>
      <point x="136" y="674"/>
      <point x="70" y="655"/>
      <point x="5" y="642" type="curve"/>
      <point x="7" y="594" type="line"/>
      <point x="25" y="594"/>
      <point x="52" y="592"/>
      <point x="77" y="589" type="curve"/>
      <point x="79" y="559"/>
      <point x="82" y="485"/>
      <point x="82" y="361" type="curve"/>
      <point x="82" y="234" type="line" smooth="yes"/>
      <point x="82" y="123"/>
      <point x="77" y="71"/>
      <point x="76" y="64" type="curve"/>
      <point x="64" y="56"/>
      <point x="37" y="49"/>
    </contour>
    <contour>
      <point x="297" y="0" type="move" name="bottom"/>
    </contour>
    <contour>
      <point x="202" y="518" type="move" name="stroke"/>
    </contour>
    <contour>
      <point x="148" y="660" type="move" name="top"/>
    </contour>
  </outline>
</glyph>
<glyph name="n" format="1">
  <advance width="590"/>
  <unicode hex="006E"/>
  <note>
    n
  </note>
  <outline>
    <contour>
      <point x="14" y="46" type="curve"/>
      <point x="18" y="-3" type="line"/>
      <point x="52" y="0"/>
      <point x="109" y="2"/>
      <point x="149" y="2" type="curve"/>
      <point x="189" y="2"/>
      <point x="246" y="0"/>
      <point x="280" y="-3" type="curve"/>
      <point x="284" y="46" type="line"/>
      <point x="262" y="49"/>
      <point x="231" y="56"/>
      <point x="219" y="64" type="curve"/>
      <point x="217" y="73"/>
      <point x="214" y="113"/>
      <point x="214" y="164" type="curve"/>
      <point x="214" y="311" type="line"/>
      <point x="236" y="339"/>
      <point x="266" y="354"/>
      <point x="298" y="354" type="curve"/>
      <point x="344" y="354"/>
      <point x="381" y="323"/>
      <point x="381" y="248" type="curve"/>
      <point x="381" y="164" type="line" smooth="yes"/>
      <point x="381" y="113"/>
      <point x="377" y="72"/>
      <point x="376" y="64" type="curve"/>
      <point x="362" y="56"/>
      <point x="337" y="49"/>
      <point x="318" y="46" type="curve"/>
      <point x="322" y="-3" type="line"/>
      <point x="356" y="0"/>
      <point x="408" y="2"/>
      <point x="448" y="2" type="curve"/>
      <point x="488" y="2"/>
      <point x="543" y="0"/>
      <point x="577" y="-3" type="curve"/>
      <point x="581" y="46" type="line"/>
      <point x="559" y="49"/>
      <point x="528" y="56"/>
      <point x="516" y="64" type="curve"/>
      <point x="514" y="73"/>
      <point x="511" y="113"/>
      <point x="511" y="164" type="curve"/>
      <point x="511" y="268" type="line" smooth="yes"/>
      <point x="511" y="382"/>
      <point x="446" y="448"/>
      <point x="361" y="448" type="curve"/>
      <point x="307" y="448"/>
      <point x="256" y="423"/>
      <point x="213" y="371" type="curve"/>
      <point x="210" y="372" type="line"/>
      <point x="216" y="429" type="line"/>
      <point x="188" y="446" type="line"/>
      <point x="142" y="429"/>
      <point x="76" y="411"/>
      <point x="8" y="400" type="curve"/>
      <point x="8" y="355" type="line"/>
      <point x="31" y="352"/>
      <point x="56" y="348"/>
      <point x="75" y="341" type="curve"/>
      <point x="80" y="311"/>
      <point x="83" y="284"/>
      <point x="83" y="239" type="curve"/>
      <point x="82" y="164" type="line" smooth="yes"/>
      <point x="81" y="113"/>
      <point x="78" y="71"/>
      <point x="77" y="64" type="curve"/>
      <point x="65" y="56"/>
      <point x="38" y="49"/>
    </contour>
    <contour>
      <point x="298" y="0" type="move" name="bottom"/>
    </contour>
    <contour>
      <point x="298" y="440" type="move" name="top"/>
    </contour>
  </outline>
</glyph>
<glyph name="o" format="1">
  <advance width="542"/>
  <unicode hex="006F"/>
  <note>
    o
  </note>
  <outline>
    <contour>
      <point x="275" y="-8" type="curve"/>
      <point x="402" y="-8"/>
      <point x="504" y="94"/>
      <point x="504" y="225" type="curve"/>
      <point x="504" y="356"/>
      <point x="412" y="448"/>
      <point x="279" y="448" type="curve"/>
      <point x="154" y="448"/>
      <point x="38" y="363"/>
      <point x="38" y="215" type="curve"/>
      <point x="38" y="84"/>
      <point x="135" y="-8"/>
    </contour>
    <contour>
      <point x="285" y="57" type="curve"/>
      <point x="226" y="57"/>
      <point x="182" y="137"/>
      <point x="182" y="245" type="curve"/>
      <point x="182" y="333"/>
      <point x="213" y="387"/>
      <point x="263" y="387" type="curve"/>
      <point x="322" y="387"/>
      <point x="362" y="309"/>
      <point x="362" y="193" type="curve"/>
      <point x="362" y="107"/>
      <point x="334" y="57"/>
    </contour>
    <contour>
      <point x="271" y="0" type="move" name="bottom"/>
    </contour>
    <contour>
      <point x="271" y="220" type="move" name="center"/>
    </contour>
    <contour>
      <point x="343" y="0" type="move" name="ogonek"/>
    </contour>
    <contour>
      <point x="271" y="440" type="move" name="top"/>
    </contour>
    <contour>
      <point x="522" y="440" type="move" name="topright"/>
    </contour>
  </outline>
</glyph>
<glyph name="r" format="1">
  <advance width="413"/>
  <unicode hex="0072"/>
  <note>
    r
  </note>
  <outline>
    <contour>
      <point x="16" y="46" type="curve"/>
      <point x="20" y="-5" type="line"/>
      <point x="54" y="-1"/>
      <point x="110" y="2"/>
      <point x="162" y="2" type="curve"/>
      <point x="209" y="2"/>
      <point x="265" y="-1"/>
      <point x="318" y="-5" type="curve"/>
      <point x="320" y="48" type="line"/>
      <point x="289" y="51"/>
      <point x="239" y="59"/>
      <point x="223" y="64" type="curve"/>
      <point x="221" y="73"/>
      <point x="219" y="113"/>
      <point x="218" y="204" type="curve"/>
      <point x="217" y="290" type="line"/>
      <point x="231" y="313"/>
      <point x="249" y="335"/>
      <point x="270" y="350" type="curve"/>
      <point x="241" y="353" type="line"/>
      <point x="271" y="326"/>
      <point x="294" y="317"/>
      <point x="327" y="317" type="curve"/>
      <point x="369" y="317"/>
      <point x="400" y="343"/>
      <point x="400" y="384" type="curve"/>
      <point x="400" y="425"/>
      <point x="372" y="445"/>
      <point x="333" y="445" type="curve"/>
      <point x="291" y="445"/>
      <point x="251" y="421"/>
      <point x="213" y="361" type="curve"/>
      <point x="210" y="362" type="line"/>
      <point x="214" y="429" type="line"/>
      <point x="186" y="446" type="line"/>
      <point x="144" y="429"/>
      <point x="78" y="411"/>
      <point x="10" y="400" type="curve"/>
      <point x="10" y="355" type="line"/>
      <point x="33" y="352"/>
      <point x="58" y="348"/>
      <point x="77" y="341" type="curve"/>
      <point x="82" y="311"/>
      <point x="85" y="284"/>
      <point x="85" y="239" type="curve"/>
      <point x="84" y="164" type="line" smooth="yes"/>
      <point x="83" y="113"/>
      <point x="80" y="71"/>
      <point x="79" y="64" type="curve"/>
      <point x="67" y="56"/>
      <point x="40" y="49"/>
    </contour>
    <contour>
      <point x="152" y="0" type="move" name="bottom"/>
    </contour>
    <contour>
      <point x="182" y="440" type="move" name="top"/>
    </contour>
  </outline>
</glyph>
<glyph name="s" format="1">
  <advance width="421"/>
  <unicode hex="0073"/>
  <note>
    s
  </note>
  <outline>
    <contour>
      <point x="197" y="-8" type="curve"/>
      <point x="316" y="-8"/>
      <point x="397" y="48"/>
      <point x="397" y="133" type="curve"/>
      <point x="397" y="193"/>
      <point x="363" y="231"/>
      <point x="275" y="266" type="curve"/>
      <point x="197" y="297"/>
      <point x="173" y="314"/>
      <point x="173" y="344" type="curve"/>
      <point x="173" y="375"/>
      <point x="200" y="393"/>
      <point x="239" y="393" type="curve"/>
      <point x="256" y="393"/>
      <point x="277" y="389"/>
      <point x="291" y="380" type="curve"/>
      <point x="299" y="360"/>
      <point x="305" y="338"/>
      <point x="313" y="310" type="curve"/>
      <point x="378" y="310" type="line"/>
      <point x="366" y="427" type="line"/>
      <point x="337" y="439"/>
      <point x="289" y="448"/>
      <point x="246" y="448" type="curve"/>
      <point x="128" y="448"/>
      <point x="46" y="390"/>
      <point x="46" y="308" type="curve"/>
      <point x="46" y="243"/>
      <point x="80" y="205"/>
      <point x="177" y="168" type="curve"/>
      <point x="249" y="140"/>
      <point x="267" y="124"/>
      <point x="267" y="95" type="curve"/>
      <point x="267" y="67"/>
      <point x="244" y="50"/>
      <point x="205" y="50" type="curve"/>
      <point x="177" y="50"/>
      <point x="151" y="57"/>
      <point x="125" y="72" type="curve"/>
      <point x="117" y="92"/>
      <point x="111" y="114"/>
      <point x="105" y="144" type="curve"/>
      <point x="39" y="144" type="line"/>
      <point x="40" y="96"/>
      <point x="42" y="66"/>
      <point x="44" y="26" type="curve"/>
      <point x="82" y="6"/>
      <point x="141" y="-8"/>
    </contour>
    <contour>
      <point x="211" y="0" type="move" name="bottom"/>
    </contour>
    <contour>
      <point x="213" y="440" type="move" name="top"/>
    </contour>
  </outline>
</glyph>
<glyph name="t" format="1">
  <advance width="379"/>
  <unicode hex="0074"/>
  <note>
    t
  </note>
  <outline>
    <contour>
      <point x="381" y="85" type="curve"/>
      <point x="355" y="114" type="line"/>
      <point x="336" y="97"/>
      <point x="311" y="87"/>
      <point x="287" y="87" type="curve"/>
      <point x="240" y="87"/>
      <point x="211" y="109"/>
      <point x="211" y="164" type="curve"/>
      <point x="213" y="401" type="line"/>
      <point x="215" y="544" type="line"/>
      <point x="184" y="544" type="line"/>
      <point x="128" y="495"/>
      <point x="71" y="450"/>
      <point x="11" y="406" type="curve"/>
      <point x="11" y="374" type="line"/>
      <point x="81" y="374" type="line"/>
      <point x="78" y="152" type="line"/>
      <point x="78" y="44"/>
      <point x="144" y="-10"/>
      <point x="237" y="-10" type="curve"/>
      <point x="303" y="-10"/>
      <point x="360" y="26"/>
    </contour>
    <contour>
      <point x="163" y="438" type="line"/>
      <point x="163" y="374" type="line"/>
      <point x="353" y="374" type="line"/>
      <point x="353" y="438" type="line"/>
    </contour>
    <contour>
      <point x="207" y="0" type="move" name="bottom"/>
    </contour>
    <contour>
      <point x="145" y="270" type="move" name="stroke"/>
    </contour>
    <contour>
      <point x="185" y="540" type="move" name="top"/>
    </contour>
    <contour>
      <point x="253" y="688" type="move" name="topright"/>
    </contour>
  </outline>
</glyph>
<glyph name="u" format="1">
  <advance width="590"/>
  <unicode hex="0075"/>
  <note>
    u
  </note>
  <outline>
    <contour>
      <point x="511" y="91" type="curve"/>
      <point x="508" y="121"/>
      <point x="505" y="158"/>
      <point x="505" y="199" type="curve"/>
      <point x="505" y="280" type="line" smooth="yes"/>
      <point x="505" y="339"/>
      <point x="506" y="390"/>
      <point x="509" y="429" type="curve"/>
      <point x="481" y="446" type="line"/>
      <point x="432" y="429"/>
      <point x="367" y="411"/>
      <point x="299" y="400" type="curve"/>
      <point x="299" y="355" type="line"/>
      <point x="324" y="351"/>
      <point x="349" y="347"/>
      <point x="370" y="340" type="curve"/>
      <point x="373" y="310"/>
      <point x="375" y="284"/>
      <point x="375" y="229" type="curve"/>
      <point x="375" y="134" type="line"/>
      <point x="355" y="101"/>
      <point x="324" y="87"/>
      <point x="298" y="87" type="curve"/>
      <point x="245" y="87"/>
      <point x="213" y="118"/>
      <point x="213" y="187" type="curve"/>
      <point x="214" y="271" type="line"/>
      <point x="214" y="330"/>
      <point x="216" y="390"/>
      <point x="219" y="429" type="curve"/>
      <point x="191" y="446" type="line"/>
      <point x="139" y="429"/>
      <point x="74" y="411"/>
      <point x="7" y="400" type="curve"/>
      <point x="7" y="355" type="line"/>
      <point x="29" y="352"/>
      <point x="56" y="348"/>
      <point x="77" y="341" type="curve"/>
      <point x="80" y="311"/>
      <point x="81" y="284"/>
      <point x="81" y="257" type="curve"/>
      <point x="81" y="172" type="line" smooth="yes"/>
      <point x="81" y="51"/>
      <point x="147" y="-10"/>
      <point x="244" y="-10" type="curve"/>
      <point x="291" y="-10"/>
      <point x="338" y="11"/>
      <point x="376" y="72" type="curve"/>
      <point x="379" y="71" type="line"/>
      <point x="378" y="2" type="line"/>
      <point x="406" y="-13" type="line"/>
      <point x="450" y="4"/>
      <point x="513" y="22"/>
      <point x="580" y="33" type="curve"/>
      <point x="580" y="77" type="line"/>
      <point x="557" y="80"/>
      <point x="531" y="84"/>
    </contour>
    <contour>
      <point x="295" y="0" type="move" name="bottom"/>
    </contour>
    <contour>
      <point x="444" y="0" type="move" name="ogonek"/>
    </contour>
    <contour>
      <point x="295" y="440" type="move" name="top"/>
    </contour>
    <contour>
      <point x="481" y="440" type="move" name="topright"/>
    </contour>
  </outline>
</glyph>
<glyph name="v" format="1">
  <advance width="511"/>
  <unicode hex="0076"/>
  <note>
    v
  </note>
  <outline>
    <contour>
      <point x="45" y="379" type="curve"/>
      <point x="231" y="-4" type="line"/>
      <point x="275" y="-4" type="line"/>
      <point x="467" y="379" type="line"/>
      <point x="478" y="384"/>
      <point x="495" y="389"/>
      <point x="512" y="393" type="curve"/>
      <point x="510" y="440" type="line"/>
      <point x="485" y="439"/>
      <point x="453" y="439"/>
      <point x="428" y="439" type="curve"/>
      <point x="403" y="439"/>
      <point x="353" y="439"/>
      <point x="328" y="440" type="curve"/>
      <point x="326" y="391" type="line"/>
      <point x="355" y="388"/>
      <point x="372" y="384"/>
      <point x="389" y="379" type="curve"/>
      <point x="284" y="135" type="line"/>
      <point x="313" y="135" type="line"/>
      <point x="200" y="379" type="line"/>
      <point x="217" y="384"/>
      <point x="235" y="388"/>
      <point x="261" y="391" type="curve"/>
      <point x="259" y="440" type="line"/>
      <point x="229" y="439"/>
      <point x="159" y="439"/>
      <point x="129" y="439" type="curve"/>
      <point x="99" y="439"/>
      <point x="26" y="440"/>
      <point x="-4" y="440" type="curve"/>
      <point x="-7" y="393" type="line"/>
      <point x="13" y="389"/>
      <point x="32" y="384"/>
    </contour>
    <contour>
      <point x="256" y="0" type="move" name="bottom"/>
    </contour>
    <contour>
      <point x="256" y="440" type="move" name="top"/>
    </contour>
  </outline>
</glyph>
<glyph name="w" format="1">
  <advance width="829"/>
  <unicode hex="0077"/>
  <note>
    w
  </note>
  <outline>
    <contour>
      <point x="372" y="379" type="curve"/>
      <point x="547" y="-4" type="line"/>
      <point x="591" y="-4" type="line"/>
      <point x="784" y="379" type="line"/>
      <point x="795" y="384"/>
      <point x="812" y="389"/>
      <point x="829" y="393" type="curve"/>
      <point x="827" y="440" type="line"/>
      <point x="806" y="440"/>
      <point x="767" y="439"/>
      <point x="735" y="439" type="curve"/>
      <point x="707" y="439"/>
      <point x="679" y="439"/>
      <point x="653" y="440" type="curve"/>
      <point x="651" y="391" type="line"/>
      <point x="680" y="388"/>
      <point x="689" y="384"/>
      <point x="706" y="379" type="curve"/>
      <point x="600" y="135" type="line"/>
      <point x="626" y="135" type="line"/>
      <point x="524" y="379" type="line"/>
      <point x="537" y="384"/>
      <point x="550" y="388"/>
      <point x="570" y="391" type="curve"/>
      <point x="568" y="440" type="line"/>
      <point x="550" y="439"/>
      <point x="484" y="439"/>
      <point x="464" y="439" type="curve"/>
      <point x="433" y="439"/>
      <point x="350" y="439"/>
      <point x="332" y="440" type="curve"/>
      <point x="330" y="391" type="line"/>
      <point x="350" y="388"/>
      <point x="359" y="384"/>
    </contour>
    <contour>
      <point x="49" y="379" type="curve"/>
      <point x="229" y="-4" type="line"/>
      <point x="273" y="-4" type="line"/>
      <point x="434" y="311" type="line"/>
      <point x="397" y="378" type="line"/>
      <point x="282" y="135" type="line"/>
      <point x="311" y="135" type="line"/>
      <point x="204" y="379" type="line"/>
      <point x="217" y="384"/>
      <point x="229" y="388"/>
      <point x="249" y="391" type="curve"/>
      <point x="247" y="440" type="line"/>
      <point x="229" y="439"/>
      <point x="144" y="439"/>
      <point x="124" y="439" type="curve"/>
      <point x="93" y="439"/>
      <point x="24" y="440"/>
      <point x="0" y="440" type="curve"/>
      <point x="-3" y="393" type="line"/>
      <point x="17" y="389"/>
      <point x="36" y="384"/>
    </contour>
    <contour>
      <point x="410" y="0" type="move" name="bottom"/>
    </contour>
    <contour>
      <point x="448" y="440" type="move" name="top"/>
    </contour>
  </outline>
</glyph>
<glyph name="z" format="1">
  <advance width="451"/>
  <unicode hex="007A"/>
  <note>
    z
  </note>
  <outline>
    <contour>
      <point x="170" y="61" type="line"/>
      <point x="176" y="18" type="line"/>
      <point x="414" y="394" type="line"/>
      <point x="414" y="442" type="line"/>
      <point x="385" y="441"/>
      <point x="355" y="440"/>
      <point x="326" y="440" type="curve"/>
      <point x="132" y="440" type="line" smooth="yes"/>
      <point x="104" y="440"/>
      <point x="61" y="440"/>
      <point x="26" y="442" type="curve"/>
      <point x="27" y="400"/>
      <point x="28" y="340"/>
      <point x="28" y="293" type="curve"/>
      <point x="92" y="293" type="line"/>
      <point x="96" y="324"/>
      <point x="100" y="352"/>
      <point x="106" y="376" type="curve"/>
      <point x="126" y="379"/>
      <point x="150" y="381"/>
      <point x="186" y="381" type="curve"/>
      <point x="283" y="381" type="line"/>
      <point x="283" y="422" type="line"/>
      <point x="39" y="45" type="line"/>
      <point x="39" y="-3" type="line"/>
      <point x="68" y="-1"/>
      <point x="98" y="0"/>
      <point x="127" y="0" type="curve"/>
      <point x="318" y="0" type="line" smooth="yes"/>
      <point x="346" y="0"/>
      <point x="390" y="0"/>
      <point x="424" y="-2" type="curve"/>
      <point x="429" y="43"/>
      <point x="436" y="101"/>
      <point x="444" y="153" type="curve"/>
      <point x="378" y="153" type="line"/>
      <point x="370" y="117"/>
      <point x="360" y="85"/>
      <point x="352" y="66" type="curve"/>
      <point x="330" y="63"/>
      <point x="308" y="61"/>
      <point x="282" y="61" type="curve"/>
    </contour>
    <contour>
      <point x="226" y="0" type="move" name="bottom"/>
    </contour>
    <contour>
      <point x="226" y="440" type="move" name="top"/>
    </contour>
  </outline>
</glyph>
<glyph name="braceleft" format="1">
  <advance width="381"/>
  <unicode hex="007B"/>
  <note>
    braceleft
  </note>
  <outline>
    <contour>
      <point x="247" y="-77" type="curve"/>
      <point x="247" y="-9"/>
      <point x="286" y="41"/>
      <point x="286" y="121" type="curve"/>
      <point x="286" y="196"/>
      <point x="231" y="254"/>
      <point x="147" y="264" type="curve"/>
      <point x="147" y="250" type="line"/>
      <point x="231" y="259"/>
      <point x="286" y="306"/>
      <point x="286" y="381" type="curve"/>
      <point x="286" y="461"/>
      <point x="247" y="511"/>
      <point x="247" y="579" type="curve"/>
      <point x="247" y="642"/>
      <point x="288" y="670"/>
      <point x="346" y="677" type="curve"/>
      <point x="332" y="730" type="line"/>
      <point x="188" y="713"/>
      <point x="97" y="664"/>
      <point x="97" y="562" type="curve"/>
      <point x="97" y="488"/>
      <point x="152" y="416"/>
      <point x="152" y="356" type="curve"/>
      <point x="152" y="310"/>
      <point x="133" y="286"/>
      <point x="50" y="283" type="curve"/>
      <point x="50" y="219" type="line"/>
      <point x="133" y="216"/>
      <point x="152" y="192"/>
      <point x="152" y="146" type="curve"/>
      <point x="152" y="86"/>
      <point x="97" y="14"/>
      <point x="97" y="-60" type="curve"/>
      <point x="97" y="-162"/>
      <point x="188" y="-211"/>
      <point x="332" y="-228" type="curve"/>
      <point x="346" y="-175" type="line"/>
      <point x="288" y="-168"/>
      <point x="247" y="-140"/>
    </contour>
  </outline>
</glyph>
<glyph name="bar" format="1">
  <advance width="268"/>
  <unicode hex="007C"/>
  <note>
    bar
  </note>
  <outline>
    <contour>
      <point x="90" y="722" type="line"/>
      <point x="90" y="-220" type="line"/>
      <point x="178" y="-220" type="line"/>
      <point x="178" y="722" type="line"/>
    </contour>
  </outline>
</glyph>
<glyph name="asciitilde" format="1">
  <advance width="540"/>
  <unicode hex="007E"/>
  <outline>
    <contour>
      <point x="487" y="282" type="curve"/>
      <point x="445" y="310" type="line"/>
      <point x="429" y="281"/>
      <point x="408" y="265"/>
      <point x="380" y="265" type="curve"/>
      <point x="334" y="265"/>
      <point x="246" y="329"/>
      <point x="173" y="329" type="curve"/>
      <point x="119" y="329"/>
      <point x="73" y="291"/>
      <point x="53" y="228" type="curve"/>
      <point x="95" y="200" type="line"/>
      <point x="112" y="231"/>
      <point x="134" y="247"/>
      <point x="160" y="247" type="curve"/>
      <point x="206" y="247"/>
      <point x="294" y="181"/>
      <point x="367" y="181" type="curve"/>
      <point x="421" y="181"/>
      <point x="467" y="221"/>
    </contour>
  </outline>
</glyph>
<glyph name="exclamdown" format="1">
  <advance width="296"/>
  <unicode hex="00A1"/>
  <note>
    exclamdown
  </note>
  <outline>
    <contour>
      <point x="177" y="211" type="curve"/>
      <point x="119" y="211" type="line"/>
      <point x="106" y="81"/>
      <point x="55" y="-37"/>
      <point x="55" y="-126" type="curve"/>
      <point x="55" y="-191"/>
      <point x="97" y="-228"/>
      <point x="148" y="-228" type="curve"/>
      <point x="199" y="-228"/>
      <point x="241" y="-191"/>
      <point x="241" y="-126" type="curve"/>
      <point x="241" y="-37"/>
      <point x="190" y="81"/>
    </contour>
    <contour>
      <point x="148" y="448" type="curve"/>
      <point x="96" y="448"/>
      <point x="53" y="408"/>
      <point x="53" y="356" type="curve"/>
      <point x="53" y="303"/>
      <point x="96" y="261"/>
      <point x="148" y="261" type="curve"/>
      <point x="201" y="261"/>
      <point x="243" y="303"/>
      <point x="243" y="356" type="curve"/>
      <point x="243" y="408"/>
      <point x="201" y="448"/>
    </contour>
  </outline>
</glyph>
<glyph name="cent" format="1">
  <advance width="467"/>
  <unicode hex="00A2"/>
  <note>
    cent
  </note>
  <outline>
    <contour>
      <point x="263" y="-8" type="curve"/>
      <point x="340" y="-8"/>
      <point x="412" y="34"/>
      <point x="450" y="117" type="curve"/>
      <point x="419" y="146" type="line"/>
      <point x="383" y="104"/>
      <point x="347" y="90"/>
      <point x="310" y="90" type="curve"/>
      <point x="236" y="90"/>
      <point x="180" y="143"/>
      <point x="180" y="244" type="curve"/>
      <point x="180" y="349"/>
      <point x="242" y="400"/>
      <point x="301" y="388" type="curve"/>
      <point x="261" y="400" type="line"/>
      <point x="330" y="335" type="line" smooth="yes"/>
      <point x="354" y="313"/>
      <point x="370" y="305"/>
      <point x="394" y="305" type="curve"/>
      <point x="420" y="305"/>
      <point x="444" y="323"/>
      <point x="444" y="356" type="curve"/>
      <point x="444" y="409"/>
      <point x="375" y="448"/>
      <point x="287" y="448" type="curve"/>
      <point x="141" y="448"/>
      <point x="37" y="337"/>
      <point x="37" y="209" type="curve"/>
      <point x="37" y="82"/>
      <point x="137" y="-8"/>
    </contour>
    <contour>
      <point x="253" y="570" type="line"/>
      <point x="253" y="-130" type="line"/>
      <point x="322" y="-130" type="line"/>
      <point x="322" y="570" type="line"/>
    </contour>
  </outline>
</glyph>
<glyph name="sterling" format="1">
  <advance width="564"/>
  <unicode hex="00A3"/>
  <note>
    sterling
  </note>
  <outline>
    <contour>
      <point x="42" y="42" type="curve"/>
      <point x="54" y="-13" type="line"/>
      <point x="142" y="15"/>
      <point x="167" y="19"/>
      <point x="200" y="19" type="curve"/>
      <point x="276" y="19"/>
      <point x="297" y="-9"/>
      <point x="396" y="-9" type="curve"/>
      <point x="477" y="-9"/>
      <point x="535" y="50"/>
      <point x="564" y="143" type="curve"/>
      <point x="519" y="164" type="line"/>
      <point x="498" y="121"/>
      <point x="479" y="104"/>
      <point x="434" y="104" type="curve"/>
      <point x="391" y="104"/>
      <point x="347" y="124"/>
      <point x="308" y="124" type="curve"/>
      <point x="258" y="124"/>
      <point x="228" y="102"/>
      <point x="143" y="46" type="curve"/>
      <point x="147" y="31" type="line"/>
      <point x="261" y="130"/>
      <point x="280" y="166"/>
      <point x="280" y="243" type="curve"/>
      <point x="280" y="308"/>
      <point x="234" y="398"/>
      <point x="234" y="449" type="curve"/>
      <point x="234" y="506"/>
      <point x="274" y="545"/>
      <point x="343" y="538" type="curve"/>
      <point x="289" y="576" type="line"/>
      <point x="394" y="480" type="line" smooth="yes"/>
      <point x="416" y="460"/>
      <point x="433" y="453"/>
      <point x="460" y="453" type="curve"/>
      <point x="491" y="453"/>
      <point x="513" y="476"/>
      <point x="513" y="506" type="curve"/>
      <point x="513" y="561"/>
      <point x="445" y="596"/>
      <point x="344" y="596" type="curve"/>
      <point x="194" y="596"/>
      <point x="87" y="518"/>
      <point x="87" y="408" type="curve"/>
      <point x="87" y="360"/>
      <point x="154" y="252"/>
      <point x="154" y="166" type="curve"/>
      <point x="154" y="95"/>
      <point x="126" y="64"/>
    </contour>
    <contour>
      <point x="27" y="334" type="line"/>
      <point x="27" y="274" type="line"/>
      <point x="431" y="274" type="line"/>
      <point x="431" y="334" type="line"/>
    </contour>
  </outline>
</glyph>
<glyph name="currency" format="1">
  <advance width="540"/>
  <unicode hex="00A4"/>
  <note>
    currency
  </note>
  <outline>
    <contour>
      <point x="268" y="104" type="curve"/>
      <point x="390" y="104"/>
      <point x="488" y="205"/>
      <point x="488" y="329" type="curve"/>
      <point x="488" y="454"/>
      <point x="390" y="555"/>
      <point x="268" y="555" type="curve"/>
      <point x="145" y="555"/>
      <point x="47" y="454"/>
      <point x="47" y="329" type="curve"/>
      <point x="47" y="205"/>
      <point x="145" y="104"/>
    </contour>
    <contour>
      <point x="14" y="119" type="line"/>
      <point x="65" y="68" type="line"/>
      <point x="185" y="190" type="line"/>
      <point x="133" y="242" type="line"/>
    </contour>
    <contour>
      <point x="348" y="196" type="line"/>
      <point x="473" y="69" type="line"/>
      <point x="524" y="119" type="line"/>
      <point x="395" y="251" type="line"/>
    </contour>
    <contour>
      <point x="268" y="161" type="curve"/>
      <point x="217" y="161"/>
      <point x="178" y="236"/>
      <point x="178" y="329" type="curve"/>
      <point x="178" y="423"/>
      <point x="218" y="498"/>
      <point x="268" y="497" type="curve"/>
      <point x="317" y="496"/>
      <point x="357" y="423"/>
      <point x="357" y="329" type="curve"/>
      <point x="357" y="236"/>
      <point x="317" y="161"/>
    </contour>
    <contour>
      <point x="14" y="539" type="line"/>
      <point x="117" y="433" type="line"/>
      <point x="172" y="482" type="line"/>
      <point x="65" y="591" type="line"/>
    </contour>
    <contour>
      <point x="358" y="477" type="line"/>
      <point x="414" y="424" type="line"/>
      <point x="525" y="537" type="line"/>
      <point x="470" y="593" type="line"/>
    </contour>
  </outline>
</glyph>
<glyph name="yen" format="1">
  <advance width="589"/>
  <unicode hex="00A5"/>
  <note>
    yen
  </note>
  <outline>
    <contour>
      <point x="80" y="305" type="line"/>
      <point x="80" y="245" type="line"/>
      <point x="508" y="245" type="line"/>
      <point x="508" y="305" type="line"/>
    </contour>
    <contour>
      <point x="80" y="189" type="line"/>
      <point x="80" y="129" type="line"/>
      <point x="508" y="129" type="line"/>
      <point x="508" y="189" type="line"/>
    </contour>
    <contour>
      <point x="317" y="181" type="line"/>
      <point x="534" y="524" type="line"/>
      <point x="545" y="529"/>
      <point x="565" y="533"/>
      <point x="583" y="534" type="curve"/>
      <point x="580" y="589" type="line"/>
      <point x="544" y="589"/>
      <point x="514" y="588"/>
      <point x="487" y="588" type="curve"/>
      <point x="457" y="588"/>
      <point x="417" y="589"/>
      <point x="376" y="589" type="curve"/>
      <point x="373" y="533" type="line"/>
      <point x="404" y="530"/>
      <point x="432" y="528"/>
      <point x="449" y="525" type="curve"/>
      <point x="320" y="303" type="line"/>
      <point x="344" y="303" type="line"/>
      <point x="213" y="525" type="line"/>
      <point x="228" y="528"/>
      <point x="256" y="530"/>
      <point x="289" y="533" type="curve"/>
      <point x="286" y="589" type="line"/>
      <point x="250" y="589"/>
      <point x="172" y="587"/>
      <point x="134" y="587" type="curve"/>
      <point x="94" y="587"/>
      <point x="48" y="589"/>
      <point x="9" y="589" type="curve"/>
      <point x="6" y="534" type="line"/>
      <point x="26" y="532"/>
      <point x="44" y="528"/>
      <point x="55" y="524" type="curve"/>
      <point x="259" y="181" type="line"/>
      <point x="226" y="283" type="line"/>
      <point x="226" y="129" type="line" smooth="yes"/>
      <point x="226" y="97"/>
      <point x="226" y="74"/>
      <point x="225" y="66" type="curve"/>
      <point x="212" y="58"/>
      <point x="182" y="53"/>
      <point x="147" y="50" type="curve"/>
      <point x="150" y="-5" type="line"/>
      <point x="189" y="-2"/>
      <point x="241" y="2"/>
      <point x="294" y="2" type="curve"/>
      <point x="347" y="2"/>
      <point x="399" y="-2"/>
      <point x="438" y="-5" type="curve"/>
      <point x="441" y="50" type="line"/>
      <point x="406" y="53"/>
      <point x="377" y="58"/>
      <point x="364" y="66" type="curve"/>
      <point x="362" y="74"/>
      <point x="362" y="97"/>
      <point x="362" y="129" type="curve"/>
      <point x="362" y="283" type="line"/>
    </contour>
  </outline>
</glyph>
<glyph name="brokenbar" format="1">
  <advance width="268"/>
  <unicode hex="00A6"/>
  <note>
    brokenbar
  </note>
  <outline>
    <contour>
      <point x="90" y="722" type="line"/>
      <point x="90" y="350" type="line"/>
      <point x="178" y="350" type="line"/>
      <point x="178" y="722" type="line"/>
    </contour>
    <contour>
      <point x="90" y="152" type="line"/>
      <point x="90" y="-220" type="line"/>
      <point x="178" y="-220" type="line"/>
      <point x="178" y="152" type="line"/>
    </contour>
  </outline>
</glyph>
<glyph name="section" format="1">
  <advance width="477"/>
  <unicode hex="00A7"/>
  <note>
    section
  </note>
  <outline>
    <contour>
      <point x="220" y="257" type="curve"/>
      <point x="237" y="238" type="line"/>
      <point x="325" y="238"/>
      <point x="437" y="283"/>
      <point x="437" y="375" type="curve"/>
      <point x="437" y="527"/>
      <point x="193" y="511"/>
      <point x="193" y="594" type="curve"/>
      <point x="193" y="625"/>
      <point x="220" y="643"/>
      <point x="261" y="643" type="curve"/>
      <point x="275" y="643"/>
      <point x="296" y="641"/>
      <point x="310" y="634" type="curve"/>
      <point x="317" y="612"/>
      <point x="324" y="589"/>
      <point x="329" y="571" type="curve"/>
      <point x="395" y="571" type="line"/>
      <point x="392" y="607"/>
      <point x="389" y="637"/>
      <point x="385" y="677" type="curve"/>
      <point x="356" y="690"/>
      <point x="305" y="698"/>
      <point x="256" y="698" type="curve"/>
      <point x="152" y="698"/>
      <point x="66" y="642"/>
      <point x="66" y="566" type="curve"/>
      <point x="66" y="424"/>
      <point x="320" y="440"/>
      <point x="320" y="336" type="curve"/>
      <point x="320" y="295"/>
      <point x="283" y="267"/>
    </contour>
    <contour>
      <point x="211" y="-8" type="curve"/>
      <point x="321" y="-8"/>
      <point x="407" y="50"/>
      <point x="407" y="126" type="curve"/>
      <point x="407" y="265"/>
      <point x="159" y="250"/>
      <point x="159" y="351" type="curve"/>
      <point x="159" y="394"/>
      <point x="196" y="422"/>
      <point x="263" y="433" type="curve"/>
      <point x="247" y="452" type="line"/>
      <point x="156" y="452"/>
      <point x="40" y="404"/>
      <point x="40" y="308" type="curve"/>
      <point x="40" y="164"/>
      <point x="278" y="178"/>
      <point x="278" y="99" type="curve"/>
      <point x="278" y="69"/>
      <point x="253" y="50"/>
      <point x="205" y="50" type="curve"/>
      <point x="190" y="50"/>
      <point x="169" y="54"/>
      <point x="155" y="62" type="curve"/>
      <point x="149" y="85"/>
      <point x="143" y="107"/>
      <point x="139" y="125" type="curve"/>
      <point x="73" y="125" type="line"/>
      <point x="74" y="89"/>
      <point x="76" y="56"/>
      <point x="78" y="16" type="curve"/>
      <point x="106" y="2"/>
      <point x="155" y="-8"/>
    </contour>
  </outline>
</glyph>
<glyph name="ordfeminine" format="1">
  <advance width="433"/>
  <unicode hex="00AA"/>
  <note>
    ordfeminine
  </note>
  <outline>
    <contour>
      <point x="156" y="223" type="curve"/>
      <point x="185" y="223"/>
      <point x="221" y="241"/>
      <point x="257" y="291" type="curve"/>
      <point x="240" y="302" type="line"/>
      <point x="258" y="260" type="line" smooth="yes"/>
      <point x="268" y="237"/>
      <point x="282" y="223"/>
      <point x="310" y="223" type="curve"/>
      <point x="342" y="223"/>
      <point x="368" y="241"/>
      <point x="426" y="265" type="curve"/>
      <point x="426" y="306" type="line"/>
      <point x="407" y="309"/>
      <point x="391" y="311"/>
      <point x="372" y="319" type="curve"/>
      <point x="365" y="339"/>
      <point x="365" y="353"/>
      <point x="365" y="377" type="curve"/>
      <point x="365" y="468" type="line"/>
      <point x="366" y="546"/>
      <point x="305" y="595"/>
      <point x="199" y="595" type="curve"/>
      <point x="159" y="591"/>
      <point x="39" y="537"/>
      <point x="39" y="486" type="curve"/>
      <point x="39" y="455"/>
      <point x="78" y="432"/>
      <point x="142" y="443" type="curve"/>
      <point x="147" y="508" type="line" smooth="yes"/>
      <point x="148" y="520"/>
      <point x="153" y="526"/>
      <point x="168" y="526" type="curve"/>
      <point x="202" y="526"/>
      <point x="236" y="493"/>
      <point x="236" y="461" type="curve"/>
      <point x="236" y="446" type="line"/>
      <point x="105" y="413" type="line" smooth="yes"/>
      <point x="51" y="399"/>
      <point x="32" y="369"/>
      <point x="32" y="330" type="curve"/>
      <point x="32" y="288"/>
      <point x="77" y="223"/>
    </contour>
    <contour>
      <point x="211" y="316" type="curve"/>
      <point x="186" y="316"/>
      <point x="164" y="337"/>
      <point x="164" y="364" type="curve"/>
      <point x="164" y="383"/>
      <point x="174" y="398"/>
      <point x="205" y="398" type="curve"/>
      <point x="237" y="398" type="line"/>
      <point x="237" y="321" type="line"/>
      <point x="228" y="318"/>
      <point x="217" y="316"/>
    </contour>
  </outline>
</glyph>
<glyph name="logicalnot" format="1">
  <advance width="540"/>
  <unicode hex="00AC"/>
  <outline>
    <contour>
      <point x="487" y="121" type="line"/>
      <point x="487" y="388" type="line"/>
      <point x="53" y="388" type="line"/>
      <point x="53" y="301" type="line"/>
      <point x="401" y="301" type="line"/>
      <point x="401" y="121" type="line"/>
    </contour>
  </outline>
</glyph>
<glyph name="degree" format="1">
  <advance width="401"/>
  <unicode hex="00B0"/>
  <note>
    degree
  </note>
  <outline>
    <contour>
      <point x="200" y="304" type="curve"/>
      <point x="285" y="304"/>
      <point x="351" y="366"/>
      <point x="351" y="450" type="curve"/>
      <point x="351" y="535"/>
      <point x="285" y="597"/>
      <point x="200" y="597" type="curve"/>
      <point x="116" y="597"/>
      <point x="50" y="535"/>
      <point x="50" y="450" type="curve"/>
      <point x="50" y="366"/>
      <point x="116" y="304"/>
    </contour>
    <contour>
      <point x="200" y="370" type="curve"/>
      <point x="156" y="370"/>
      <point x="123" y="403"/>
      <point x="123" y="450" type="curve"/>
      <point x="123" y="498"/>
      <point x="156" y="531"/>
      <point x="200" y="531" type="curve"/>
      <point x="245" y="531"/>
      <point x="278" y="498"/>
      <point x="278" y="450" type="curve"/>
      <point x="278" y="403"/>
      <point x="245" y="370"/>
    </contour>
  </outline>
</glyph>
<glyph name="plusminus" format="1">
  <advance width="540"/>
  <unicode hex="00B1"/>
  <outline>
    <contour>
      <point x="487" y="257" type="line"/>
      <point x="487" y="341" type="line"/>
      <point x="53" y="341" type="line"/>
      <point x="53" y="257" type="line"/>
    </contour>
    <contour>
      <point x="312" y="472" type="line"/>
      <point x="228" y="472" type="line"/>
      <point x="228" y="124" type="line"/>
      <point x="312" y="124" type="line"/>
    </contour>
    <contour>
      <point x="487" y="0" type="line"/>
      <point x="487" y="87" type="line"/>
      <point x="53" y="87" type="line"/>
      <point x="53" y="0" type="line"/>
    </contour>
  </outline>
</glyph>
<glyph name="twosuperior" format="1">
  <advance width="322"/>
  <unicode hex="00B2"/>
  <note>
    uni00B2
  </note>
  <outline>
    <contour>
      <point x="39" y="253" type="curve"/>
      <point x="42" y="253"/>
      <point x="85" y="253"/>
      <point x="167" y="254" type="curve"/>
      <point x="270" y="253" type="line"/>
      <point x="271" y="256"/>
      <point x="275" y="273"/>
      <point x="283" y="302" type="curve"/>
      <point x="290" y="331"/>
      <point x="295" y="351"/>
      <point x="298" y="363" type="curve"/>
      <point x="295" y="366"/>
      <point x="288" y="368"/>
      <point x="278" y="368" type="curve"/>
      <point x="274" y="368"/>
      <point x="272" y="367"/>
      <point x="271" y="364" type="curve"/>
      <point x="270" y="362"/>
      <point x="268" y="358"/>
      <point x="265" y="351" type="curve"/>
      <point x="262" y="344"/>
      <point x="259" y="339"/>
      <point x="258" y="337" type="curve"/>
      <point x="256" y="334"/>
      <point x="253" y="331"/>
      <point x="250" y="327" type="curve"/>
      <point x="246" y="322"/>
      <point x="235" y="319"/>
      <point x="217" y="316" type="curve"/>
      <point x="103" y="316" type="line" smooth="yes"/>
      <point x="100" y="316"/>
      <point x="98" y="319"/>
      <point x="101" y="322" type="curve"/>
      <point x="182" y="375"/>
      <point x="260" y="458"/>
      <point x="260" y="534" type="curve"/>
      <point x="260" y="599"/>
      <point x="215" y="644"/>
      <point x="151" y="644" type="curve"/>
      <point x="92" y="644"/>
      <point x="42" y="602"/>
      <point x="27" y="574" type="curve"/>
      <point x="27" y="572" type="line"/>
      <point x="26" y="569"/>
      <point x="26" y="566"/>
      <point x="26" y="564" type="curve"/>
      <point x="26" y="557"/>
      <point x="36" y="540"/>
      <point x="43" y="540" type="curve"/>
      <point x="36" y="540"/>
      <point x="89" y="586"/>
      <point x="121" y="586" type="curve"/>
      <point x="154" y="586"/>
      <point x="173" y="556"/>
      <point x="173" y="528" type="curve"/>
      <point x="173" y="465"/>
      <point x="124" y="385"/>
      <point x="27" y="288" type="curve"/>
      <point x="26" y="286"/>
      <point x="26" y="283"/>
      <point x="26" y="279" type="curve"/>
      <point x="26" y="270"/>
      <point x="30" y="262"/>
    </contour>
  </outline>
</glyph>
<glyph name="paragraph" format="1">
  <advance width="576"/>
  <unicode hex="00B6"/>
  <note>
    paragraph
  </note>
  <outline>
    <contour>
      <point x="546" y="-5" type="curve"/>
      <point x="549" y="50" type="line"/>
      <point x="526" y="54"/>
      <point x="500" y="59"/>
      <point x="489" y="67" type="curve"/>
      <point x="486" y="75"/>
      <point x="483" y="137"/>
      <point x="483" y="221" type="curve"/>
      <point x="483" y="366" type="line" smooth="yes"/>
      <point x="483" y="451"/>
      <point x="486" y="513"/>
      <point x="489" y="520" type="curve"/>
      <point x="500" y="529"/>
      <point x="528" y="532"/>
      <point x="553" y="533" type="curve"/>
      <point x="550" y="588" type="line"/>
      <point x="521" y="586"/>
      <point x="462" y="586"/>
      <point x="394" y="586" type="curve"/>
      <point x="351" y="586"/>
      <point x="317" y="588"/>
      <point x="266" y="588" type="curve"/>
      <point x="122" y="588"/>
      <point x="26" y="514"/>
      <point x="26" y="402" type="curve"/>
      <point x="26" y="282"/>
      <point x="124" y="216"/>
      <point x="291" y="216" type="curve"/>
      <point x="336" y="216"/>
      <point x="377" y="221"/>
      <point x="446" y="238" type="curve"/>
      <point x="446" y="310" type="line"/>
      <point x="384" y="291"/>
      <point x="342" y="286"/>
      <point x="296" y="286" type="curve"/>
      <point x="216" y="286"/>
      <point x="171" y="336"/>
      <point x="171" y="420" type="curve"/>
      <point x="171" y="485"/>
      <point x="204" y="530"/>
      <point x="275" y="530" type="curve"/>
      <point x="285" y="530"/>
      <point x="292" y="530"/>
      <point x="305" y="529" type="curve"/>
      <point x="306" y="511"/>
      <point x="305" y="467"/>
      <point x="305" y="343" type="curve"/>
      <point x="305" y="170" type="line" smooth="yes"/>
      <point x="305" y="137"/>
      <point x="302" y="75"/>
      <point x="298" y="67" type="curve"/>
      <point x="269" y="59"/>
      <point x="241" y="55"/>
      <point x="214" y="52" type="curve"/>
      <point x="217" y="-5" type="line"/>
      <point x="249" y="-2"/>
      <point x="322" y="-1"/>
      <point x="379" y="-1" type="curve"/>
      <point x="449" y="-1"/>
      <point x="519" y="-2"/>
    </contour>
    <contour>
      <point x="373" y="57" type="line"/>
      <point x="373" y="530" type="line"/>
      <point x="425" y="530" type="line"/>
      <point x="420" y="57" type="line"/>
    </contour>
  </outline>
</glyph>
<glyph name="periodcentered" format="1">
  <advance width="300"/>
  <unicode hex="00B7"/>
  <note>
    periodcentered
  </note>
  <outline>
    <contour>
      <point x="150" y="130" type="curve"/>
      <point x="203" y="130"/>
      <point x="245" y="170"/>
      <point x="245" y="222" type="curve"/>
      <point x="245" y="275"/>
      <point x="203" y="317"/>
      <point x="150" y="317" type="curve"/>
      <point x="98" y="317"/>
      <point x="55" y="275"/>
      <point x="55" y="222" type="curve"/>
      <point x="55" y="170"/>
      <point x="98" y="130"/>
    </contour>
  </outline>
</glyph>
<glyph name="ordmasculine" format="1">
  <advance width="454"/>
  <unicode hex="00BA"/>
  <note>
    ordmasculine
  </note>
  <outline>
    <contour>
      <point x="230" y="223" type="curve"/>
      <point x="338" y="223"/>
      <point x="424" y="307"/>
      <point x="424" y="414" type="curve"/>
      <point x="424" y="519"/>
      <point x="345" y="595"/>
      <point x="234" y="595" type="curve"/>
      <point x="115" y="595"/>
      <point x="30" y="515"/>
      <point x="30" y="402" type="curve"/>
      <point x="30" y="298"/>
      <point x="113" y="223"/>
    </contour>
    <contour>
      <point x="239" y="286" type="curve"/>
      <point x="201" y="286"/>
      <point x="171" y="353"/>
      <point x="171" y="437" type="curve"/>
      <point x="171" y="502"/>
      <point x="189" y="536"/>
      <point x="218" y="536" type="curve"/>
      <point x="257" y="536"/>
      <point x="284" y="471"/>
      <point x="284" y="377" type="curve"/>
      <point x="284" y="313"/>
      <point x="271" y="286"/>
    </contour>
  </outline>
</glyph>
<glyph name="AE" format="1">
  <advance width="840"/>
  <unicode hex="00C6"/>
  <note>
    AE
  </note>
  <outline>
    <contour>
      <point x="648" y="199" type="curve"/>
      <point x="703" y="199" type="line"/>
      <point x="703" y="232"/>
      <point x="701" y="269"/>
      <point x="701" y="301" type="curve"/>
      <point x="701" y="334"/>
      <point x="703" y="367"/>
      <point x="703" y="401" type="curve"/>
      <point x="648" y="401" type="line"/>
      <point x="645" y="380"/>
      <point x="639" y="343"/>
      <point x="636" y="335" type="curve"/>
      <point x="628" y="335"/>
      <point x="606" y="333"/>
      <point x="580" y="333" type="curve"/>
      <point x="537" y="333" type="line" smooth="yes"/>
      <point x="513" y="333"/>
      <point x="492" y="335"/>
      <point x="480" y="336" type="curve"/>
      <point x="480" y="266" type="line"/>
      <point x="492" y="267"/>
      <point x="513" y="269"/>
      <point x="537" y="269" type="curve"/>
      <point x="580" y="269" type="line" smooth="yes"/>
      <point x="606" y="269"/>
      <point x="628" y="267"/>
      <point x="636" y="267" type="curve"/>
      <point x="639" y="259"/>
      <point x="645" y="219"/>
    </contour>
    <contour>
      <point x="173" y="230" type="curve"/>
      <point x="153" y="161" type="line"/>
      <point x="175" y="163"/>
      <point x="209" y="164"/>
      <point x="265" y="164" type="curve"/>
      <point x="320" y="164"/>
      <point x="355" y="163"/>
      <point x="380" y="162" type="curve"/>
      <point x="380" y="230" type="line"/>
      <point x="354" y="228"/>
      <point x="320" y="226"/>
      <point x="265" y="226" type="curve"/>
      <point x="209" y="226"/>
      <point x="199" y="228"/>
    </contour>
    <contour>
      <point x="820" y="157" type="line"/>
      <point x="763" y="168" type="line"/>
      <point x="743" y="130"/>
      <point x="727" y="94"/>
      <point x="708" y="64" type="curve"/>
      <point x="689" y="60"/>
      <point x="679" y="60"/>
      <point x="637" y="60" type="curve"/>
      <point x="593" y="60" type="line" smooth="yes"/>
      <point x="553" y="60"/>
      <point x="530" y="62"/>
      <point x="505" y="65" type="curve"/>
      <point x="503" y="82"/>
      <point x="503" y="126"/>
      <point x="503" y="194" type="curve"/>
      <point x="503" y="402" type="line" smooth="yes"/>
      <point x="503" y="469"/>
      <point x="503" y="513"/>
      <point x="505" y="528" type="curve"/>
      <point x="523" y="531"/>
      <point x="551" y="532"/>
      <point x="571" y="532" type="curve"/>
      <point x="636" y="532" type="line" smooth="yes"/>
      <point x="652" y="532"/>
      <point x="664" y="531"/>
      <point x="682" y="528" type="curve"/>
      <point x="696" y="500"/>
      <point x="703" y="474"/>
      <point x="719" y="435" type="curve"/>
      <point x="778" y="443" type="line"/>
      <point x="750" y="592" type="line"/>
      <point x="716" y="591"/>
      <point x="638" y="587"/>
      <point x="596" y="587" type="curve"/>
      <point x="435" y="587" type="line" smooth="yes"/>
      <point x="392" y="587"/>
      <point x="307" y="589"/>
      <point x="279" y="591" type="curve"/>
      <point x="276" y="536" type="line"/>
      <point x="300" y="535"/>
      <point x="342" y="529"/>
      <point x="351" y="520" type="curve"/>
      <point x="361" y="559" type="line"/>
      <point x="27" y="62" type="line"/>
      <point x="17" y="58"/>
      <point x="7" y="55"/>
      <point x="-21" y="51" type="curve"/>
      <point x="-18" y="-2" type="line"/>
      <point x="13" y="0"/>
      <point x="47" y="-1"/>
      <point x="75" y="-1" type="curve"/>
      <point x="103" y="-1"/>
      <point x="141" y="0"/>
      <point x="170" y="-2" type="curve"/>
      <point x="173" y="51" type="line"/>
      <point x="148" y="55"/>
      <point x="121" y="59"/>
      <point x="108" y="62" type="curve"/>
      <point x="401" y="513" type="line"/>
      <point x="366" y="502" type="line"/>
      <point x="366" y="250" type="line"/>
      <point x="366" y="137"/>
      <point x="367" y="75"/>
      <point x="366" y="67" type="curve"/>
      <point x="353" y="59"/>
      <point x="323" y="54"/>
      <point x="298" y="50" type="curve"/>
      <point x="301" y="-5" type="line"/>
      <point x="331" y="-2"/>
      <point x="392" y="0"/>
      <point x="435" y="0" type="curve"/>
      <point x="634" y="0" type="line" smooth="yes"/>
      <point x="676" y="0"/>
      <point x="740" y="-4"/>
      <point x="775" y="-6" type="curve"/>
    </contour>
    <contour>
      <point x="435" y="0" type="move" name="bottom"/>
    </contour>
    <contour>
      <point x="435" y="587" type="move" name="top"/>
    </contour>
  </outline>
</glyph>
<glyph name="multiply" format="1">
  <advance width="540"/>
  <unicode hex="00D7"/>
  <outline>
    <contour>
      <point x="478" y="401" type="line"/>
      <point x="418" y="463" type="line"/>
      <point x="62" y="109" type="line"/>
      <point x="122" y="47" type="line"/>
    </contour>
    <contour>
      <point x="478" y="109" type="line"/>
      <point x="122" y="463" type="line"/>
      <point x="62" y="401" type="line"/>
      <point x="418" y="47" type="line"/>
    </contour>
  </outline>
</glyph>
<glyph name="Thorn" format="1">
  <advance width="570"/>
  <unicode hex="00DE"/>
  <note>
    Thorn
  </note>
  <outline>
    <contour>
      <point x="32" y="50" type="curve"/>
      <point x="35" y="-5" type="line"/>
      <point x="65" y="-2"/>
      <point x="117" y="2"/>
      <point x="171" y="2" type="curve"/>
      <point x="225" y="2"/>
      <point x="278" y="-2"/>
      <point x="319" y="-5" type="curve"/>
      <point x="322" y="51" type="line"/>
      <point x="285" y="54"/>
      <point x="257" y="59"/>
      <point x="242" y="67" type="curve"/>
      <point x="242" y="75"/>
      <point x="240" y="98"/>
      <point x="240" y="129" type="curve"/>
      <point x="240" y="427" type="line"/>
      <point x="252" y="430"/>
      <point x="264" y="432"/>
      <point x="282" y="432" type="curve"/>
      <point x="345" y="432"/>
      <point x="391" y="389"/>
      <point x="391" y="297" type="curve"/>
      <point x="391" y="228"/>
      <point x="357" y="187"/>
      <point x="290" y="187" type="curve"/>
      <point x="265" y="187"/>
      <point x="241" y="192"/>
      <point x="226" y="197" type="curve"/>
      <point x="226" y="132" type="line"/>
      <point x="246" y="128"/>
      <point x="272" y="125"/>
      <point x="298" y="125" type="curve"/>
      <point x="449" y="125"/>
      <point x="537" y="206"/>
      <point x="537" y="307" type="curve"/>
      <point x="537" y="424"/>
      <point x="448" y="490"/>
      <point x="295" y="490" type="curve"/>
      <point x="260" y="490"/>
      <point x="224" y="486"/>
      <point x="206" y="484" type="curve"/>
      <point x="240" y="434" type="line"/>
      <point x="240" y="493" type="line" smooth="yes"/>
      <point x="240" y="506"/>
      <point x="242" y="514"/>
      <point x="244" y="520" type="curve"/>
      <point x="257" y="529"/>
      <point x="283" y="534"/>
      <point x="308" y="536" type="curve"/>
      <point x="305" y="591" type="line"/>
      <point x="276" y="589"/>
      <point x="225" y="586"/>
      <point x="171" y="586" type="curve"/>
      <point x="117" y="586"/>
      <point x="65" y="589"/>
      <point x="34" y="591" type="curve"/>
      <point x="31" y="536" type="line"/>
      <point x="57" y="534"/>
      <point x="85" y="529"/>
      <point x="96" y="520" type="curve"/>
      <point x="100" y="513"/>
      <point x="103" y="451"/>
      <point x="103" y="366" type="curve"/>
      <point x="103" y="221" type="line" smooth="yes"/>
      <point x="103" y="137"/>
      <point x="100" y="75"/>
      <point x="96" y="67" type="curve"/>
      <point x="85" y="59"/>
      <point x="57" y="54"/>
    </contour>
  </outline>
</glyph>
<glyph name="germandbls" format="1">
  <advance width="630"/>
  <unicode hex="00DF"/>
  <note>
    germandbls
  </note>
  <outline>
    <contour>
      <point x="434" y="-8" type="curve"/>
      <point x="544" y="-8"/>
      <point x="615" y="49"/>
      <point x="615" y="138" type="curve"/>
      <point x="615" y="288"/>
      <point x="410" y="275"/>
      <point x="410" y="369" type="curve"/>
      <point x="410" y="426"/>
      <point x="498" y="479"/>
      <point x="499" y="559" type="curve"/>
      <point x="500" y="645"/>
      <point x="427" y="698"/>
      <point x="317" y="698" type="curve"/>
      <point x="172" y="698"/>
      <point x="80" y="603"/>
      <point x="80" y="470" type="curve"/>
      <point x="80" y="374" type="line"/>
      <point x="82" y="204" type="line" smooth="yes"/>
      <point x="83" y="113"/>
      <point x="78" y="71"/>
      <point x="77" y="64" type="curve"/>
      <point x="65" y="56"/>
      <point x="43" y="50"/>
      <point x="19" y="46" type="curve"/>
      <point x="23" y="-3" type="line"/>
      <point x="55" y="0"/>
      <point x="104" y="2"/>
      <point x="157" y="2" type="curve"/>
      <point x="205" y="2"/>
      <point x="237" y="0"/>
      <point x="268" y="-3" type="curve"/>
      <point x="269" y="46" type="line"/>
      <point x="253" y="50"/>
      <point x="232" y="56"/>
      <point x="218" y="62" type="curve"/>
      <point x="216" y="73"/>
      <point x="215" y="113"/>
      <point x="214" y="235" type="curve"/>
      <point x="212" y="521" type="line"/>
      <point x="212" y="598"/>
      <point x="248" y="641"/>
      <point x="302" y="641" type="curve"/>
      <point x="356" y="641"/>
      <point x="384" y="606"/>
      <point x="384" y="543" type="curve"/>
      <point x="384" y="443"/>
      <point x="291" y="406"/>
      <point x="291" y="324" type="curve"/>
      <point x="291" y="181"/>
      <point x="494" y="202"/>
      <point x="494" y="100" type="curve"/>
      <point x="494" y="70"/>
      <point x="473" y="50"/>
      <point x="440" y="50" type="curve"/>
      <point x="420" y="50"/>
      <point x="394" y="54"/>
      <point x="370" y="70" type="curve"/>
      <point x="364" y="91"/>
      <point x="359" y="114"/>
      <point x="354" y="142" type="curve"/>
      <point x="293" y="142" type="line"/>
      <point x="293" y="96"/>
      <point x="295" y="66"/>
      <point x="298" y="26" type="curve"/>
      <point x="335" y="6"/>
      <point x="385" y="-8"/>
    </contour>
    <contour>
      <point x="6" y="421" type="curve"/>
      <point x="6" y="374" type="line"/>
      <point x="139" y="374" type="line"/>
      <point x="139" y="438" type="line"/>
      <point x="80" y="442" type="line"/>
      <point x="55" y="432"/>
      <point x="31" y="425"/>
    </contour>
  </outline>
</glyph>
<glyph name="divide" format="1">
  <advance width="540"/>
  <unicode hex="00F7"/>
  <outline>
    <contour>
      <point x="487" y="211" type="line"/>
      <point x="487" y="299" type="line"/>
      <point x="53" y="299" type="line"/>
      <point x="53" y="211" type="line"/>
    </contour>
    <contour>
      <point x="265" y="15" type="curve"/>
      <point x="301" y="15"/>
      <point x="331" y="44"/>
      <point x="331" y="81" type="curve"/>
      <point x="331" y="119"/>
      <point x="301" y="150"/>
      <point x="265" y="150" type="curve"/>
      <point x="229" y="150"/>
      <point x="198" y="119"/>
      <point x="198" y="81" type="curve"/>
      <point x="198" y="44"/>
      <point x="229" y="15"/>
    </contour>
    <contour>
      <point x="265" y="360" type="curve"/>
      <point x="301" y="360"/>
      <point x="331" y="389"/>
      <point x="331" y="426" type="curve"/>
      <point x="331" y="464"/>
      <point x="301" y="495"/>
      <point x="265" y="495" type="curve"/>
      <point x="229" y="495"/>
      <point x="198" y="464"/>
      <point x="198" y="426" type="curve"/>
      <point x="198" y="389"/>
      <point x="229" y="360"/>
    </contour>
  </outline>
</glyph>
<glyph name="oslash" format="1">
  <advance width="542"/>
  <unicode hex="00F8"/>
  <note>
    oslash
  </note>
  <outline>
    <component base="o"/>
    <component base="slashlongcomb" xOffset="-29"/>
    <contour>
      <point x="271" y="440" type="move" name="top"/>
    </contour>
  </outline>
</glyph>
<glyph name="thorn" format="1">
  <advance width="569"/>
  <unicode hex="00FE"/>
  <note>
    thorn
  </note>
  <outline>
    <contour>
      <point x="14" y="-176" type="curve"/>
      <point x="18" y="-227" type="line"/>
      <point x="50" y="-223"/>
      <point x="97" y="-220"/>
      <point x="147" y="-220" type="curve"/>
      <point x="197" y="-220"/>
      <point x="248" y="-223"/>
      <point x="285" y="-227" type="curve"/>
      <point x="289" y="-176" type="line"/>
      <point x="261" y="-173"/>
      <point x="230" y="-166"/>
      <point x="218" y="-158" type="curve"/>
      <point x="216" y="-149"/>
      <point x="213" y="-109"/>
      <point x="213" y="-58" type="curve"/>
      <point x="213" y="4" type="line"/>
      <point x="236" y="-3"/>
      <point x="256" y="-7"/>
      <point x="282" y="-7" type="curve"/>
      <point x="434" y="-7"/>
      <point x="530" y="108"/>
      <point x="530" y="238" type="curve"/>
      <point x="530" y="372"/>
      <point x="442" y="448"/>
      <point x="346" y="448" type="curve"/>
      <point x="293" y="448"/>
      <point x="242" y="416"/>
      <point x="213" y="369" type="curve"/>
      <point x="210" y="370" type="line"/>
      <point x="214" y="532"/>
      <point x="216" y="597"/>
      <point x="221" y="680" type="curve"/>
      <point x="193" y="698" type="line"/>
      <point x="137" y="674"/>
      <point x="71" y="655"/>
      <point x="6" y="642" type="curve"/>
      <point x="8" y="594" type="line"/>
      <point x="26" y="594"/>
      <point x="53" y="592"/>
      <point x="78" y="589" type="curve"/>
      <point x="80" y="559"/>
      <point x="83" y="485"/>
      <point x="83" y="361" type="curve"/>
      <point x="81" y="42" type="line" smooth="yes"/>
      <point x="80" y="-109"/>
      <point x="76" y="-151"/>
      <point x="75" y="-158" type="curve"/>
      <point x="63" y="-166"/>
      <point x="36" y="-173"/>
    </contour>
    <contour>
      <point x="284" y="65" type="curve"/>
      <point x="258" y="65"/>
      <point x="232" y="73"/>
      <point x="213" y="85" type="curve"/>
      <point x="213" y="313" type="line"/>
      <point x="231" y="337"/>
      <point x="259" y="352"/>
      <point x="287" y="352" type="curve"/>
      <point x="339" y="352"/>
      <point x="388" y="311"/>
      <point x="388" y="207" type="curve"/>
      <point x="388" y="106"/>
      <point x="344" y="65"/>
    </contour>
  </outline>
</glyph>
<glyph name="Aogonek" format="1">
  <advance width="609"/>
  <unicode hex="0104"/>
  <note>
    Aogonek
  </note>
  <outline>
    <contour>
      <point x="513" y="-223" type="curve"/>
      <point x="559" y="-223"/>
      <point x="599" y="-205"/>
      <point x="628" y="-173" type="curve"/>
      <point x="600" y="-134" type="line"/>
      <point x="576" y="-157"/>
      <point x="554" y="-168"/>
      <point x="532" y="-168" type="curve"/>
      <point x="502" y="-168"/>
      <point x="480" y="-148"/>
      <point x="480" y="-113" type="curve"/>
      <point x="480" y="-63"/>
      <point x="534" y="-18"/>
      <point x="617" y="0" type="curve"/>
      <point x="620" y="51" type="line"/>
      <point x="599" y="55"/>
      <point x="580" y="57"/>
      <point x="568" y="61" type="curve"/>
      <point x="335" y="605" type="line"/>
      <point x="251" y="557" type="line"/>
      <point x="46" y="62" type="line"/>
      <point x="37" y="58"/>
      <point x="23" y="55"/>
      <point x="-5" y="51" type="curve"/>
      <point x="-2" y="-2" type="line"/>
      <point x="29" y="0"/>
      <point x="69" y="-1"/>
      <point x="96" y="-1" type="curve"/>
      <point x="124" y="-1"/>
      <point x="164" y="0"/>
      <point x="193" y="-2" type="curve"/>
      <point x="196" y="51" type="line"/>
      <point x="170" y="55"/>
      <point x="143" y="59"/>
      <point x="130" y="62" type="curve"/>
      <point x="178" y="202" type="line"/>
      <point x="189" y="232" type="line"/>
      <point x="272" y="455" type="line"/>
      <point x="241" y="464" type="line"/>
      <point x="341" y="229" type="line"/>
      <point x="352" y="194" type="line"/>
      <point x="407" y="61" type="line"/>
      <point x="387" y="57"/>
      <point x="367" y="55"/>
      <point x="342" y="51" type="curve"/>
      <point x="345" y="-2" type="line"/>
      <point x="374" y="0"/>
      <point x="443" y="2"/>
      <point x="481" y="2" type="curve"/>
      <point x="552" y="2" type="line"/>
      <point x="553" y="14" type="line"/>
      <point x="451" y="-2"/>
      <point x="383" y="-65"/>
      <point x="383" y="-122" type="curve"/>
      <point x="383" y="-181"/>
      <point x="441" y="-223"/>
    </contour>
    <contour>
      <point x="159" y="238" type="curve"/>
      <point x="159" y="169" type="line"/>
      <point x="183" y="170"/>
      <point x="214" y="172"/>
      <point x="266" y="172" type="curve"/>
      <point x="317" y="172"/>
      <point x="350" y="170"/>
      <point x="373" y="170" type="curve"/>
      <point x="373" y="238" type="line"/>
      <point x="349" y="237"/>
      <point x="317" y="234"/>
      <point x="266" y="234" type="curve"/>
      <point x="214" y="234"/>
      <point x="184" y="237"/>
    </contour>
    <contour>
      <point x="269" y="0" type="move" name="bottom"/>
    </contour>
    <contour>
      <point x="293" y="587" type="move" name="top"/>
    </contour>
  </outline>
</glyph>
<glyph name="aogonek" format="1">
  <advance width="503"/>
  <unicode hex="0105"/>
  <note>
    aogonek
  </note>
  <outline>
    <contour>
      <point x="514" y="-173" type="curve"/>
      <point x="486" y="-134" type="line"/>
      <point x="462" y="-157"/>
      <point x="440" y="-168"/>
      <point x="418" y="-168" type="curve"/>
      <point x="388" y="-168"/>
      <point x="366" y="-148"/>
      <point x="366" y="-113" type="curve"/>
      <point x="366" y="-74"/>
      <point x="391" y="-37"/>
      <point x="494" y="34" type="curve"/>
      <point x="494" y="75" type="line"/>
      <point x="472" y="78"/>
      <point x="447" y="82"/>
      <point x="429" y="89" type="curve"/>
      <point x="423" y="105"/>
      <point x="421" y="125"/>
      <point x="421" y="158" type="curve"/>
      <point x="424" y="298" type="line" smooth="yes"/>
      <point x="424" y="391"/>
      <point x="348" y="448"/>
      <point x="230" y="448" type="curve"/>
      <point x="171" y="441"/>
      <point x="46" y="379"/>
      <point x="46" y="326" type="curve"/>
      <point x="46" y="285"/>
      <point x="92" y="264"/>
      <point x="160" y="278" type="curve"/>
      <point x="165" y="340" type="line" smooth="yes"/>
      <point x="167" y="369"/>
      <point x="175" y="377"/>
      <point x="196" y="377" type="curve"/>
      <point x="239" y="377"/>
      <point x="289" y="339"/>
      <point x="289" y="294" type="curve"/>
      <point x="289" y="259" type="line"/>
      <point x="132" y="213" type="line" smooth="yes"/>
      <point x="64" y="193"/>
      <point x="40" y="160"/>
      <point x="40" y="114" type="curve"/>
      <point x="40" y="63"/>
      <point x="95" y="-8"/>
      <point x="188" y="-8" type="curve"/>
      <point x="222" y="-8"/>
      <point x="268" y="14"/>
      <point x="314" y="72" type="curve"/>
      <point x="293" y="79" type="line"/>
      <point x="311" y="33" type="line" smooth="yes"/>
      <point x="323" y="2"/>
      <point x="348" y="-16"/>
      <point x="407" y="-1" type="curve"/>
      <point x="402" y="10" type="line"/>
      <point x="316" y="-26"/>
      <point x="269" y="-72"/>
      <point x="269" y="-122" type="curve"/>
      <point x="269" y="-181"/>
      <point x="327" y="-223"/>
      <point x="399" y="-223" type="curve"/>
      <point x="446" y="-223"/>
      <point x="485" y="-205"/>
    </contour>
    <contour>
      <point x="290" y="202" type="line"/>
      <point x="290" y="105" type="line"/>
      <point x="274" y="89"/>
      <point x="256" y="83"/>
      <point x="240" y="83" type="curve"/>
      <point x="210" y="83"/>
      <point x="178" y="111"/>
      <point x="178" y="144" type="curve"/>
      <point x="178" y="169"/>
      <point x="191" y="184"/>
      <point x="224" y="190" type="curve"/>
    </contour>
    <contour>
      <point x="247" y="440" type="move" name="top"/>
    </contour>
  </outline>
</glyph>
<glyph name="Eogonek" format="1">
  <advance width="584"/>
  <unicode hex="0118"/>
  <note>
    Eogonek
  </note>
  <outline>
    <contour>
      <point x="392" y="199" type="curve"/>
      <point x="449" y="199" type="line"/>
      <point x="448" y="232"/>
      <point x="446" y="269"/>
      <point x="446" y="301" type="curve"/>
      <point x="446" y="335"/>
      <point x="448" y="368"/>
      <point x="449" y="402" type="curve"/>
      <point x="392" y="402" type="line"/>
      <point x="390" y="381"/>
      <point x="385" y="344"/>
      <point x="382" y="336" type="curve"/>
      <point x="373" y="336"/>
      <point x="351" y="334"/>
      <point x="325" y="334" type="curve"/>
      <point x="273" y="334" type="line" smooth="yes"/>
      <point x="249" y="334"/>
      <point x="228" y="336"/>
      <point x="217" y="337" type="curve"/>
      <point x="217" y="266" type="line"/>
      <point x="228" y="267"/>
      <point x="249" y="269"/>
      <point x="273" y="269" type="curve"/>
      <point x="325" y="269" type="line" smooth="yes"/>
      <point x="351" y="269"/>
      <point x="373" y="267"/>
      <point x="382" y="267" type="curve"/>
      <point x="385" y="259"/>
      <point x="390" y="219"/>
    </contour>
    <contour>
      <point x="583" y="-173" type="curve"/>
      <point x="555" y="-134" type="line"/>
      <point x="531" y="-157"/>
      <point x="509" y="-168"/>
      <point x="487" y="-168" type="curve"/>
      <point x="457" y="-168"/>
      <point x="435" y="-148"/>
      <point x="435" y="-113" type="curve"/>
      <point x="435" y="-75"/>
      <point x="464" y="-37"/>
      <point x="522" y="0" type="curve"/>
      <point x="565" y="157" type="line"/>
      <point x="508" y="168" type="line"/>
      <point x="489" y="130"/>
      <point x="472" y="98"/>
      <point x="453" y="68" type="curve"/>
      <point x="434" y="64"/>
      <point x="424" y="64"/>
      <point x="382" y="64" type="curve"/>
      <point x="330" y="64" type="line" smooth="yes"/>
      <point x="289" y="64"/>
      <point x="266" y="66"/>
      <point x="242" y="69" type="curve"/>
      <point x="240" y="86"/>
      <point x="239" y="126"/>
      <point x="239" y="194" type="curve"/>
      <point x="239" y="402" type="line" smooth="yes"/>
      <point x="239" y="469"/>
      <point x="240" y="509"/>
      <point x="242" y="524" type="curve"/>
      <point x="259" y="527"/>
      <point x="287" y="528"/>
      <point x="307" y="528" type="curve"/>
      <point x="381" y="528" type="line" smooth="yes"/>
      <point x="397" y="528"/>
      <point x="409" y="527"/>
      <point x="427" y="524" type="curve"/>
      <point x="441" y="496"/>
      <point x="450" y="474"/>
      <point x="465" y="435" type="curve"/>
      <point x="523" y="443" type="line"/>
      <point x="496" y="592" type="line"/>
      <point x="461" y="591"/>
      <point x="384" y="587"/>
      <point x="342" y="587" type="curve"/>
      <point x="171" y="587" type="line" smooth="yes"/>
      <point x="128" y="587"/>
      <point x="65" y="589"/>
      <point x="35" y="591" type="curve"/>
      <point x="32" y="536" type="line"/>
      <point x="57" y="535"/>
      <point x="85" y="529"/>
      <point x="96" y="520" type="curve"/>
      <point x="100" y="513"/>
      <point x="103" y="451"/>
      <point x="103" y="366" type="curve"/>
      <point x="103" y="221" type="line" smooth="yes"/>
      <point x="103" y="137"/>
      <point x="100" y="75"/>
      <point x="96" y="67" type="curve"/>
      <point x="85" y="59"/>
      <point x="57" y="54"/>
      <point x="32" y="50" type="curve"/>
      <point x="35" y="-5" type="line"/>
      <point x="65" y="-2"/>
      <point x="128" y="0"/>
      <point x="171" y="0" type="curve"/>
      <point x="447" y="0" type="line"/>
      <point x="376" y="-34"/>
      <point x="338" y="-77"/>
      <point x="338" y="-122" type="curve"/>
      <point x="338" y="-181"/>
      <point x="396" y="-223"/>
      <point x="468" y="-223" type="curve"/>
      <point x="515" y="-223"/>
      <point x="554" y="-205"/>
    </contour>
    <contour>
      <point x="292" y="0" type="move" name="bottom"/>
    </contour>
    <contour>
      <point x="292" y="587" type="move" name="top"/>
    </contour>
    <contour>
      <point x="27" y="587" type="move" name="topleft"/>
    </contour>
  </outline>
</glyph>
<glyph name="eogonek" format="1">
  <advance width="492"/>
  <unicode hex="0119"/>
  <note>
    eogonek
  </note>
  <outline>
    <contour>
      <point x="455" y="-173" type="curve"/>
      <point x="427" y="-134" type="line"/>
      <point x="403" y="-157"/>
      <point x="381" y="-168"/>
      <point x="359" y="-168" type="curve"/>
      <point x="329" y="-168"/>
      <point x="307" y="-148"/>
      <point x="307" y="-111" type="curve"/>
      <point x="307" y="-67"/>
      <point x="336" y="-29"/>
      <point x="403" y="44" type="curve"/>
      <point x="424" y="67"/>
      <point x="443" y="91"/>
      <point x="454" y="115" type="curve"/>
      <point x="423" y="144" type="line"/>
      <point x="388" y="104"/>
      <point x="352" y="89"/>
      <point x="307" y="89" type="curve"/>
      <point x="223" y="89"/>
      <point x="169" y="151"/>
      <point x="169" y="244" type="curve"/>
      <point x="169" y="265" type="line" smooth="yes"/>
      <point x="169" y="351"/>
      <point x="207" y="392"/>
      <point x="256" y="392" type="curve"/>
      <point x="305" y="392"/>
      <point x="333" y="353"/>
      <point x="333" y="290" type="curve"/>
      <point x="333" y="255" type="line"/>
      <point x="350" y="280" type="line"/>
      <point x="159" y="280" type="line"/>
      <point x="159" y="227" type="line"/>
      <point x="449" y="227" type="line"/>
      <point x="449" y="251" type="line" smooth="yes"/>
      <point x="449" y="368"/>
      <point x="382" y="448"/>
      <point x="264" y="448" type="curve"/>
      <point x="146" y="448"/>
      <point x="37" y="352"/>
      <point x="37" y="213" type="curve"/>
      <point x="37" y="88"/>
      <point x="130" y="-8"/>
      <point x="260" y="-8" type="curve"/>
      <point x="278" y="-8"/>
      <point x="296" y="-8"/>
      <point x="332" y="5" type="curve"/>
      <point x="332" y="15" type="line"/>
      <point x="243" y="-31"/>
      <point x="210" y="-77"/>
      <point x="210" y="-122" type="curve"/>
      <point x="210" y="-181"/>
      <point x="268" y="-223"/>
      <point x="340" y="-223" type="curve"/>
      <point x="387" y="-223"/>
      <point x="426" y="-205"/>
    </contour>
    <contour>
      <point x="256" y="440" type="move" name="top"/>
    </contour>
  </outline>
</glyph>
<glyph name="Iogonek" format="1">
  <advance width="343"/>
  <unicode hex="012E"/>
  <note>
    Iogonek
  </note>
  <outline>
    <contour>
      <point x="240" y="221" type="curve"/>
      <point x="240" y="366" type="line" smooth="yes"/>
      <point x="240" y="451"/>
      <point x="244" y="513"/>
      <point x="247" y="520" type="curve"/>
      <point x="258" y="529"/>
      <point x="286" y="534"/>
      <point x="312" y="536" type="curve"/>
      <point x="309" y="591" type="line"/>
      <point x="279" y="589"/>
      <point x="226" y="586"/>
      <point x="172" y="586" type="curve"/>
      <point x="118" y="586"/>
      <point x="65" y="589"/>
      <point x="35" y="591" type="curve"/>
      <point x="32" y="536" type="line"/>
      <point x="57" y="534"/>
      <point x="85" y="529"/>
      <point x="96" y="520" type="curve"/>
      <point x="100" y="513"/>
      <point x="103" y="451"/>
      <point x="103" y="366" type="curve"/>
      <point x="103" y="221" type="line" smooth="yes"/>
      <point x="103" y="137"/>
      <point x="100" y="75"/>
      <point x="96" y="67" type="curve"/>
      <point x="85" y="59"/>
      <point x="57" y="54"/>
      <point x="32" y="50" type="curve"/>
      <point x="35" y="-5" type="line"/>
      <point x="71" y="-1"/>
      <point x="123" y="2"/>
      <point x="217" y="2" type="curve"/>
      <point x="216" y="14" type="line"/>
      <point x="94" y="-12"/>
      <point x="44" y="-67"/>
      <point x="44" y="-122" type="curve"/>
      <point x="44" y="-181"/>
      <point x="99" y="-223"/>
      <point x="174" y="-223" type="curve"/>
      <point x="221" y="-223"/>
      <point x="260" y="-205"/>
      <point x="289" y="-173" type="curve"/>
      <point x="261" y="-134" type="line"/>
      <point x="239" y="-157"/>
      <point x="216" y="-168"/>
      <point x="195" y="-168" type="curve"/>
      <point x="164" y="-168"/>
      <point x="141" y="-148"/>
      <point x="141" y="-109" type="curve"/>
      <point x="141" y="-51"/>
      <point x="219" y="0"/>
      <point x="309" y="0" type="curve"/>
      <point x="312" y="50" type="line"/>
      <point x="286" y="54"/>
      <point x="258" y="59"/>
      <point x="247" y="67" type="curve"/>
      <point x="244" y="75"/>
      <point x="240" y="137"/>
    </contour>
    <contour>
      <point x="172" y="587" type="move" name="top"/>
    </contour>
    <contour>
      <point x="27" y="587" type="move" name="topleft"/>
    </contour>
  </outline>
</glyph>
<glyph name="iogonek" format="1">
  <advance width="300"/>
  <unicode hex="012F"/>
  <note>
    iogonek
  </note>
  <outline>
    <contour>
      <point x="286" y="-3" type="curve"/>
      <point x="290" y="46" type="line"/>
      <point x="265" y="49"/>
      <point x="235" y="56"/>
      <point x="223" y="64" type="curve"/>
      <point x="221" y="73"/>
      <point x="218" y="113"/>
      <point x="218" y="164" type="curve"/>
      <point x="218" y="291" type="line" smooth="yes"/>
      <point x="218" y="350"/>
      <point x="220" y="390"/>
      <point x="224" y="429" type="curve"/>
      <point x="196" y="446" type="line"/>
      <point x="149" y="429"/>
      <point x="78" y="411"/>
      <point x="10" y="400" type="curve"/>
      <point x="10" y="355" type="line"/>
      <point x="33" y="352"/>
      <point x="58" y="348"/>
      <point x="77" y="341" type="curve"/>
      <point x="82" y="311"/>
      <point x="85" y="284"/>
      <point x="85" y="239" type="curve"/>
      <point x="84" y="164" type="line" smooth="yes"/>
      <point x="83" y="113"/>
      <point x="80" y="71"/>
      <point x="79" y="64" type="curve"/>
      <point x="67" y="56"/>
      <point x="41" y="49"/>
      <point x="13" y="46" type="curve"/>
      <point x="17" y="-3" type="line"/>
      <point x="54" y="0"/>
      <point x="111" y="2"/>
      <point x="152" y="2" type="curve"/>
      <point x="207" y="2" type="line"/>
      <point x="207" y="15" type="line"/>
      <point x="85" y="-7"/>
      <point x="25" y="-65"/>
      <point x="25" y="-122" type="curve"/>
      <point x="25" y="-181"/>
      <point x="83" y="-223"/>
      <point x="155" y="-223" type="curve"/>
      <point x="202" y="-223"/>
      <point x="241" y="-205"/>
      <point x="270" y="-173" type="curve"/>
      <point x="242" y="-134" type="line"/>
      <point x="218" y="-157"/>
      <point x="196" y="-168"/>
      <point x="174" y="-168" type="curve"/>
      <point x="144" y="-168"/>
      <point x="122" y="-148"/>
      <point x="122" y="-113" type="curve"/>
      <point x="122" y="-75"/>
      <point x="155" y="-3"/>
    </contour>
    <component base="dotaccentcomb.i" xOffset="-149"/>
  </outline>
</glyph>
<glyph name="Eng" format="1">
  <advance width="693"/>
  <unicode hex="014A"/>
  <note>
    Eng
  </note>
  <outline>
    <contour>
      <point x="416" y="-228" type="curve"/>
      <point x="530" y="-228"/>
      <point x="590" y="-147"/>
      <point x="590" y="22" type="curve"/>
      <point x="590" y="337" type="line" smooth="yes"/>
      <point x="590" y="458"/>
      <point x="593" y="513"/>
      <point x="597" y="520" type="curve"/>
      <point x="608" y="529"/>
      <point x="637" y="533"/>
      <point x="665" y="536" type="curve"/>
      <point x="662" y="591" type="line"/>
      <point x="629" y="588"/>
      <point x="590" y="587"/>
      <point x="558" y="587" type="curve"/>
      <point x="528" y="587"/>
      <point x="477" y="588"/>
      <point x="444" y="591" type="curve"/>
      <point x="441" y="536" type="line"/>
      <point x="469" y="533"/>
      <point x="499" y="529"/>
      <point x="510" y="520" type="curve"/>
      <point x="513" y="513"/>
      <point x="517" y="458"/>
      <point x="517" y="337" type="curve"/>
      <point x="517" y="187" type="line"/>
      <point x="558" y="187" type="line"/>
      <point x="195" y="588" type="line"/>
      <point x="179" y="587"/>
      <point x="142" y="587"/>
      <point x="120" y="587" type="curve"/>
      <point x="97" y="587"/>
      <point x="66" y="588"/>
      <point x="35" y="591" type="curve"/>
      <point x="32" y="536" type="line"/>
      <point x="57" y="535"/>
      <point x="85" y="529"/>
      <point x="96" y="520" type="curve"/>
      <point x="99" y="517"/>
      <point x="103" y="451"/>
      <point x="103" y="394" type="curve"/>
      <point x="103" y="263" type="line" smooth="yes"/>
      <point x="103" y="129"/>
      <point x="99" y="75"/>
      <point x="96" y="67" type="curve"/>
      <point x="85" y="59"/>
      <point x="55" y="54"/>
      <point x="27" y="50" type="curve"/>
      <point x="30" y="-5" type="line"/>
      <point x="63" y="-2"/>
      <point x="109" y="2"/>
      <point x="138" y="2" type="curve"/>
      <point x="167" y="2"/>
      <point x="221" y="-2"/>
      <point x="253" y="-5" type="curve"/>
      <point x="256" y="50" type="line"/>
      <point x="228" y="54"/>
      <point x="199" y="59"/>
      <point x="188" y="67" type="curve"/>
      <point x="184" y="75"/>
      <point x="178" y="129"/>
      <point x="180" y="263" type="curve"/>
      <point x="181" y="459" type="line"/>
      <point x="125" y="459" type="line"/>
      <point x="529" y="-5" type="line"/>
      <point x="516" y="61" type="line"/>
      <point x="516" y="-30" type="line" smooth="yes"/>
      <point x="516" y="-142"/>
      <point x="463" y="-176"/>
      <point x="413" y="-168" type="curve"/>
      <point x="470" y="-190" type="line"/>
      <point x="395" y="-122" type="line" smooth="yes"/>
      <point x="366" y="-96"/>
      <point x="346" y="-87"/>
      <point x="322" y="-87" type="curve"/>
      <point x="293" y="-87"/>
      <point x="270" y="-105"/>
      <point x="270" y="-138" type="curve"/>
      <point x="270" y="-190"/>
      <point x="336" y="-228"/>
    </contour>
  </outline>
</glyph>
<glyph name="OE" format="1">
  <advance width="932"/>
  <unicode hex="0152"/>
  <note>
    OE
  </note>
  <outline>
    <contour>
      <point x="381" y="-9" type="curve"/>
      <point x="428" y="-9"/>
      <point x="469" y="0"/>
      <point x="523" y="0" type="curve"/>
      <point x="726" y="0" type="line" smooth="yes"/>
      <point x="768" y="0"/>
      <point x="832" y="-4"/>
      <point x="867" y="-6" type="curve"/>
      <point x="912" y="157" type="line"/>
      <point x="855" y="168" type="line"/>
      <point x="836" y="130"/>
      <point x="819" y="98"/>
      <point x="800" y="68" type="curve"/>
      <point x="780" y="64"/>
      <point x="771" y="64"/>
      <point x="729" y="64" type="curve"/>
      <point x="690" y="64" type="line" smooth="yes"/>
      <point x="649" y="64"/>
      <point x="626" y="66"/>
      <point x="602" y="69" type="curve"/>
      <point x="600" y="86"/>
      <point x="599" y="126"/>
      <point x="599" y="194" type="curve"/>
      <point x="599" y="402" type="line" smooth="yes"/>
      <point x="599" y="469"/>
      <point x="600" y="509"/>
      <point x="602" y="524" type="curve"/>
      <point x="620" y="527"/>
      <point x="646" y="528"/>
      <point x="667" y="528" type="curve"/>
      <point x="728" y="528" type="line" smooth="yes"/>
      <point x="744" y="528"/>
      <point x="756" y="527"/>
      <point x="774" y="524" type="curve"/>
      <point x="788" y="496"/>
      <point x="797" y="474"/>
      <point x="812" y="435" type="curve"/>
      <point x="870" y="443" type="line"/>
      <point x="843" y="592" type="line"/>
      <point x="808" y="591"/>
      <point x="731" y="587"/>
      <point x="689" y="587" type="curve"/>
      <point x="525" y="587" type="line" smooth="yes"/>
      <point x="476" y="587"/>
      <point x="435" y="593"/>
      <point x="399" y="593" type="curve"/>
      <point x="152" y="593"/>
      <point x="47" y="443"/>
      <point x="47" y="287" type="curve"/>
      <point x="47" y="104"/>
      <point x="183" y="-9"/>
    </contour>
    <contour>
      <point x="396" y="65" type="curve"/>
      <point x="285" y="65"/>
      <point x="209" y="151"/>
      <point x="209" y="306" type="curve"/>
      <point x="209" y="415"/>
      <point x="259" y="526"/>
      <point x="392" y="526" type="curve"/>
      <point x="412" y="526"/>
      <point x="439" y="523"/>
      <point x="457" y="516" type="curve"/>
      <point x="459" y="506"/>
      <point x="463" y="453"/>
      <point x="463" y="373" type="curve"/>
      <point x="463" y="225" type="line" smooth="yes"/>
      <point x="463" y="140"/>
      <point x="460" y="85"/>
      <point x="459" y="74" type="curve"/>
      <point x="443" y="70"/>
      <point x="416" y="65"/>
    </contour>
    <contour>
      <point x="739" y="199" type="curve"/>
      <point x="796" y="199" type="line"/>
      <point x="795" y="232"/>
      <point x="793" y="269"/>
      <point x="793" y="301" type="curve"/>
      <point x="793" y="334"/>
      <point x="795" y="368"/>
      <point x="796" y="402" type="curve"/>
      <point x="739" y="402" type="line"/>
      <point x="737" y="381"/>
      <point x="732" y="344"/>
      <point x="729" y="336" type="curve"/>
      <point x="720" y="336"/>
      <point x="698" y="334"/>
      <point x="672" y="334" type="curve"/>
      <point x="633" y="334" type="line" smooth="yes"/>
      <point x="609" y="334"/>
      <point x="588" y="336"/>
      <point x="577" y="337" type="curve"/>
      <point x="577" y="266" type="line"/>
      <point x="588" y="267"/>
      <point x="609" y="269"/>
      <point x="633" y="269" type="curve"/>
      <point x="672" y="269" type="line" smooth="yes"/>
      <point x="698" y="269"/>
      <point x="720" y="267"/>
      <point x="729" y="267" type="curve"/>
      <point x="732" y="259"/>
      <point x="737" y="219"/>
    </contour>
    <contour>
      <point x="531" y="0" type="move" name="bottom"/>
    </contour>
    <contour>
      <point x="531" y="587" type="move" name="top"/>
    </contour>
  </outline>
</glyph>
<glyph name="Uogonek" format="1">
  <advance width="695"/>
  <unicode hex="0172"/>
  <note>
    Uogonek
  </note>
  <outline>
    <contour>
      <point x="673" y="534" type="curve"/>
      <point x="670" y="589" type="line"/>
      <point x="636" y="589"/>
      <point x="585" y="588"/>
      <point x="558" y="588" type="curve"/>
      <point x="532" y="588"/>
      <point x="477" y="589"/>
      <point x="443" y="590" type="curve"/>
      <point x="441" y="535" type="line"/>
      <point x="470" y="534"/>
      <point x="497" y="529"/>
      <point x="508" y="520" type="curve"/>
      <point x="512" y="513"/>
      <point x="515" y="425"/>
      <point x="515" y="348" type="curve"/>
      <point x="515" y="265" type="line" smooth="yes"/>
      <point x="515" y="134"/>
      <point x="462" y="86"/>
      <point x="378" y="86" type="curve"/>
      <point x="289" y="86"/>
      <point x="236" y="141"/>
      <point x="236" y="264" type="curve"/>
      <point x="236" y="366" type="line"/>
      <point x="236" y="451"/>
      <point x="239" y="500"/>
      <point x="244" y="520" type="curve"/>
      <point x="255" y="529"/>
      <point x="283" y="534"/>
      <point x="311" y="535" type="curve"/>
      <point x="308" y="590" type="line"/>
      <point x="276" y="589"/>
      <point x="223" y="587"/>
      <point x="168" y="587" type="curve"/>
      <point x="113" y="587"/>
      <point x="60" y="589"/>
      <point x="30" y="590" type="curve"/>
      <point x="27" y="535" type="line"/>
      <point x="52" y="534"/>
      <point x="80" y="529"/>
      <point x="91" y="520" type="curve"/>
      <point x="95" y="513"/>
      <point x="98" y="451"/>
      <point x="98" y="366" type="curve"/>
      <point x="98" y="247" type="line" smooth="yes"/>
      <point x="98" y="81"/>
      <point x="194" y="-9"/>
      <point x="359" y="-9" type="curve"/>
      <point x="389" y="-9" type="line"/>
      <point x="417" y="24" type="line"/>
      <point x="313" y="-9"/>
      <point x="256" y="-65"/>
      <point x="256" y="-122" type="curve"/>
      <point x="256" y="-181"/>
      <point x="314" y="-223"/>
      <point x="386" y="-223" type="curve"/>
      <point x="433" y="-223"/>
      <point x="472" y="-205"/>
      <point x="501" y="-173" type="curve"/>
      <point x="473" y="-134" type="line"/>
      <point x="449" y="-157"/>
      <point x="427" y="-168"/>
      <point x="405" y="-168" type="curve"/>
      <point x="375" y="-168"/>
      <point x="353" y="-147"/>
      <point x="353" y="-113" type="curve"/>
      <point x="353" y="-73"/>
      <point x="379" y="-26"/>
      <point x="462" y="9" type="curve"/>
      <point x="544" y="44"/>
      <point x="598" y="124"/>
      <point x="598" y="248" type="curve"/>
      <point x="598" y="348" type="line" smooth="yes"/>
      <point x="598" y="425"/>
      <point x="601" y="513"/>
      <point x="605" y="520" type="curve"/>
      <point x="616" y="529"/>
      <point x="640" y="534"/>
    </contour>
    <contour>
      <point x="377" y="587" type="move" name="top"/>
    </contour>
    <contour>
      <point x="670" y="587" type="move" name="topright"/>
    </contour>
  </outline>
</glyph>
<glyph name="uogonek" format="1">
  <advance width="590"/>
  <unicode hex="0173"/>
  <note>
    uogonek
  </note>
  <outline>
    <contour>
      <point x="485" y="-223" type="curve"/>
      <point x="532" y="-223"/>
      <point x="571" y="-205"/>
      <point x="600" y="-173" type="curve"/>
      <point x="572" y="-134" type="line"/>
      <point x="548" y="-157"/>
      <point x="526" y="-168"/>
      <point x="504" y="-168" type="curve"/>
      <point x="474" y="-168"/>
      <point x="452" y="-148"/>
      <point x="452" y="-116" type="curve"/>
      <point x="452" y="-75"/>
      <point x="487" y="-28"/>
      <point x="580" y="33" type="curve"/>
      <point x="580" y="77" type="line"/>
      <point x="557" y="80"/>
      <point x="531" y="84"/>
      <point x="511" y="91" type="curve"/>
      <point x="508" y="121"/>
      <point x="505" y="158"/>
      <point x="505" y="199" type="curve"/>
      <point x="505" y="280" type="line" smooth="yes"/>
      <point x="505" y="339"/>
      <point x="506" y="390"/>
      <point x="509" y="429" type="curve"/>
      <point x="481" y="446" type="line"/>
      <point x="432" y="429"/>
      <point x="367" y="411"/>
      <point x="299" y="400" type="curve"/>
      <point x="299" y="355" type="line"/>
      <point x="324" y="351"/>
      <point x="349" y="347"/>
      <point x="370" y="340" type="curve"/>
      <point x="373" y="310"/>
      <point x="375" y="284"/>
      <point x="375" y="229" type="curve"/>
      <point x="375" y="134" type="line"/>
      <point x="355" y="101"/>
      <point x="324" y="87"/>
      <point x="298" y="87" type="curve"/>
      <point x="245" y="87"/>
      <point x="212" y="118"/>
      <point x="213" y="187" type="curve"/>
      <point x="214" y="271" type="line" smooth="yes"/>
      <point x="215" y="330"/>
      <point x="216" y="390"/>
      <point x="219" y="429" type="curve"/>
      <point x="191" y="446" type="line"/>
      <point x="139" y="429"/>
      <point x="74" y="411"/>
      <point x="7" y="400" type="curve"/>
      <point x="7" y="355" type="line"/>
      <point x="29" y="352"/>
      <point x="56" y="348"/>
      <point x="77" y="341" type="curve"/>
      <point x="80" y="311"/>
      <point x="81" y="284"/>
      <point x="81" y="257" type="curve"/>
      <point x="81" y="172" type="line" smooth="yes"/>
      <point x="81" y="51"/>
      <point x="147" y="-10"/>
      <point x="244" y="-10" type="curve"/>
      <point x="291" y="-10"/>
      <point x="338" y="11"/>
      <point x="376" y="72" type="curve"/>
      <point x="379" y="71" type="line"/>
      <point x="378" y="4" type="line"/>
      <point x="396" y="-6" type="line"/>
      <point x="487" y="8" type="line"/>
      <point x="487" y="15" type="line"/>
      <point x="408" y="-22"/>
      <point x="355" y="-71"/>
      <point x="355" y="-122" type="curve"/>
      <point x="355" y="-181"/>
      <point x="413" y="-223"/>
    </contour>
    <contour>
      <point x="295" y="440" type="move" name="top"/>
    </contour>
    <contour>
      <point x="481" y="440" type="move" name="topright"/>
    </contour>
  </outline>
</glyph>
<glyph name="Schwa" format="1">
  <advance width="669"/>
  <unicode hex="018F"/>
  <outline>
    <contour>
      <point x="326" y="596" type="curve"/>
      <point x="205" y="596"/>
      <point x="102" y="532"/>
      <point x="54" y="427" type="curve"/>
      <point x="85" y="397" type="line"/>
      <point x="134" y="448"/>
      <point x="195" y="476"/>
      <point x="274" y="476" type="curve"/>
      <point x="392" y="476"/>
      <point x="465" y="397"/>
      <point x="465" y="275" type="curve"/>
      <point x="465" y="241" type="line" smooth="yes"/>
      <point x="465" y="129"/>
      <point x="423" y="64"/>
      <point x="342" y="64" type="curve"/>
      <point x="267" y="64"/>
      <point x="215" y="120"/>
      <point x="215" y="207" type="curve"/>
      <point x="215" y="251" type="line"/>
      <point x="194" y="216" type="line"/>
      <point x="546" y="216" type="line"/>
      <point x="546" y="286" type="line"/>
      <point x="50" y="286" type="line"/>
      <point x="50" y="251" type="line" smooth="yes"/>
      <point x="50" y="93"/>
      <point x="167" y="-9"/>
      <point x="342" y="-9" type="curve"/>
      <point x="499" y="-8"/>
      <point x="623" y="131"/>
      <point x="623" y="302" type="curve"/>
      <point x="623" y="470"/>
      <point x="496" y="596"/>
    </contour>
    <contour>
      <point x="337" y="0" type="move" name="bottom"/>
    </contour>
    <contour>
      <point x="337" y="587" type="move" name="top"/>
    </contour>
  </outline>
</glyph>
<glyph name="Ohorn" format="1">
  <advance width="714"/>
  <unicode hex="01A0"/>
  <note>
    Ohorn
  </note>
  <outline>
    <contour>
      <point x="703" y="654" type="curve"/>
      <point x="703" y="717"/>
      <point x="650" y="726"/>
      <point x="588" y="718" type="curve"/>
      <point x="586" y="658" type="line" smooth="yes"/>
      <point x="584" y="612"/>
      <point x="556" y="580"/>
      <point x="511" y="580" type="curve"/>
      <point x="479" y="580"/>
      <point x="431" y="596"/>
      <point x="372" y="596" type="curve"/>
      <point x="180" y="596"/>
      <point x="46" y="465"/>
      <point x="46" y="286" type="curve"/>
      <point x="46" y="114"/>
      <point x="179" y="-9"/>
      <point x="364" y="-9" type="curve"/>
      <point x="496" y="-9"/>
      <point x="668" y="94"/>
      <point x="668" y="302" type="curve"/>
      <point x="668" y="410"/>
      <point x="618" y="497"/>
      <point x="540" y="547" type="curve"/>
      <point x="472" y="531" type="line"/>
      <point x="610" y="498"/>
      <point x="703" y="576"/>
    </contour>
    <contour>
      <point x="371" y="66" type="curve"/>
      <point x="274" y="66"/>
      <point x="207" y="169"/>
      <point x="207" y="316" type="curve"/>
      <point x="207" y="449"/>
      <point x="262" y="529"/>
      <point x="352" y="529" type="curve"/>
      <point x="447" y="529"/>
      <point x="509" y="429"/>
      <point x="509" y="276" type="curve"/>
      <point x="509" y="140"/>
      <point x="461" y="66"/>
    </contour>
    <contour>
      <point x="357" y="0" type="move" name="bottom"/>
    </contour>
    <contour>
      <point x="357" y="294" type="move" name="center"/>
    </contour>
    <contour>
      <point x="357" y="587" type="move" name="top"/>
    </contour>
    <contour>
      <point x="19" y="587" type="move" name="topleft"/>
    </contour>
  </outline>
</glyph>
<glyph name="Oogonek" format="1">
  <advance width="714"/>
  <unicode hex="01EA"/>
  <outline>
    <contour>
      <point x="388" y="-223" type="curve"/>
      <point x="433" y="-223"/>
      <point x="474" y="-207"/>
      <point x="503" y="-173" type="curve"/>
      <point x="475" y="-134" type="line"/>
      <point x="451" y="-157"/>
      <point x="429" y="-168"/>
      <point x="407" y="-168" type="curve"/>
      <point x="377" y="-168"/>
      <point x="355" y="-148"/>
      <point x="355" y="-113" type="curve"/>
      <point x="355" y="-71"/>
      <point x="386" y="-21"/>
      <point x="475" y="14" type="curve"/>
      <point x="574" y="53"/>
      <point x="668" y="147"/>
      <point x="668" y="302" type="curve"/>
      <point x="668" y="475"/>
      <point x="543" y="596"/>
      <point x="364" y="596" type="curve"/>
      <point x="180" y="596"/>
      <point x="46" y="465"/>
      <point x="46" y="286" type="curve"/>
      <point x="46" y="114"/>
      <point x="179" y="-9"/>
      <point x="364" y="-9" type="curve"/>
      <point x="386" y="-9" type="line"/>
      <point x="418" y="24" type="line"/>
      <point x="316" y="-12"/>
      <point x="258" y="-65"/>
      <point x="258" y="-122" type="curve"/>
      <point x="258" y="-181"/>
      <point x="316" y="-223"/>
    </contour>
    <contour>
      <point x="371" y="66" type="curve"/>
      <point x="274" y="66"/>
      <point x="207" y="169"/>
      <point x="207" y="316" type="curve"/>
      <point x="207" y="449"/>
      <point x="262" y="529"/>
      <point x="352" y="529" type="curve"/>
      <point x="447" y="529"/>
      <point x="509" y="429"/>
      <point x="509" y="276" type="curve"/>
      <point x="509" y="140"/>
      <point x="461" y="66"/>
    </contour>
    <contour>
      <point x="357" y="294" type="move" name="center"/>
    </contour>
    <contour>
      <point x="357" y="587" type="move" name="top"/>
    </contour>
    <contour>
      <point x="19" y="587" type="move" name="topleft"/>
    </contour>
    <contour>
      <point x="695" y="587" type="move" name="topright"/>
    </contour>
  </outline>
</glyph>
<glyph name="jdotless" format="1">
  <advance width="297"/>
  <unicode hex="0237"/>
  <note>
    uni0237
  </note>
  <outline>
    <contour>
      <point x="-9" y="-185" type="curve"/>
      <point x="15" y="-230" type="line"/>
      <point x="128" y="-189"/>
      <point x="220" y="-85"/>
      <point x="220" y="23" type="curve"/>
      <point x="218" y="281" type="line"/>
      <point x="218" y="350"/>
      <point x="220" y="390"/>
      <point x="224" y="429" type="curve"/>
      <point x="196" y="446" type="line"/>
      <point x="149" y="429"/>
      <point x="77" y="411"/>
      <point x="9" y="400" type="curve"/>
      <point x="9" y="355" type="line"/>
      <point x="32" y="352"/>
      <point x="57" y="348"/>
      <point x="76" y="341" type="curve"/>
      <point x="81" y="311"/>
      <point x="84" y="284"/>
      <point x="84" y="239" type="curve"/>
      <point x="83" y="-11" type="line"/>
      <point x="83" y="-93"/>
      <point x="56" y="-145"/>
    </contour>
    <contour>
      <point x="150" y="440" type="move" name="top"/>
    </contour>
  </outline>
</glyph>
<glyph name="doubleprimemod" format="1">
  <advance width="600"/>
  <unicode hex="02BA"/>
  <note>
    uni030B
  </note>
  <outline>
    <contour>
      <point x="337" y="502" type="line"/>
      <point x="392" y="483" type="line"/>
      <point x="490" y="658" type="line"/>
      <point x="397" y="677" type="line"/>
    </contour>
    <contour>
      <point x="208" y="502" type="line"/>
      <point x="263" y="483" type="line"/>
      <point x="361" y="658" type="line"/>
      <point x="268" y="677" type="line"/>
    </contour>
    <contour>
      <point x="300" y="440" type="move" name="_top"/>
    </contour>
    <contour>
      <point x="300" y="687" type="move" name="top"/>
    </contour>
  </outline>
</glyph>
<glyph name="commaturnedmod" format="1">
  <advance width="600"/>
  <unicode hex="02BB"/>
  <note>
    uni02BB
  </note>
  <outline>
    <contour>
      <point x="393" y="701" type="curve"/>
      <point x="378" y="736" type="line"/>
      <point x="273" y="713"/>
      <point x="224" y="646"/>
      <point x="224" y="588" type="curve"/>
      <point x="224" y="531"/>
      <point x="265" y="508"/>
      <point x="306" y="508" type="curve"/>
      <point x="347" y="508"/>
      <point x="376" y="532"/>
      <point x="376" y="563" type="curve"/>
      <point x="376" y="624"/>
      <point x="309" y="613"/>
      <point x="309" y="646" type="curve"/>
      <point x="309" y="665"/>
      <point x="328" y="687"/>
    </contour>
    <contour>
      <point x="300" y="440" type="move" name="_top"/>
    </contour>
    <contour>
      <point x="300" y="662" type="move" name="top"/>
    </contour>
  </outline>
</glyph>
<glyph name="apostrophemod" format="1">
  <advance width="600"/>
  <unicode hex="02BC"/>
  <note>
    uni02BB
  </note>
  <outline>
    <contour>
      <point x="224" y="543" type="curve"/>
      <point x="239" y="508" type="line"/>
      <point x="344" y="531"/>
      <point x="393" y="598"/>
      <point x="393" y="656" type="curve"/>
      <point x="393" y="713"/>
      <point x="352" y="736"/>
      <point x="311" y="736" type="curve"/>
      <point x="270" y="736"/>
      <point x="241" y="712"/>
      <point x="241" y="681" type="curve"/>
      <point x="241" y="620"/>
      <point x="308" y="631"/>
      <point x="308" y="598" type="curve"/>
      <point x="308" y="579"/>
      <point x="289" y="557"/>
    </contour>
    <contour>
      <point x="300" y="440" type="move" name="_top"/>
    </contour>
    <contour>
      <point x="300" y="662" type="move" name="top"/>
    </contour>
  </outline>
</glyph>
<glyph name="ringhalfright" format="1">
  <advance width="600"/>
  <unicode hex="02BE"/>
  <outline>
    <contour>
      <point x="300" y="530" type="curve"/>
      <point x="300" y="484" type="line"/>
      <point x="364" y="484"/>
      <point x="413" y="530"/>
      <point x="413" y="590" type="curve"/>
      <point x="413" y="650"/>
      <point x="364" y="696"/>
      <point x="300" y="696" type="curve"/>
      <point x="300" y="652" type="line"/>
      <point x="333" y="652"/>
      <point x="358" y="626"/>
      <point x="358" y="591" type="curve"/>
      <point x="358" y="556"/>
      <point x="333" y="530"/>
    </contour>
    <contour>
      <point x="300" y="440" type="move" name="_top"/>
    </contour>
    <contour>
      <point x="300" y="662" type="move" name="top"/>
    </contour>
  </outline>
</glyph>
<glyph name="firsttonechinese" format="1">
  <advance width="600"/>
  <unicode hex="02C9"/>
  <note>
    uni0304
  </note>
  <outline>
    <contour>
      <point x="456" y="615" type="line"/>
      <point x="144" y="615" type="line"/>
      <point x="144" y="542" type="line"/>
      <point x="456" y="542" type="line"/>
    </contour>
    <contour>
      <point x="300" y="440" type="move" name="_top"/>
    </contour>
    <contour>
      <point x="300" y="687" type="move" name="top"/>
    </contour>
  </outline>
</glyph>
<glyph name="fourthtonechinese" format="1">
  <advance width="600"/>
  <unicode hex="02CB"/>
  <note>
    gravecomb
  </note>
  <outline>
    <contour>
      <point x="108" y="654" type="line"/>
      <point x="268" y="483" type="line"/>
      <point x="332" y="504" type="line"/>
      <point x="233" y="677" type="line"/>
    </contour>
    <contour>
      <point x="300" y="440" type="move" name="_top"/>
    </contour>
    <contour>
      <point x="300" y="687" type="move" name="top"/>
    </contour>
  </outline>
</glyph>
<glyph name="verticallinelowmod" format="1">
  <advance width="600"/>
  <unicode hex="02CC"/>
  <outline>
    <contour>
      <point x="264" y="-100" type="line"/>
      <point x="264" y="-220" type="line"/>
      <point x="337" y="-220" type="line"/>
      <point x="337" y="-100" type="line"/>
    </contour>
    <contour>
      <point x="300" y="0" type="move" name="_bottom"/>
    </contour>
    <contour>
      <point x="300" y="-220" type="move" name="bottom"/>
    </contour>
  </outline>
</glyph>
<glyph name="tildecomb" format="1">
  <advance width="600"/>
  <unicode hex="0303"/>
  <note>
    tildecomb
  </note>
  <outline>
    <contour>
      <point x="488" y="623" type="curve"/>
      <point x="443" y="649" type="line"/>
      <point x="425" y="617"/>
      <point x="407" y="602"/>
      <point x="382" y="602" type="curve"/>
      <point x="343" y="602"/>
      <point x="279" y="650"/>
      <point x="230" y="650" type="curve"/>
      <point x="176" y="650"/>
      <point x="133" y="607"/>
      <point x="112" y="534" type="curve"/>
      <point x="157" y="508" type="line"/>
      <point x="175" y="540"/>
      <point x="193" y="555"/>
      <point x="218" y="555" type="curve"/>
      <point x="257" y="555"/>
      <point x="321" y="507"/>
      <point x="370" y="507" type="curve"/>
      <point x="424" y="507"/>
      <point x="467" y="550"/>
    </contour>
    <contour>
      <point x="300" y="440" type="move" name="_top"/>
    </contour>
    <contour>
      <point x="300" y="687" type="move" name="top"/>
    </contour>
  </outline>
</glyph>
<glyph name="dotaccentcomb" format="1">
  <advance width="600"/>
  <unicode hex="0307"/>
  <note>
    uni0307
  </note>
  <outline>
    <contour>
      <point x="301" y="504" type="curve"/>
      <point x="350" y="504"/>
      <point x="378" y="539"/>
      <point x="378" y="578" type="curve"/>
      <point x="378" y="617"/>
      <point x="350" y="652"/>
      <point x="301" y="652" type="curve"/>
      <point x="251" y="652"/>
      <point x="222" y="617"/>
      <point x="222" y="578" type="curve"/>
      <point x="222" y="539"/>
      <point x="251" y="504"/>
    </contour>
    <contour>
      <point x="300" y="440" type="move" name="_top"/>
    </contour>
    <contour>
      <point x="300" y="662" type="move" name="top"/>
    </contour>
  </outline>
</glyph>
